CommissionerFlair-SemiBoldItalic.ufo
<glyph name="numbersign" format="2">
  <advance width="693.6315789473684"/>
  <unicode hex="0023"/>
  <outline>
    <contour>
      <point x="-9.68421052631579" y="132.68421052631578" type="line"/>
      <point x="57.789473684210535" y="137.31578947368422"/>
      <point x="121.73684210526316" y="137.8421052631579"/>
      <point x="176.6315789473684" y="137.8421052631579" type="curve"/>
      <point x="418.2105263157895" y="137.8421052631579" type="line"/>
      <point x="473.10526315789474" y="137.8421052631579"/>
      <point x="536.0" y="137.31578947368422"/>
      <point x="602.421052631579" y="132.68421052631578" type="curve"/>
      <point x="624.7368421052631" y="240.47368421052633" type="line"/>
      <point x="557.2631578947368" y="235.8421052631579"/>
      <point x="493.84210526315786" y="235.31578947368422"/>
      <point x="438.9473684210526" y="235.31578947368422" type="curve"/>
      <point x="197.3684210526316" y="235.31578947368422" type="line"/>
      <point x="142.47368421052633" y="235.31578947368422"/>
      <point x="79.05263157894737" y="235.8421052631579"/>
      <point x="12.631578947368421" y="240.47368421052633" type="curve"/>
    </contour>
    <contour>
      <point x="46.05263157894737" y="0.0" type="curve"/>
      <point x="168.8421052631579" y="0.0" type="line"/>
      <point x="187.8421052631579" y="68.52631578947368"/>
      <point x="211.3684210526316" y="130.21052631578948"/>
      <point x="244.78947368421052" y="214.26315789473685" type="curve"/>
      <point x="336.5263157894737" y="445.42105263157896" type="line"/>
      <point x="372.4210526315789" y="536.0"/>
      <point x="395.7894736842105" y="591.4210526315788"/>
      <point x="431.57894736842104" y="663.5263157894736" type="curve"/>
      <point x="309.8421052631579" y="663.5263157894736" type="line"/>
      <point x="288.6842105263158" y="589.315789473684"/>
      <point x="267.36842105263156" y="533.4736842105262"/>
      <point x="232.4736842105263" y="445.42105263157896" type="curve"/>
      <point x="140.73684210526318" y="214.26315789473685" type="line"/>
      <point x="107.31578947368422" y="130.68421052631578"/>
      <point x="79.73684210526315" y="66.42105263157895"/>
    </contour>
    <contour>
      <point x="102.94736842105263" y="420.0526315789474" type="line"/>
      <point x="170.94736842105263" y="424.6842105263158"/>
      <point x="234.3684210526316" y="425.2105263157895"/>
      <point x="289.2631578947369" y="425.2105263157895" type="curve"/>
      <point x="530.8421052631579" y="425.2105263157895" type="line"/>
      <point x="585.7368421052631" y="425.2105263157895"/>
      <point x="649.1578947368421" y="424.6842105263158"/>
      <point x="715.0526315789473" y="420.0526315789474" type="curve"/>
      <point x="737.8947368421052" y="527.8421052631579" type="line"/>
      <point x="669.8947368421052" y="523.2105263157895"/>
      <point x="606.4736842105262" y="522.6842105263158"/>
      <point x="551.578947368421" y="522.6842105263158" type="curve"/>
      <point x="310.00000000000006" y="522.6842105263158" type="line"/>
      <point x="255.10526315789474" y="522.6842105263158"/>
      <point x="191.68421052631578" y="523.2105263157895"/>
      <point x="125.78947368421052" y="527.8421052631579" type="curve"/>
    </contour>
    <contour>
      <point x="291.8421052631579" y="0.0" type="curve"/>
      <point x="414.6315789473684" y="0.0" type="line"/>
      <point x="433.6315789473684" y="68.52631578947368"/>
      <point x="457.1578947368421" y="130.21052631578948"/>
      <point x="490.57894736842104" y="214.26315789473685" type="curve"/>
      <point x="582.3157894736843" y="445.42105263157896" type="line"/>
      <point x="618.2105263157895" y="536.0"/>
      <point x="641.578947368421" y="591.4210526315788"/>
      <point x="677.3684210526316" y="663.5263157894736" type="curve"/>
      <point x="555.6315789473684" y="663.5263157894736" type="line"/>
      <point x="534.4736842105264" y="589.315789473684"/>
      <point x="513.1578947368422" y="533.4736842105262"/>
      <point x="478.2631578947369" y="445.42105263157896" type="curve"/>
      <point x="386.52631578947364" y="214.26315789473685" type="line"/>
      <point x="353.10526315789474" y="130.68421052631578"/>
      <point x="325.52631578947364" y="66.42105263157895"/>
    </contour>
  </outline>
</glyph>
<glyph name="percent" format="2">
  <advance width="923.4736842105264"/>
  <unicode hex="0025"/>
  <outline>
    <contour>
      <point x="133.4736842105263" y="0.0" type="curve"/>
      <point x="273.31578947368416" y="0.0" type="line"/>
      <point x="321.5263157894737" y="73.47368421052632"/>
      <point x="372.10526315789474" y="137.4736842105263"/>
      <point x="444.7368421052632" y="229.52631578947367" type="curve"/>
      <point x="640.421052631579" y="477.94736842105266" type="line"/>
      <point x="715.0" y="572.421052631579"/>
      <point x="768.2631578947368" y="637.0526315789474"/>
      <point x="836.578947368421" y="713.0" type="curve"/>
      <point x="697.7894736842105" y="713.0" type="line"/>
      <point x="647.0526315789474" y="637.0526315789474"/>
      <point x="595.8947368421052" y="572.421052631579"/>
      <point x="521.3157894736842" y="477.94736842105266" type="curve"/>
      <point x="325.63157894736844" y="229.52631578947367" type="line"/>
      <point x="252.99999999999997" y="137.4736842105263"/>
      <point x="200.84210526315792" y="73.47368421052632"/>
    </contour>
    <contour>
      <point x="276.36842105263156" y="365.36842105263156" type="curve" smooth="yes"/>
      <point x="382.6842105263158" y="365.36842105263156"/>
      <point x="455.7368421052632" y="415.36842105263156"/>
      <point x="478.7894736842105" y="525.2105263157895" type="curve" smooth="yes"/>
      <point x="500.8421052631579" y="630.4736842105264"/>
      <point x="427.2105263157895" y="727.1052631578947"/>
      <point x="299.2631578947369" y="727.1052631578947" type="curve" smooth="yes"/>
      <point x="190.0" y="727.1052631578947"/>
      <point x="118.47368421052632" y="670.6315789473684"/>
      <point x="96.47368421052632" y="569.578947368421" type="curve" smooth="yes"/>
      <point x="71.84210526315789" y="456.0"/>
      <point x="145.05263157894737" y="365.36842105263156"/>
    </contour>
    <contour>
      <point x="280.52631578947364" y="449.0" type="curve"/>
      <point x="212.1578947368421" y="452.05263157894734"/>
      <point x="179.99999999999997" y="498.1052631578947"/>
      <point x="191.68421052631578" y="555.5263157894738" type="curve" smooth="yes"/>
      <point x="203.42105263157893" y="611.5789473684209"/>
      <point x="238.94736842105263" y="639.8947368421052"/>
      <point x="294.57894736842104" y="643.4736842105262" type="curve"/>
      <point x="358.5263157894737" y="639.8947368421052"/>
      <point x="392.63157894736844" y="589.421052631579"/>
      <point x="380.94736842105266" y="535.5263157894738" type="curve" smooth="yes"/>
      <point x="368.7368421052632" y="475.94736842105266"/>
      <point x="333.00000000000006" y="452.05263157894734"/>
    </contour>
    <contour>
      <point x="673.7368421052632" y="-12.68421052631579" type="curve" smooth="yes"/>
      <point x="780.0526315789474" y="-12.68421052631579"/>
      <point x="853.1052631578947" y="37.31578947368421"/>
      <point x="876.1578947368421" y="147.1578947368421" type="curve" smooth="yes"/>
      <point x="898.2105263157895" y="252.42105263157896"/>
      <point x="824.578947368421" y="349.05263157894734"/>
      <point x="696.6315789473684" y="349.05263157894734" type="curve" smooth="yes"/>
      <point x="587.3684210526316" y="349.05263157894734"/>
      <point x="515.8421052631579" y="292.57894736842104"/>
      <point x="493.84210526315786" y="191.5263157894737" type="curve" smooth="yes"/>
      <point x="469.2105263157895" y="77.94736842105264"/>
      <point x="542.421052631579" y="-12.68421052631579"/>
    </contour>
    <contour>
      <point x="677.8947368421053" y="70.94736842105263" type="curve"/>
      <point x="609.5263157894736" y="74.0"/>
      <point x="577.3684210526317" y="120.05263157894738"/>
      <point x="589.0526315789474" y="177.47368421052633" type="curve" smooth="yes"/>
      <point x="600.2631578947368" y="233.5263157894737"/>
      <point x="636.3157894736842" y="261.8421052631579"/>
      <point x="691.9473684210526" y="265.42105263157896" type="curve"/>
      <point x="755.8947368421053" y="261.8421052631579"/>
      <point x="790.0" y="211.3684210526316"/>
      <point x="778.3157894736842" y="157.47368421052633" type="curve" smooth="yes"/>
      <point x="765.578947368421" y="97.89473684210526"/>
      <point x="730.3684210526317" y="74.0"/>
    </contour>
  </outline>
</glyph>
<glyph name="ampersand" format="2">
  <advance width="760.6893203883496"/>
  <unicode hex="0026"/>
  <outline>
    <contour>
      <point x="530.1650485436892" y="0.0" type="curve"/>
      <point x="701.8349514563107" y="0.0" type="line"/>
      <point x="641.5631067961164" y="68.01941747572816"/>
      <point x="588.0582524271845" y="136.9126213592233"/>
      <point x="537.1747572815534" y="204.05825242718447" type="curve"/>
      <point x="368.07766990291265" y="427.7961165048544" type="line" smooth="yes"/>
      <point x="328.9708737864077" y="479.65048543689323"/>
      <point x="317.85436893203877" y="521.1359223300971"/>
      <point x="328.3495145631067" y="568.6116504854368" type="curve" smooth="yes"/>
      <point x="338.5922330097087" y="613.3300970873787"/>
      <point x="368.57281553398053" y="631.8252427184466"/>
      <point x="413.4174757281553" y="633.8252427184466" type="curve"/>
      <point x="460.1359223300971" y="630.6990291262136"/>
      <point x="492.7378640776698" y="601.2038834951456"/>
      <point x="483.36893203883494" y="552.7378640776698" type="curve" smooth="yes"/>
      <point x="474.0" y="502.90291262135923"/>
      <point x="419.7961165048543" y="474.15533980582524"/>
      <point x="354.9514563106796" y="439.0388349514563" type="curve"/>
      <point x="410.46601941747576" y="367.252427184466" type="line"/>
      <point x="484.0776699029126" y="407.252427184466"/>
      <point x="579.4466019417475" y="449.12621359223294"/>
      <point x="598.4466019417475" y="539.6213592233009" type="curve" smooth="yes"/>
      <point x="619.8252427184466" y="642.7572815533981"/>
      <point x="534.8058252427185" y="727.252427184466"/>
      <point x="411.77669902912623" y="727.252427184466" type="curve" smooth="yes"/>
      <point x="312.757281553398" y="727.252427184466"/>
      <point x="223.24271844660197" y="683.3883495145633"/>
      <point x="202.6116504854369" y="580.242718446602" type="curve" smooth="yes"/>
      <point x="186.7378640776699" y="502.25242718446606"/>
      <point x="215.4757281553398" y="429.24271844660194"/>
      <point x="260.3398058252427" y="369.126213592233" type="curve" smooth="yes"/>
      <point x="436.6893203883495" y="136.0" type="line"/>
      <point x="471.31067961165047" y="91.0"/>
      <point x="506.67961165048536" y="44.12621359223301"/>
    </contour>
    <contour>
      <point x="233.2233009708738" y="-11.37864077669903" type="curve" smooth="yes"/>
      <point x="315.7087378640777" y="-11.37864077669903"/>
      <point x="380.59223300970876" y="31.728155339805824"/>
      <point x="457.70873786407765" y="92.83495145631069" type="curve"/>
      <point x="472.0873786407767" y="92.83495145631069" type="line"/>
      <point x="465.3398058252427" y="114.09708737864078" type="line"/>
      <point x="412.18446601941747" y="185.75728155339806" type="line"/>
      <point x="358.3495145631067" y="127.05825242718446"/>
      <point x="304.1262135922331" y="96.33009708737865"/>
      <point x="256.1650485436893" y="96.33009708737865" type="curve"/>
      <point x="176.21359223300968" y="99.45631067961166"/>
      <point x="145.98058252427182" y="152.18446601941747"/>
      <point x="159.34951456310677" y="213.76699029126215" type="curve" smooth="yes"/>
      <point x="172.3398058252427" y="275.5922330097087"/>
      <point x="218.92233009708735" y="311.20388349514565"/>
      <point x="290.87378640776694" y="340.32038834951453" type="curve"/>
      <point x="244.59223300970874" y="418.62135922330094" type="line"/>
      <point x="146.09708737864077" y="385.36893203883494"/>
      <point x="56.349514563106794" y="328.495145631068"/>
      <point x="32.47572815533981" y="213.50485436893206" type="curve" smooth="yes"/>
      <point x="9.097087378640778" y="101.24271844660194"/>
      <point x="79.96116504854369" y="-11.37864077669903"/>
    </contour>
    <contour>
      <point x="552.8155339805825" y="170.85436893203885" type="line"/>
      <point x="614.5728155339806" y="231.3495145631068"/>
      <point x="673.8349514563106" y="290.09708737864077"/>
      <point x="740.0970873786408" y="346.0873786407767" type="curve"/>
      <point x="629.5145631067961" y="426.53398058252424" type="line"/>
      <point x="587.1456310679612" y="362.6601941747573"/>
      <point x="539.2718446601941" y="305.78640776699035"/>
      <point x="488.77669902912623" y="246.41747572815532" type="curve"/>
    </contour>
  </outline>
</glyph>
<glyph name="quotesingle" format="2">
  <advance width="219.31578947368422"/>
  <unicode hex="0027"/>
  <outline>
    <contour>
      <point x="85.68421052631578" y="409.6842105263158" type="curve"/>
      <point x="182.6842105263158" y="410.6842105263158" type="line"/>
      <point x="211.10526315789474" y="523.1578947368421"/>
      <point x="241.42105263157893" y="634.578947368421"/>
      <point x="278.89473684210526" y="744.5263157894736" type="curve"/>
      <point x="132.78947368421052" y="741.421052631579" type="line"/>
      <point x="122.31578947368422" y="632.0"/>
      <point x="105.6842105263158" y="521.578947368421"/>
    </contour>
  </outline>
</glyph>
<glyph name="parenleft" format="2">
  <advance width="404.5263157894737"/>
  <unicode hex="0028"/>
  <outline>
    <contour>
      <point x="200.47368421052633" y="-129.3684210526316" type="curve"/>
      <point x="308.10526315789474" y="-92.57894736842105" type="line"/>
      <point x="223.05263157894734" y="29.42105263157895"/>
      <point x="162.94736842105266" y="154.78947368421055"/>
      <point x="201.42105263157896" y="334.6842105263158" type="curve" smooth="yes"/>
      <point x="239.89473684210526" y="515.578947368421"/>
      <point x="351.8947368421052" y="633.4736842105262"/>
      <point x="482.0" y="734.578947368421" type="curve"/>
      <point x="376.9473684210526" y="776.3157894736842" type="line"/>
      <point x="254.63157894736844" y="688.2105263157895"/>
      <point x="113.63157894736842" y="554.6315789473684"/>
      <point x="70.47368421052632" y="350.3157894736842" type="curve" smooth="yes"/>
      <point x="27.31578947368421" y="146.4736842105263"/>
      <point x="117.78947368421055" y="-21.36842105263157"/>
    </contour>
  </outline>
</glyph>
<glyph name="asterisk" format="2">
  <advance width="486.9473684210526"/>
  <unicode hex="002A"/>
  <outline>
    <contour>
      <point x="436.52631578947364" y="324.7894736842105" type="curve"/>
      <point x="499.9473684210526" y="394.47368421052624" type="line"/>
      <point x="437.63157894736844" y="439.7894736842105"/>
      <point x="377.42105263157896" y="487.10526315789474"/>
      <point x="318.1578947368421" y="534.9473684210526" type="curve"/>
      <point x="264.6842105263158" y="591.5789473684212"/>
      <point x="213.73684210526315" y="648.2631578947369"/>
      <point x="163.31578947368416" y="707.0" type="curve"/>
      <point x="100.36842105263158" y="637.3157894736842" type="line"/>
      <point x="161.6842105263158" y="592.0000000000001"/>
      <point x="222.94736842105263" y="544.1578947368422"/>
      <point x="281.6842105263158" y="495.3157894736842" type="curve"/>
      <point x="334.6315789473684" y="439.6842105263158"/>
      <point x="386.10526315789474" y="382.47368421052636"/>
    </contour>
    <contour>
      <point x="97.78947368421053" y="397.10526315789474" type="line"/>
      <point x="167.3157894736842" y="429.8421052631579"/>
      <point x="237.36842105263156" y="460.5263157894737"/>
      <point x="308.89473684210526" y="490.6842105263158" type="curve"/>
      <point x="382.57894736842104" y="510.42105263157896"/>
      <point x="457.2105263157895" y="529.1578947368422"/>
      <point x="531.8947368421053" y="545.8947368421053" type="curve"/>
      <point x="502.05263157894734" y="634.6842105263157" type="line"/>
      <point x="432.52631578947364" y="601.421052631579"/>
      <point x="362.4736842105263" y="570.7368421052632"/>
      <point x="291.9473684210526" y="541.578947368421" type="curve"/>
      <point x="217.26315789473685" y="520.8421052631578"/>
      <point x="143.10526315789474" y="502.57894736842104"/>
      <point x="67.42105263157893" y="485.8947368421052" type="curve"/>
    </contour>
    <contour>
      <point x="205.6842105263158" y="301.4736842105263" type="curve"/>
      <point x="298.05263157894734" y="281.36842105263156" type="line"/>
      <point x="305.7894736842105" y="358.0"/>
      <point x="315.57894736842104" y="434.63157894736844"/>
      <point x="325.89473684210526" y="511.2105263157895" type="curve"/>
      <point x="347.63157894736844" y="584.2631578947369"/>
      <point x="369.36842105263156" y="657.7894736842106"/>
      <point x="393.6315789473684" y="730.8421052631579" type="curve"/>
      <point x="301.7894736842106" y="750.421052631579" type="line"/>
      <point x="294.05263157894734" y="673.7894736842105"/>
      <point x="284.2631578947369" y="597.6842105263158"/>
      <point x="273.94736842105266" y="522.0" type="curve"/>
      <point x="252.21052631578948" y="447.5263157894737"/>
      <point x="230.47368421052633" y="374.0"/>
    </contour>
  </outline>
</glyph>
<glyph name="plus" format="2">
  <advance width="596.2631578947369"/>
  <unicode hex="002B"/>
  <outline>
    <contour>
      <point x="191.8947368421053" y="53.94736842105263" type="curve"/>
      <point x="321.1052631578947" y="53.94736842105263" type="line"/>
      <point x="331.0526315789474" y="120.42105263157895"/>
      <point x="343.6315789473684" y="184.31578947368422"/>
      <point x="355.2105263157894" y="238.6842105263158" type="curve"/>
      <point x="382.05263157894734" y="364.47368421052636" type="line"/>
      <point x="394.1578947368421" y="420.42105263157896"/>
      <point x="408.2631578947368" y="483.8421052631579"/>
      <point x="426.99999999999994" y="550.7894736842105" type="curve"/>
      <point x="297.7894736842105" y="550.7894736842105" type="line"/>
      <point x="287.84210526315786" y="484.3157894736842"/>
      <point x="275.2631578947368" y="420.42105263157896"/>
      <point x="263.1578947368421" y="363.94736842105266" type="curve"/>
      <point x="236.31578947368422" y="238.6842105263158" type="line"/>
      <point x="224.73684210526318" y="184.31578947368422"/>
      <point x="210.63157894736847" y="120.42105263157895"/>
    </contour>
    <contour>
      <point x="52.26315789473684" y="240.10526315789474" type="line"/>
      <point x="120.73684210526316" y="244.73684210526318"/>
      <point x="184.1578947368421" y="245.26315789473685"/>
      <point x="239.05263157894737" y="245.26315789473685" type="curve"/>
      <point x="355.89473684210526" y="245.26315789473685" type="line"/>
      <point x="410.7894736842105" y="245.26315789473685"/>
      <point x="474.2105263157895" y="244.73684210526318"/>
      <point x="539.6315789473683" y="240.10526315789474" type="curve"/>
      <point x="566.578947368421" y="364.6315789473684" type="line"/>
      <point x="498.63157894736844" y="360.0"/>
      <point x="435.2105263157895" y="359.4736842105263"/>
      <point x="380.3157894736842" y="359.4736842105263" type="curve"/>
      <point x="263.4736842105263" y="359.4736842105263" type="line"/>
      <point x="208.57894736842104" y="359.4736842105263"/>
      <point x="145.1578947368421" y="360.0"/>
      <point x="79.21052631578948" y="364.6315789473684" type="curve"/>
    </contour>
  </outline>
</glyph>
<glyph name="comma" format="2">
  <advance width="244.52631578947367"/>
  <unicode hex="002C"/>
  <outline>
    <contour>
      <point x="-66.84210526315789" y="-157.0" type="curve"/>
      <point x="8.894736842105267" y="-155.47368421052633" type="line"/>
      <point x="56.42105263157896" y="-110.21052631578948"/>
      <point x="147.10526315789474" y="-16.157894736842106"/>
      <point x="162.73684210526318" y="60.00000000000001" type="curve" smooth="yes"/>
      <point x="172.47368421052633" y="108.1578947368421"/>
      <point x="159.15789473684208" y="145.68421052631578"/>
      <point x="109.78947368421052" y="156.5263157894737" type="curve"/>
      <point x="37.94736842105264" y="151.31578947368422" type="line"/>
      <point x="38.05263157894738" y="111.0"/>
      <point x="33.00000000000001" y="70.68421052631578"/>
      <point x="25.368421052631582" y="33.526315789473685" type="curve"/>
      <point x="12.8421052631579" y="-26.631578947368418"/>
      <point x="-22.68421052631579" y="-98.52631578947368"/>
    </contour>
  </outline>
</glyph>
<glyph name="slash" format="2">
  <advance width="462.7368421052631"/>
  <unicode hex="002F"/>
  <outline>
    <contour>
      <point x="-36.631578947368425" y="0.0" type="curve"/>
      <point x="116.0" y="0.0" type="line"/>
      <point x="152.4736842105263" y="74.0"/>
      <point x="188.73684210526315" y="137.0"/>
      <point x="243.94736842105263" y="228.0" type="curve"/>
      <point x="391.6842105263158" y="474.0" type="line"/>
      <point x="449.89473684210526" y="571.0"/>
      <point x="489.7368421052632" y="636.0"/>
      <point x="544.3157894736843" y="713.0" type="curve"/>
      <point x="392.2105263157895" y="713.0" type="line"/>
      <point x="353.7894736842105" y="636.0"/>
      <point x="316.0" y="571.0"/>
      <point x="259.3157894736842" y="476.5263157894737" type="curve"/>
      <point x="110.05263157894736" y="228.0" type="line"/>
      <point x="54.8421052631579" y="137.0"/>
      <point x="14.999999999999998" y="74.0"/>
    </contour>
  </outline>
</glyph>
<glyph name="one" format="2">
  <advance width="451.1578947368421"/>
  <unicode hex="0031"/>
  <outline>
    <contour>
      <point x="100.05263157894737" y="440.4210526315789" type="line"/>
      <point x="183.15789473684208" y="486.0"/>
      <point x="267.8421052631579" y="524.3157894736843"/>
      <point x="352.4736842105263" y="561.578947368421" type="curve"/>
      <point x="383.15789473684214" y="691.2631578947369" type="line"/>
      <point x="285.0" y="647.2631578947369"/>
      <point x="187.31578947368422" y="603.7368421052631"/>
      <point x="89.21052631578948" y="568.0" type="curve"/>
    </contour>
    <contour>
      <point x="156.42105263157893" y="0.0" type="curve"/>
      <point x="313.0" y="0.0" type="line"/>
      <point x="321.6842105263158" y="71.84210526315789"/>
      <point x="331.0" y="134.21052631578948"/>
      <point x="348.5263157894737" y="216.78947368421052" type="curve"/>
      <point x="397.57894736842104" y="448.05263157894734" type="line"/>
      <point x="414.5263157894737" y="529.8947368421053"/>
      <point x="434.10526315789474" y="609.8421052631579"/>
      <point x="458.4736842105263" y="687.1578947368421" type="curve"/>
      <point x="383.15789473684214" y="691.2631578947369" type="line"/>
      <point x="294.6842105263158" y="630.6315789473684" type="line"/>
      <point x="284.89473684210526" y="560.3684210526316"/>
      <point x="271.47368421052636" y="492.5263157894737"/>
      <point x="256.5263157894737" y="422.2631578947368" type="curve"/>
      <point x="213.26315789473685" y="216.78947368421052" type="line"/>
      <point x="195.73684210526318" y="134.21052631578948"/>
      <point x="178.6315789473684" y="71.84210526315789"/>
    </contour>
  </outline>
</glyph>
<glyph name="two" format="2">
  <advance width="565.1052631578947"/>
  <unicode hex="0032"/>
  <outline>
    <contour>
      <point x="-7.421052631578945" y="0.0" type="line"/>
      <point x="466.2631578947369" y="0.0" type="line"/>
      <point x="493.7894736842106" y="129.31578947368422" type="line"/>
      <point x="421.2631578947368" y="117.84210526315789"/>
      <point x="350.42105263157896" y="116.3157894736842"/>
      <point x="280.5263157894737" y="116.3157894736842" type="curve"/>
      <point x="152.15789473684208" y="116.3157894736842" type="line"/>
      <point x="167.05263157894737" y="85.84210526315789" type="line"/>
      <point x="285.84210526315786" y="167.57894736842107" type="line"/>
      <point x="450.42105263157896" y="280.4736842105263"/>
      <point x="533.6315789473684" y="360.36842105263156"/>
      <point x="556.5263157894736" y="469.7894736842105" type="curve" smooth="yes"/>
      <point x="583.7368421052631" y="599.6315789473684"/>
      <point x="510.68421052631584" y="701.2631578947369"/>
      <point x="350.5789473684211" y="701.2631578947369" type="curve" smooth="yes"/>
      <point x="285.1052631578947" y="701.2631578947369"/>
      <point x="186.05263157894737" y="668.5789473684212"/>
      <point x="124.6842105263158" y="649.7368421052631" type="curve"/>
      <point x="110.00000000000001" y="510.7894736842105" type="line"/>
      <point x="193.94736842105266" y="556.6842105263158"/>
      <point x="286.10526315789474" y="586.1052631578948"/>
      <point x="319.0" y="586.1052631578948" type="curve"/>
      <point x="398.15789473684214" y="584.0526315789474"/>
      <point x="431.2105263157895" y="537.3684210526317"/>
      <point x="416.5263157894737" y="469.4210526315789" type="curve" smooth="yes"/>
      <point x="397.2631578947369" y="378.1578947368421"/>
      <point x="298.421052631579" y="301.36842105263156"/>
      <point x="144.4736842105263" y="188.68421052631578" type="curve"/>
      <point x="99.89473684210526" y="156.5263157894737"/>
      <point x="57.42105263157896" y="128.57894736842104"/>
      <point x="13.842105263157896" y="102.10526315789473" type="curve"/>
    </contour>
  </outline>
</glyph>
<glyph name="three" format="2">
  <advance width="580.2718446601941"/>
  <unicode hex="0033"/>
  <outline>
    <contour>
      <point x="243.25242718446597" y="-12.504854368932039" type="curve" smooth="yes"/>
      <point x="416.7864077669903" y="-12.504854368932039"/>
      <point x="496.1650485436893" y="48.368932038834956"/>
      <point x="520.4174757281553" y="162.8834951456311" type="curve" smooth="yes"/>
      <point x="543.2912621359224" y="271.126213592233"/>
      <point x="473.93203883495147" y="335.11650485436894"/>
      <point x="412.9320388349514" y="352.495145631068" type="curve"/>
      <point x="415.0582524271844" y="364.12621359223294" type="line"/>
      <point x="490.1747572815534" y="378.0"/>
      <point x="551.6699029126213" y="413.8640776699029"/>
      <point x="569.6699029126213" y="498.99029126213594" type="curve" smooth="yes"/>
      <point x="592.7961165048544" y="609.3689320388349"/>
      <point x="507.6601941747573" y="701.6310679611651"/>
      <point x="357.74757281553394" y="701.6310679611651" type="curve" smooth="yes"/>
      <point x="293.62135922330094" y="701.6310679611651"/>
      <point x="196.24271844660197" y="668.5145631067959"/>
      <point x="135.23300970873788" y="649.8932038834951" type="curve"/>
      <point x="120.3398058252427" y="512.2718446601942" type="line"/>
      <point x="203.20388349514565" y="556.8932038834951"/>
      <point x="294.96116504854365" y="585.9029126213593"/>
      <point x="327.8349514563107" y="585.9029126213593" type="curve"/>
      <point x="401.0485436893204" y="583.6504854368933"/>
      <point x="440.1456310679612" y="548.0485436893205"/>
      <point x="427.02912621359224" y="486.83495145631065" type="curve" smooth="yes"/>
      <point x="414.7864077669903" y="431.11650485436894"/>
      <point x="367.06796116504853" y="405.8932038834951"/>
      <point x="268.1359223300971" y="403.7669902912621" type="curve"/>
      <point x="244.126213592233" y="403.7669902912621"/>
      <point x="220.24271844660197" y="404.7669902912621"/>
      <point x="197.3592233009709" y="409.2718446601941" type="curve"/>
      <point x="172.84466019417476" y="294.8252427184466" type="line"/>
      <point x="199.35922330097085" y="298.33009708737865"/>
      <point x="224.8640776699029" y="299.33009708737865"/>
      <point x="251.25242718446603" y="299.33009708737865" type="curve"/>
      <point x="351.05825242718447" y="298.07766990291265"/>
      <point x="399.7766990291262" y="255.11650485436894"/>
      <point x="385.0388349514563" y="188.16504854368932" type="curve" smooth="yes"/>
      <point x="372.92233009708735" y="132.07766990291262"/>
      <point x="332.4466019417476" y="104.4757281553398"/>
      <point x="244.504854368932" y="102.3495145631068" type="curve"/>
      <point x="185.26213592233006" y="102.3495145631068"/>
      <point x="104.25242718446601" y="133.7281553398058"/>
      <point x="34.13592233009709" y="174.34951456310682" type="curve"/>
      <point x="-2.7669902912621325" y="48.61165048543689" type="line"/>
      <point x="51.23300970873787" y="28.116504854368934"/>
      <point x="136.3592233009709" y="-12.504854368932039"/>
    </contour>
  </outline>
</glyph>
<glyph name="four" format="2">
  <advance width="609.7766990291262"/>
  <unicode hex="0034"/>
  <outline>
    <contour>
      <point x="277.6893203883495" y="0.0" type="curve"/>
      <point x="434.4660194174757" y="0.0" type="line"/>
      <point x="438.58252427184465" y="65.50485436893203"/>
      <point x="449.58252427184465" y="119.38834951456312"/>
      <point x="465.8349514563107" y="197.27184466019418" type="curve"/>
      <point x="518.4563106796116" y="446.37864077669906" type="line"/>
      <point x="534.4563106796116" y="525.378640776699"/>
      <point x="552.5825242718446" y="604.378640776699"/>
      <point x="580.3398058252427" y="687.378640776699" type="curve"/>
      <point x="421.43689320388347" y="687.378640776699" type="line"/>
      <point x="390.6990291262136" y="644.8834951456311"/>
      <point x="352.45631067961165" y="601.6407766990291"/>
      <point x="314.0873786407767" y="559.2718446601941" type="curve"/>
      <point x="204.4757281553398" y="438.53398058252424" type="line"/>
      <point x="150.23300970873785" y="378.29126213592235"/>
      <point x="75.36893203883494" y="298.3009708737864"/>
      <point x="26.252427184466022" y="249.94174757281553" type="curve"/>
      <point x="5.233009708737863" y="148.3495145631068" type="line"/>
      <point x="370.7281553398059" y="148.3495145631068" type="line"/>
      <point x="427.99029126213594" y="148.3495145631068"/>
      <point x="509.88349514563106" y="147.22330097087377"/>
      <point x="560.8932038834953" y="141.59223300970874" type="curve"/>
      <point x="588.5436893203886" y="272.2135922330097" type="line"/>
      <point x="535.2815533980583" y="265.58252427184465"/>
      <point x="451.38834951456306" y="264.58252427184465"/>
      <point x="394.126213592233" y="264.58252427184465" type="curve"/>
      <point x="378.2427184466019" y="262.05825242718447" type="line"/>
      <point x="136.2233009708738" y="262.05825242718447" type="line"/>
      <point x="144.61165048543688" y="221.97087378640776" type="line"/>
      <point x="178.60194174757282" y="264.3398058252427"/>
      <point x="215.97087378640776" y="307.7087378640777"/>
      <point x="254.3398058252427" y="350.0776699029127" type="curve"/>
      <point x="399.68932038834953" y="509.4271844660194" type="line"/>
      <point x="444.93203883495147" y="559.6699029126214"/>
      <point x="488.0485436893204" y="605.5339805825244"/>
      <point x="532.1650485436893" y="646.0194174757281" type="curve"/>
      <point x="418.8252427184466" y="628.4563106796115" type="line"/>
      <point x="411.7087378640777" y="558.9611650485438"/>
      <point x="397.9611650485437" y="490.46601941747576"/>
      <point x="383.0873786407767" y="420.09708737864077" type="curve"/>
      <point x="340.4757281553398" y="218.28155339805826" type="line"/>
      <point x="330.20388349514565" y="197.27184466019418" type="line"/>
      <point x="313.9514563106796" y="119.38834951456312"/>
      <point x="301.8252427184466" y="65.50485436893203"/>
    </contour>
  </outline>
</glyph>
<glyph name="five" format="2">
  <advance width="581.6407766990292"/>
  <unicode hex="0035"/>
  <outline>
    <contour>
      <point x="238.25242718446606" y="-12.504854368932039" type="curve" smooth="yes"/>
      <point x="410.16504854368935" y="-12.504854368932039"/>
      <point x="498.7864077669903" y="60.25242718446601"/>
      <point x="528.2815533980581" y="201.23300970873782" type="curve" smooth="yes"/>
      <point x="559.0291262135921" y="348.7281553398058"/>
      <point x="471.2912621359223" y="445.8543689320389"/>
      <point x="356.3009708737864" y="445.8543689320389" type="curve" smooth="yes"/>
      <point x="316.18446601941747" y="445.8543689320389"/>
      <point x="285.81553398058253" y="435.1067961165048"/>
      <point x="251.82524271844662" y="419.4854368932039" type="curve"/>
      <point x="241.06796116504856" y="419.4854368932039" type="line"/>
      <point x="248.81553398058253" y="455.22330097087377" type="line"/>
      <point x="260.6893203883495" y="507.83495145631065"/>
      <point x="273.8155339805825" y="562.3203883495147"/>
      <point x="290.3203883495146" y="614.9320388349514" type="curve"/>
      <point x="230.91262135922332" y="571.1456310679612" type="line"/>
      <point x="331.4077669902913" y="571.1456310679612" type="line"/>
      <point x="409.1553398058253" y="571.1456310679612"/>
      <point x="489.77669902912623" y="570.1456310679612"/>
      <point x="566.1456310679613" y="558.0097087378641" type="curve"/>
      <point x="592.7961165048545" y="687.378640776699" type="line"/>
      <point x="160.71844660194174" y="687.378640776699" type="line"/>
      <point x="153.2233009708738" y="606.3689320388349"/>
      <point x="135.09708737864077" y="517.1067961165049"/>
      <point x="114.84466019417475" y="421.84466019417476" type="curve"/>
      <point x="91.46601941747572" y="309.2038834951456" type="line"/>
      <point x="149.01941747572818" y="304.82524271844665" type="line"/>
      <point x="198.86407766990294" y="331.8058252427184"/>
      <point x="237.3592233009709" y="341.17475728155335"/>
      <point x="280.9611650485437" y="341.17475728155335" type="curve"/>
      <point x="357.5533980582524" y="339.04854368932035"/>
      <point x="407.5145631067961" y="296.0776699029126"/>
      <point x="390.90291262135923" y="212.89320388349515" type="curve" smooth="yes"/>
      <point x="375.16504854368935" y="134.8252427184466"/>
      <point x="322.5728155339806" y="104.4757281553398"/>
      <point x="238.378640776699" y="102.3495145631068" type="curve"/>
      <point x="180.2621359223301" y="102.3495145631068"/>
      <point x="102.25242718446601" y="133.7281553398058"/>
      <point x="34.13592233009709" y="174.34951456310682" type="curve"/>
      <point x="-2.7669902912621325" y="48.61165048543689" type="line"/>
      <point x="50.23300970873786" y="28.116504854368934"/>
      <point x="133.35922330097088" y="-12.504854368932039"/>
    </contour>
  </outline>
</glyph>
<glyph name="seven" format="2">
  <advance width="543.6315789473684"/>
  <unicode hex="0037"/>
  <outline>
    <contour>
      <point x="37.94736842105263" y="0.0" type="curve"/>
      <point x="211.52631578947367" y="0.0" type="line"/>
      <point x="251.2631578947368" y="78.10526315789474"/>
      <point x="297.6842105263158" y="156.1578947368421"/>
      <point x="347.3157894736842" y="232.78947368421052" type="curve"/>
      <point x="433.1578947368421" y="365.10526315789474" type="line"/>
      <point x="484.2105263157895" y="444.10526315789474"/>
      <point x="530.7894736842105" y="516.1052631578948"/>
      <point x="579.3684210526316" y="584.3157894736842" type="curve"/>
      <point x="601.1578947368421" y="687.1578947368421" type="line"/>
      <point x="117.0" y="687.1578947368421" type="line"/>
      <point x="89.47368421052632" y="556.2631578947369" type="line"/>
      <point x="171.05263157894737" y="567.6842105263158"/>
      <point x="250.5789473684211" y="570.8421052631579"/>
      <point x="328.57894736842104" y="570.8421052631579" type="curve"/>
      <point x="460.7368421052632" y="570.8421052631579" type="line"/>
      <point x="424.84210526315786" y="598.2105263157895" type="line"/>
      <point x="399.3684210526316" y="550.0"/>
      <point x="371.2105263157895" y="503.3157894736842"/>
      <point x="338.89473684210526" y="453.5263157894737" type="curve"/>
      <point x="210.3684210526316" y="257.1578947368421" type="line"/>
      <point x="154.73684210526315" y="172.05263157894737"/>
      <point x="97.10526315789474" y="85.0"/>
    </contour>
  </outline>
</glyph>
<glyph name="eight" format="2">
  <advance width="615.2718446601941"/>
  <unicode hex="0038"/>
  <outline>
    <contour>
      <point x="286.3883495145631" y="-12.504854368932039" type="curve" smooth="yes"/>
      <point x="450.16504854368935" y="-12.504854368932039"/>
      <point x="532.2912621359224" y="54.36893203883494"/>
      <point x="556.4174757281554" y="166.0" type="curve" smooth="yes"/>
      <point x="581.2912621359224" y="280.49514563106794"/>
      <point x="513.6796116504854" y="340.6116504854369"/>
      <point x="456.0485436893204" y="360.1165048543689" type="curve"/>
      <point x="458.1747572815534" y="370.87378640776694" type="line"/>
      <point x="530.0582524271845" y="382.62135922330094"/>
      <point x="589.1747572815534" y="421.99029126213594"/>
      <point x="605.1747572815534" y="499.8640776699029" type="curve" smooth="yes"/>
      <point x="628.3009708737865" y="610.6213592233009"/>
      <point x="542.1650485436893" y="701.6310679611651"/>
      <point x="375.50485436893206" y="701.6310679611651" type="curve" smooth="yes"/>
      <point x="245.10679611650482" y="701.6310679611651"/>
      <point x="147.2233009708738" y="652.378640776699"/>
      <point x="126.09708737864077" y="551.6213592233009" type="curve" smooth="yes"/>
      <point x="108.09708737864077" y="465.74757281553406"/>
      <point x="156.59223300970874" y="404.252427184466"/>
      <point x="211.2233009708738" y="386.378640776699" type="curve"/>
      <point x="209.09708737864077" y="375.62135922330094" type="line"/>
      <point x="143.2135922330097" y="364.49514563106794"/>
      <point x="58.728155339805824" y="329.87378640776694"/>
      <point x="35.85436893203884" y="222.504854368932" type="curve" smooth="yes"/>
      <point x="10.601941747572818" y="103.62135922330096"/>
      <point x="82.35922330097088" y="-12.504854368932039"/>
    </contour>
    <contour>
      <point x="291.0194174757282" y="102.46601941747574" type="curve"/>
      <point x="191.60194174757282" y="105.46601941747575"/>
      <point x="159.11650485436894" y="160.4271844660194"/>
      <point x="172.23300970873788" y="221.0097087378641" type="curve" smooth="yes"/>
      <point x="187.0970873786408" y="290.33009708737865"/>
      <point x="242.67961165048544" y="308.44660194174753"/>
      <point x="315.747572815534" y="311.5728155339806" type="curve"/>
      <point x="391.0679611650486" y="308.32038834951453"/>
      <point x="442.28155339805824" y="266.34951456310677"/>
      <point x="427.5436893203883" y="194.15533980582524" type="curve" smooth="yes"/>
      <point x="415.42718446601936" y="135.3203883495146"/>
      <point x="372.5825242718447" y="105.46601941747575"/>
    </contour>
    <contour>
      <point x="348.7669902912622" y="412.6407766990291" type="curve"/>
      <point x="275.82524271844653" y="414.8932038834952"/>
      <point x="238.9708737864078" y="459.990291262136"/>
      <point x="251.21359223300976" y="515.4563106796115" type="curve" smooth="yes"/>
      <point x="263.5825242718447" y="570.6796116504854"/>
      <point x="310.30097087378635" y="587.4174757281554"/>
      <point x="370.25242718446606" y="590.6699029126214" type="curve"/>
      <point x="443.0679611650486" y="587.4174757281554"/>
      <point x="485.16504854368924" y="552.6893203883495"/>
      <point x="472.9223300970873" y="492.22330097087377" type="curve" smooth="yes"/>
      <point x="462.55339805825236" y="441.00000000000006"/>
      <point x="417.70873786407765" y="414.8932038834952"/>
    </contour>
  </outline>
</glyph>
<glyph name="less" format="2">
  <advance width="575.7894736842105"/>
  <unicode hex="003C"/>
  <outline>
    <contour>
      <point x="480.2105263157895" y="52.8421052631579" type="curve"/>
      <point x="507.6842105263158" y="180.42105263157893" type="line"/>
      <point x="449.4210526315789" y="198.73684210526315"/>
      <point x="388.7368421052631" y="224.6315789473684"/>
      <point x="331.05263157894734" y="250.05263157894737" type="curve"/>
      <point x="238.36842105263156" y="290.6315789473684" type="line"/>
      <point x="240.89473684210523" y="301.89473684210526" type="line"/>
      <point x="349.6842105263158" y="341.42105263157896" type="line"/>
      <point x="419.1578947368421" y="366.8421052631579"/>
      <point x="490.57894736842104" y="391.6842105263158"/>
      <point x="556.5263157894738" y="410.0" type="curve"/>
      <point x="585.578947368421" y="550.9473684210526" type="line"/>
      <point x="512.5789473684212" y="519.2105263157895"/>
      <point x="443.15789473684214" y="493.2105263157895"/>
      <point x="383.3157894736843" y="471.2105263157895" type="curve"/>
      <point x="278.5263157894737" y="432.5263157894737" type="line"/>
      <point x="219.1052631578947" y="411.0"/>
      <point x="150.21052631578945" y="386.5263157894737"/>
      <point x="79.26315789473685" y="365.6842105263158" type="curve"/>
      <point x="51.78947368421053" y="238.10526315789474" type="line"/>
      <point x="114.31578947368422" y="217.26315789473688"/>
      <point x="172.68421052631578" y="192.78947368421052"/>
      <point x="222.6315789473684" y="171.26315789473685" type="curve"/>
      <point x="311.0" y="132.57894736842104" type="line"/>
      <point x="361.36842105263156" y="110.57894736842105"/>
      <point x="420.7894736842105" y="84.10526315789474"/>
    </contour>
  </outline>
</glyph>
<glyph name="equal" format="2">
  <advance width="575.7894736842105"/>
  <unicode hex="003D"/>
  <outline>
    <contour>
      <point x="32.89473684210526" y="121.94736842105263" type="line"/>
      <point x="100.89473684210526" y="126.57894736842105"/>
      <point x="164.3157894736842" y="127.10526315789474"/>
      <point x="219.21052631578945" y="127.10526315789474" type="curve"/>
      <point x="305.5263157894737" y="127.10526315789474" type="line"/>
      <point x="360.421052631579" y="127.10526315789474"/>
      <point x="423.8421052631579" y="126.57894736842105"/>
      <point x="489.7368421052631" y="121.94736842105263" type="curve"/>
      <point x="516.2105263157894" y="246.47368421052633" type="line"/>
      <point x="448.2631578947368" y="241.8421052631579"/>
      <point x="384.8421052631579" y="241.31578947368422"/>
      <point x="329.9473684210526" y="241.31578947368422" type="curve"/>
      <point x="243.6315789473684" y="241.31578947368422" type="line"/>
      <point x="188.73684210526315" y="241.31578947368422"/>
      <point x="125.3157894736842" y="241.8421052631579"/>
      <point x="59.368421052631575" y="246.47368421052633" type="curve"/>
    </contour>
    <contour>
      <point x="82.21052631578947" y="358.2631578947369" type="line"/>
      <point x="150.21052631578948" y="362.89473684210526"/>
      <point x="213.6315789473684" y="363.42105263157896"/>
      <point x="268.52631578947364" y="363.42105263157896" type="curve"/>
      <point x="354.84210526315786" y="363.42105263157896" type="line"/>
      <point x="409.7368421052632" y="363.42105263157896"/>
      <point x="473.1578947368421" y="362.89473684210526"/>
      <point x="539.0526315789474" y="358.2631578947369" type="curve"/>
      <point x="565.5263157894736" y="482.7894736842105" type="line"/>
      <point x="497.57894736842104" y="478.15789473684214"/>
      <point x="434.15789473684214" y="477.63157894736844"/>
      <point x="379.2631578947368" y="477.63157894736844" type="curve"/>
      <point x="292.9473684210526" y="477.63157894736844" type="line"/>
      <point x="238.05263157894734" y="477.63157894736844"/>
      <point x="174.6315789473684" y="478.15789473684214"/>
      <point x="108.6842105263158" y="482.7894736842105" type="curve"/>
    </contour>
  </outline>
</glyph>
<glyph name="greater" format="2">
  <advance width="575.7894736842105"/>
  <unicode hex="003E"/>
  <outline>
    <contour>
      <point x="12.842105263157894" y="52.8421052631579" type="line"/>
      <point x="85.8421052631579" y="84.57894736842105"/>
      <point x="155.26315789473682" y="110.57894736842105"/>
      <point x="215.10526315789474" y="132.57894736842104" type="curve"/>
      <point x="319.89473684210526" y="171.26315789473685" type="line"/>
      <point x="379.3157894736842" y="192.78947368421052"/>
      <point x="448.2105263157895" y="217.26315789473688"/>
      <point x="519.1578947368421" y="238.10526315789474" type="curve"/>
      <point x="546.6315789473683" y="365.6842105263158" type="line"/>
      <point x="484.10526315789474" y="386.5263157894737"/>
      <point x="425.7368421052632" y="411.0"/>
      <point x="375.7894736842105" y="432.5263157894737" type="curve"/>
      <point x="287.4210526315789" y="471.2105263157895" type="line"/>
      <point x="237.05263157894734" y="493.2105263157895"/>
      <point x="177.6315789473684" y="519.6842105263158"/>
      <point x="118.21052631578948" y="550.9473684210526" type="curve"/>
      <point x="90.73684210526316" y="423.36842105263156" type="line"/>
      <point x="149.0" y="405.05263157894734"/>
      <point x="209.68421052631578" y="379.1578947368421"/>
      <point x="267.3684210526316" y="353.7368421052631" type="curve"/>
      <point x="360.0526315789474" y="313.15789473684214" type="line"/>
      <point x="357.5263157894737" y="301.89473684210526" type="line"/>
      <point x="248.73684210526318" y="262.36842105263156" type="line"/>
      <point x="179.26315789473685" y="236.94736842105263"/>
      <point x="107.84210526315789" y="212.1052631578947"/>
      <point x="41.89473684210526" y="193.78947368421052" type="curve"/>
    </contour>
  </outline>
</glyph>
<glyph name="A" format="2">
  <advance width="712.7368421052631"/>
  <unicode hex="0041"/>
  <anchor x="304.1052631578947" y="0.0" name="bottom"/>
  <anchor x="644.578947368421" y="0.0" name="ogonek"/>
  <anchor x="453.05263157894734" y="713.0" name="top"/>
  <outline>
    <contour>
      <point x="-39.94736842105264" y="0.0" type="curve"/>
      <point x="137.68421052631578" y="0.0" type="line"/>
      <point x="169.73684210526315" y="78.89473684210526"/>
      <point x="207.78947368421052" y="161.78947368421055"/>
      <point x="247.1052631578947" y="239.21052631578948" type="curve"/>
      <point x="425.5263157894737" y="589.1052631578948" type="line"/>
      <point x="436.7894736842105" y="589.1052631578948" type="line"/>
      <point x="470.5263157894737" y="237.6842105263158" type="line"/>
      <point x="477.63157894736844" y="162.26315789473685"/>
      <point x="483.57894736842104" y="78.0"/>
      <point x="481.3684210526316" y="0.0" type="curve"/>
      <point x="647.7368421052631" y="0.0" type="line"/>
      <point x="632.2105263157895" y="75.0"/>
      <point x="615.6842105263158" y="163.0"/>
      <point x="605.8947368421052" y="240.89473684210526" type="curve"/>
      <point x="575.4736842105264" y="486.4736842105263" type="line"/>
      <point x="564.6842105263157" y="574.0"/>
      <point x="560.0" y="639.842105263158"/>
      <point x="560.4736842105264" y="713.0" type="curve"/>
      <point x="348.6315789473685" y="713.0" type="line"/>
      <point x="316.6315789473685" y="637.9473684210526"/>
      <point x="282.89473684210526" y="571.4736842105264"/>
      <point x="236.57894736842107" y="486.42105263157896" type="curve"/>
      <point x="103.73684210526315" y="243.0" type="line"/>
      <point x="61.421052631578945" y="166.0"/>
      <point x="10.052631578947372" y="75.94736842105263"/>
    </contour>
    <contour>
      <point x="165.36842105263156" y="157.21052631578948" type="line"/>
      <point x="522.4736842105264" y="157.21052631578948" type="line"/>
      <point x="532.6842105263157" y="266.1578947368421" type="line"/>
      <point x="202.42105263157896" y="266.1578947368421" type="line"/>
    </contour>
  </outline>
</glyph>
<glyph name="B" format="2">
  <advance width="660.6601941747573"/>
  <unicode hex="0042"/>
  <outline>
    <contour>
      <point x="292.01941747572823" y="-5.504854368932039" type="curve"/>
      <point x="525.9320388349514" y="-5.504854368932039"/>
      <point x="589.3009708737866" y="67.62135922330096"/>
      <point x="613.5533980582525" y="180.2621359223301" type="curve" smooth="yes"/>
      <point x="635.4271844660194" y="285.378640776699"/>
      <point x="578.4368932038835" y="346.13592233009706"/>
      <point x="507.7961165048544" y="368.13592233009706" type="curve"/>
      <point x="510.0485436893204" y="379.7669902912621" type="line"/>
      <point x="588.4271844660194" y="398.00970873786406"/>
      <point x="646.9320388349515" y="432.747572815534"/>
      <point x="666.0582524271846" y="522.1262135922331" type="curve" smooth="yes"/>
      <point x="686.9320388349515" y="623.7378640776699"/>
      <point x="638.2038834951455" y="717.378640776699"/>
      <point x="436.252427184466" y="717.378640776699" type="curve"/>
      <point x="337.8640776699029" y="717.378640776699"/>
      <point x="243.58252427184468" y="713.0"/>
      <point x="165.6990291262136" y="713.0" type="curve"/>
      <point x="156.45631067961162" y="634.252427184466"/>
      <point x="145.96116504854368" y="565.504854368932"/>
      <point x="126.83495145631069" y="473.126213592233" type="curve"/>
      <point x="75.70873786407766" y="233.36893203883494" type="line"/>
      <point x="56.708737864077676" y="144.11650485436894"/>
      <point x="39.33009708737865" y="77.49514563106796"/>
      <point x="15.699029126213594" y="0.0" type="curve"/>
      <point x="75.35922330097088" y="0.0"/>
      <point x="176.3689320388349" y="-5.504854368932039"/>
    </contour>
    <contour>
      <point x="195.99029126213594" y="112.82524271844659" type="line"/>
      <point x="203.48543689320385" y="158.80582524271844"/>
      <point x="211.98058252427182" y="204.7864077669903"/>
      <point x="224.72815533980582" y="264.5242718446602" type="curve"/>
      <point x="262.46601941747576" y="442.97087378640776" type="line"/>
      <point x="275.3398058252427" y="504.0873786407767"/>
      <point x="286.0873786407767" y="549.8252427184466"/>
      <point x="300.58252427184465" y="600.6796116504854" type="curve"/>
      <point x="419.2330097087379" y="600.6796116504854" type="line" smooth="yes"/>
      <point x="493.4271844660194" y="600.6796116504854"/>
      <point x="526.7766990291261" y="565.9417475728156"/>
      <point x="514.4077669902912" y="506.3495145631067" type="curve" smooth="yes"/>
      <point x="502.7864077669903" y="450.62135922330094"/>
      <point x="455.32038834951464" y="412.77669902912623"/>
      <point x="371.6407766990292" y="412.77669902912623" type="curve" smooth="yes"/>
      <point x="221.19417475728153" y="412.77669902912623" type="line"/>
      <point x="198.93203883495144" y="305.7184466019417" type="line"/>
      <point x="355.63106796116506" y="305.7184466019417" type="line" smooth="yes"/>
      <point x="440.56310679611653" y="305.7184466019417"/>
      <point x="481.9029126213593" y="266.8640776699029"/>
      <point x="467.91262135922335" y="201.28155339805826" type="curve" smooth="yes"/>
      <point x="454.6699029126214" y="138.4368932038835"/>
      <point x="408.69902912621365" y="112.82524271844659"/>
      <point x="308.5436893203884" y="112.82524271844659" type="curve" smooth="yes"/>
    </contour>
  </outline>
</glyph>
<glyph name="C" format="2">
  <advance width="683.3684210526317"/>
  <unicode hex="0043"/>
  <anchor x="344.2631578947368" y="0.0" name="bottom"/>
  <anchor x="489.52631578947364" y="713.0" name="top"/>
  <outline>
    <contour>
      <point x="383.6315789473684" y="-12.68421052631579" type="curve" smooth="yes"/>
      <point x="453.7894736842106" y="-12.68421052631579"/>
      <point x="532.3684210526316" y="7.315789473684211"/>
      <point x="587.2631578947368" y="29.94736842105263" type="curve"/>
      <point x="608.2105263157895" y="170.3157894736842" type="line"/>
      <point x="543.5263157894738" y="130.21052631578945"/>
      <point x="463.7368421052632" y="107.1578947368421"/>
      <point x="406.8421052631579" y="107.1578947368421" type="curve"/>
      <point x="245.05263157894734" y="110.68421052631578"/>
      <point x="187.84210526315792" y="244.0"/>
      <point x="216.78947368421055" y="381.42105263157896" type="curve" smooth="yes"/>
      <point x="249.78947368421055" y="538.1578947368421"/>
      <point x="353.6842105263157" y="600.0526315789474"/>
      <point x="469.6842105263158" y="603.578947368421" type="curve"/>
      <point x="507.6315789473684" y="603.578947368421"/>
      <point x="586.842105263158" y="584.5263157894736"/>
      <point x="687.5263157894738" y="537.3157894736842" type="curve"/>
      <point x="727.4210526315791" y="674.3684210526316" type="line"/>
      <point x="666.8421052631578" y="696.2631578947368"/>
      <point x="571.8947368421052" y="727.1052631578947"/>
      <point x="483.7894736842105" y="727.1052631578947" type="curve" smooth="yes"/>
      <point x="258.10526315789474" y="727.1052631578947"/>
      <point x="115.57894736842105" y="614.1052631578948"/>
      <point x="71.10526315789474" y="401.10526315789474" type="curve" smooth="yes"/>
      <point x="25.0" y="182.05263157894737"/>
      <point x="136.52631578947367" y="-12.68421052631579"/>
    </contour>
  </outline>
</glyph>
<glyph name="D" format="2">
  <advance width="736.8947368421053"/>
  <unicode hex="0044"/>
  <anchor x="300.10526315789474" y="0.0" name="bottom"/>
  <anchor x="391.881" y="357.0" name="center"/>
  <anchor x="450.10526315789474" y="713.0" name="top"/>
  <outline>
    <contour>
      <point x="15.473684210526324" y="0.0" type="curve"/>
      <point x="101.99999999999999" y="0.0"/>
      <point x="182.57894736842107" y="-5.2105263157894735"/>
      <point x="287.94736842105266" y="-5.2105263157894735" type="curve"/>
      <point x="563.6842105263157" y="-5.2105263157894735"/>
      <point x="672.3157894736843" y="129.5263157894737"/>
      <point x="714.2631578947369" y="331.94736842105266" type="curve" smooth="yes"/>
      <point x="756.7894736842105" y="538.7368421052632"/>
      <point x="651.6842105263158" y="717.1578947368421"/>
      <point x="423.15789473684214" y="717.1578947368421" type="curve"/>
      <point x="332.7368421052632" y="717.1578947368421"/>
      <point x="244.3684210526316" y="713.0"/>
      <point x="165.47368421052633" y="713.0" type="curve"/>
      <point x="156.26315789473685" y="634.1052631578947"/>
      <point x="145.94736842105263" y="565.6842105263158"/>
      <point x="126.42105263157896" y="473.52631578947364" type="curve"/>
      <point x="75.36842105263159" y="233.26315789473685" type="line"/>
      <point x="56.842105263157904" y="144.1578947368421"/>
      <point x="39.21052631578948" y="77.3157894736842"/>
    </contour>
    <contour>
      <point x="199.00000000000003" y="116.26315789473684" type="line"/>
      <point x="206.26315789473685" y="162.68421052631578"/>
      <point x="215.05263157894737" y="209.36842105263156"/>
      <point x="227.36842105263156" y="267.99999999999994" type="curve"/>
      <point x="264.2105263157895" y="442.3684210526316" type="line"/>
      <point x="277.05263157894734" y="503.10526315789474"/>
      <point x="288.4210526315789" y="548.7368421052631"/>
      <point x="301.2631578947368" y="596.7368421052631" type="curve"/>
      <point x="388.8421052631579" y="596.7368421052631" type="line"/>
      <point x="545.5263157894738" y="592.1578947368421"/>
      <point x="595.4736842105264" y="481.0"/>
      <point x="566.4736842105264" y="345.7894736842105" type="curve" smooth="yes"/>
      <point x="537.5263157894738" y="208.4736842105263"/>
      <point x="477.89473684210526" y="121.36842105263158"/>
      <point x="300.5263157894737" y="116.26315789473684" type="curve"/>
    </contour>
  </outline>
</glyph>
<glyph name="E" format="2">
  <advance width="598.0097087378641"/>
  <unicode hex="0045"/>
  <anchor x="259.36893203883494" y="0.0" name="bottom"/>
  <anchor x="492.01941747572823" y="0.0" name="ogonek"/>
  <anchor x="409.36893203883494" y="713.0" name="top"/>
  <anchor x="135.00000000000003" y="713.0" name="topleft"/>
  <outline>
    <contour>
      <point x="15.699029126213597" y="0.0" type="curve"/>
      <point x="179.23300970873785" y="0.0" type="line"/>
      <point x="184.73786407766988" y="22.524271844660195" type="line"/>
      <point x="191.98058252427182" y="100.01941747572816"/>
      <point x="203.47572815533977" y="166.64077669902912"/>
      <point x="222.4757281553398" y="255.89320388349515" type="curve"/>
      <point x="263.4660194174757" y="452.3495145631068" type="line"/>
      <point x="282.5922330097087" y="543.8543689320388"/>
      <point x="300.97087378640776" y="611.7281553398059"/>
      <point x="324.72815533980577" y="690.4757281553398" type="curve"/>
      <point x="329.23300970873777" y="713.0" type="line"/>
      <point x="165.6990291262136" y="713.0" type="line"/>
      <point x="156.45631067961162" y="634.252427184466"/>
      <point x="145.96116504854368" y="565.504854368932"/>
      <point x="126.83495145631068" y="473.126213592233" type="curve"/>
      <point x="75.70873786407766" y="233.36893203883494" type="line"/>
      <point x="56.70873786407767" y="144.11650485436894"/>
      <point x="39.33009708737864" y="77.49514563106796"/>
    </contour>
    <contour>
      <point x="151.70873786407768" y="0.0" type="line"/>
      <point x="494.52427184466023" y="0.0" type="line"/>
      <point x="522.9223300970874" y="131.4854368932039" type="line"/>
      <point x="452.9320388349514" y="121.72815533980582"/>
      <point x="381.19417475728153" y="119.60194174757282"/>
      <point x="299.70873786407765" y="119.60194174757282" type="curve"/>
      <point x="176.98058252427185" y="119.60194174757282" type="line"/>
    </contour>
    <contour>
      <point x="198.67961165048544" y="303.3300970873786" type="line"/>
      <point x="331.16504854368935" y="303.3300970873786" type="line"/>
      <point x="417.15533980582524" y="303.3300970873786"/>
      <point x="475.5242718446602" y="302.2038834951456"/>
      <point x="537.6407766990292" y="297.57281553398053" type="curve"/>
      <point x="564.6601941747573" y="424.4174757281553" type="line"/>
      <point x="503.2912621359224" y="417.9126213592233"/>
      <point x="443.9223300970874" y="416.7864077669903"/>
      <point x="355.8058252427185" y="416.7864077669903" type="curve"/>
      <point x="222.4466019417476" y="416.7864077669903" type="line"/>
    </contour>
    <contour>
      <point x="267.55339805825247" y="593.3980582524272" type="line"/>
      <point x="388.5339805825243" y="593.3980582524272" type="line"/>
      <point x="485.8932038834952" y="593.3980582524272"/>
      <point x="552.6310679611651" y="590.0194174757281"/>
      <point x="614.4951456310681" y="581.5145631067961" type="curve"/>
      <point x="641.8932038834952" y="713.0" type="line"/>
      <point x="292.69902912621365" y="713.0" type="line"/>
    </contour>
  </outline>
</glyph>
<glyph name="F" format="2">
  <advance width="578.8947368421053"/>
  <unicode hex="0046"/>
  <outline>
    <contour>
      <point x="15.473684210526324" y="0.0" type="curve"/>
      <point x="179.3157894736842" y="0.0" type="line"/>
      <point x="187.52631578947367" y="77.3157894736842"/>
      <point x="197.8421052631579" y="143.21052631578948"/>
      <point x="216.8421052631579" y="233.26315789473685" type="curve"/>
      <point x="263.15789473684214" y="452.0" type="line"/>
      <point x="282.2105263157895" y="543.6842105263158"/>
      <point x="300.84210526315786" y="611.6315789473684"/>
      <point x="325.1052631578947" y="690.5263157894736" type="curve"/>
      <point x="329.3157894736842" y="713.0" type="line"/>
      <point x="165.47368421052633" y="713.0" type="line"/>
      <point x="156.26315789473685" y="634.1052631578947"/>
      <point x="145.94736842105263" y="565.6842105263158"/>
      <point x="126.42105263157896" y="473.52631578947364" type="curve"/>
      <point x="75.36842105263159" y="233.26315789473685" type="line"/>
      <point x="56.842105263157904" y="144.1578947368421"/>
      <point x="39.21052631578948" y="77.3157894736842"/>
    </contour>
    <contour>
      <point x="193.8421052631579" y="293.3157894736842" type="line"/>
      <point x="321.5263157894737" y="293.3157894736842" type="line"/>
      <point x="407.63157894736844" y="293.3157894736842"/>
      <point x="465.3684210526316" y="292.2631578947369"/>
      <point x="527.5263157894738" y="287.0526315789474" type="curve"/>
      <point x="555.0526315789474" y="417.3157894736842" type="line"/>
      <point x="494.2631578947369" y="410.6315789473684"/>
      <point x="435.0" y="409.57894736842104"/>
      <point x="346.36842105263156" y="409.57894736842104" type="curve"/>
      <point x="218.21052631578945" y="409.57894736842104" type="line"/>
    </contour>
    <contour>
      <point x="264.8947368421053" y="592.0" type="line"/>
      <point x="380.8947368421053" y="592.0" type="line"/>
      <point x="478.2631578947369" y="592.0"/>
      <point x="544.7894736842105" y="588.3684210526316"/>
      <point x="606.842105263158" y="580.6315789473684" type="curve"/>
      <point x="634.3684210526317" y="713.0" type="line"/>
      <point x="290.3157894736842" y="713.0" type="line"/>
    </contour>
  </outline>
</glyph>
<glyph name="G" format="2">
  <advance width="729.1052631578948"/>
  <unicode hex="0047"/>
  <anchor x="344.2631578947368" y="0.0" name="bottom"/>
  <anchor x="494.2631578947368" y="713.0" name="top"/>
  <outline>
    <contour>
      <point x="401.15789473684214" y="-12.157894736842106" type="curve" smooth="yes"/>
      <point x="471.4736842105263" y="-12.157894736842106"/>
      <point x="572.578947368421" y="8.789473684210526"/>
      <point x="628.6315789473684" y="23.894736842105264" type="curve"/>
      <point x="630.3157894736843" y="157.10526315789474" type="line"/>
      <point x="554.6842105263158" y="120.52631578947368"/>
      <point x="489.6315789473684" y="104.52631578947368"/>
      <point x="410.0526315789474" y="104.52631578947368" type="curve"/>
      <point x="242.31578947368422" y="108.05263157894737"/>
      <point x="185.73684210526315" y="240.8421052631579"/>
      <point x="215.73684210526315" y="382.4736842105263" type="curve" smooth="yes"/>
      <point x="249.73684210526315" y="542.6842105263157"/>
      <point x="361.1578947368421" y="600.578947368421"/>
      <point x="474.0" y="603.578947368421" type="curve"/>
      <point x="513.9473684210526" y="603.578947368421"/>
      <point x="598.1578947368421" y="583.1052631578947"/>
      <point x="705.3684210526316" y="531.6315789473683" type="curve"/>
      <point x="745.2631578947369" y="668.157894736842" type="line"/>
      <point x="678.0526315789474" y="692.4210526315788"/>
      <point x="573.9473684210526" y="727.1052631578947"/>
      <point x="476.6842105263158" y="727.1052631578947" type="curve" smooth="yes"/>
      <point x="259.05263157894734" y="727.1052631578947"/>
      <point x="116.63157894736842" y="617.3684210526316"/>
      <point x="71.10526315789474" y="401.10526315789474" type="curve" smooth="yes"/>
      <point x="25.578947368421055" y="184.8947368421053"/>
      <point x="127.73684210526315" y="-12.157894736842106"/>
    </contour>
    <contour>
      <point x="480.52631578947364" y="23.894736842105264" type="curve"/>
      <point x="628.6315789473684" y="23.894736842105264" type="line"/>
      <point x="638.4736842105264" y="96.21052631578948"/>
      <point x="648.0" y="148.42105263157896"/>
      <point x="659.578947368421" y="203.68421052631578" type="curve"/>
      <point x="673.1052631578948" y="268.42105263157896"/>
      <point x="686.7894736842105" y="314.10526315789474"/>
      <point x="705.1052631578947" y="365.8421052631579" type="curve"/>
      <point x="546.1052631578947" y="365.8421052631579" type="line"/>
      <point x="543.3157894736842" y="314.10526315789474"/>
      <point x="537.421052631579" y="268.42105263157896"/>
      <point x="523.8947368421052" y="203.68421052631578" type="curve"/>
      <point x="512.3157894736842" y="148.42105263157896"/>
      <point x="499.6842105263158" y="96.21052631578948"/>
    </contour>
  </outline>
</glyph>
<glyph name="H" format="2">
  <advance width="755.7894736842105"/>
  <unicode hex="0048"/>
  <anchor x="325.63157894736844" y="0.0" name="bottom"/>
  <anchor x="400.63157894736844" y="357.0" name="center"/>
  <anchor x="475.63157894736844" y="713.0" name="top"/>
  <anchor x="137.1578947368421" y="713.0" name="topleft"/>
  <outline>
    <contour>
      <point x="468.26315789473693" y="0.0" type="curve"/>
      <point x="635.2631578947369" y="0.0" type="line"/>
      <point x="643.4736842105262" y="77.3157894736842"/>
      <point x="653.7894736842105" y="143.21052631578948"/>
      <point x="672.7894736842105" y="233.26315789473685" type="curve"/>
      <point x="723.8421052631579" y="473.52631578947364" type="line"/>
      <point x="743.3684210526316" y="565.6842105263158"/>
      <point x="761.0" y="634.1052631578947"/>
      <point x="785.2631578947369" y="713.0" type="curve"/>
      <point x="618.263157894737" y="713.0" type="line"/>
      <point x="609.0526315789474" y="634.1052631578947"/>
      <point x="598.7368421052632" y="565.6842105263158"/>
      <point x="579.2105263157896" y="473.52631578947364" type="curve"/>
      <point x="528.1578947368422" y="233.26315789473685" type="line"/>
      <point x="509.6315789473685" y="144.1578947368421"/>
      <point x="492.0000000000001" y="77.3157894736842"/>
    </contour>
    <contour>
      <point x="15.473684210526324" y="0.0" type="curve"/>
      <point x="182.47368421052633" y="0.0" type="line"/>
      <point x="190.68421052631578" y="77.3157894736842"/>
      <point x="200.99999999999997" y="143.21052631578948"/>
      <point x="220.0" y="233.26315789473685" type="curve"/>
      <point x="271.05263157894734" y="473.52631578947364" type="line"/>
      <point x="290.57894736842104" y="565.6842105263158"/>
      <point x="308.2105263157894" y="634.1052631578947"/>
      <point x="332.47368421052624" y="713.0" type="curve"/>
      <point x="165.47368421052633" y="713.0" type="line"/>
      <point x="156.26315789473685" y="634.1052631578947"/>
      <point x="145.94736842105263" y="565.6842105263158"/>
      <point x="126.42105263157896" y="473.52631578947364" type="curve"/>
      <point x="75.36842105263159" y="233.26315789473685" type="line"/>
      <point x="56.842105263157904" y="144.1578947368421"/>
      <point x="39.21052631578948" y="77.3157894736842"/>
    </contour>
    <contour>
      <point x="192.00000000000003" y="299.10526315789474" type="line"/>
      <point x="586.2105263157895" y="299.10526315789474" type="line"/>
      <point x="612.1578947368421" y="420.10526315789474" type="line"/>
      <point x="217.94736842105266" y="420.10526315789474" type="line"/>
    </contour>
  </outline>
</glyph>
<glyph name="I" format="2">
  <advance width="310.89473684210526"/>
  <unicode hex="0049"/>
  <anchor x="100.31578947368422" y="0.0" name="bottom"/>
  <anchor x="185.10526315789474" y="0.0" name="ogonek"/>
  <anchor x="250.31578947368422" y="713.0" name="top"/>
  <anchor x="131.31578947368422" y="713.0" name="topleft"/>
  <outline>
    <contour>
      <point x="18.105263157894733" y="0.0" type="curve"/>
      <point x="187.73684210526315" y="0.0" type="line"/>
      <point x="195.94736842105263" y="77.3157894736842"/>
      <point x="206.26315789473685" y="143.21052631578948"/>
      <point x="225.26315789473685" y="233.26315789473685" type="curve"/>
      <point x="276.3157894736842" y="473.52631578947364" type="line"/>
      <point x="295.8421052631579" y="565.6842105263158"/>
      <point x="313.4736842105263" y="634.1052631578947"/>
      <point x="337.7368421052631" y="713.0" type="curve"/>
      <point x="168.10526315789474" y="713.0" type="line"/>
      <point x="158.89473684210526" y="634.1052631578947"/>
      <point x="148.57894736842104" y="565.6842105263158"/>
      <point x="129.05263157894737" y="473.52631578947364" type="curve"/>
      <point x="78.0" y="233.26315789473685" type="line"/>
      <point x="59.473684210526315" y="144.1578947368421"/>
      <point x="41.84210526315789" y="77.3157894736842"/>
    </contour>
  </outline>
</glyph>
<glyph name="J" format="2">
  <advance width="316.2631578947369"/>
  <unicode hex="004A"/>
  <anchor x="107.31578947368422" y="0.0" name="bottom"/>
  <anchor x="257.3157894736842" y="713.0" name="top"/>
  <outline>
    <contour>
      <point x="-83.42105263157895" y="-155.78947368421052" type="curve"/>
      <point x="68.47368421052632" y="-155.78947368421052" type="line"/>
      <point x="115.52631578947368" y="-109.73684210526316"/>
      <point x="181.57894736842107" y="-38.21052631578947"/>
      <point x="204.1578947368421" y="68.10526315789474" type="curve" smooth="yes"/>
      <point x="220.78947368421052" y="146.78947368421052"/>
      <point x="230.10526315789474" y="230.99999999999997"/>
      <point x="249.21052631578945" y="321.5263157894737" type="curve"/>
      <point x="281.6842105263158" y="473.52631578947364" type="line"/>
      <point x="301.2105263157895" y="565.6842105263158"/>
      <point x="318.84210526315786" y="634.1052631578947"/>
      <point x="343.10526315789474" y="713.0" type="curve"/>
      <point x="176.10526315789474" y="713.0" type="line"/>
      <point x="166.89473684210526" y="634.1052631578947"/>
      <point x="156.57894736842104" y="565.6842105263158"/>
      <point x="137.05263157894737" y="473.52631578947364" type="curve"/>
      <point x="101.26315789473685" y="305.89473684210526" type="line"/>
      <point x="52.26315789473684" y="75.84210526315789" type="line"/>
      <point x="33.78947368421053" y="-11.05263157894737"/>
      <point x="-17.105263157894733" y="-87.42105263157895"/>
    </contour>
  </outline>
</glyph>
<glyph name="K" format="2">
  <advance width="693.7368421052631"/>
  <unicode hex="004B"/>
  <anchor x="302.63157894736844" y="0.0" name="bottom"/>
  <anchor x="452.63157894736844" y="713.0" name="top"/>
  <outline>
    <contour>
      <point x="442.4736842105263" y="0.0" type="curve"/>
      <point x="630.8421052631579" y="0.0" type="line"/>
      <point x="583.3157894736842" y="61.63157894736842"/>
      <point x="517.8421052631579" y="164.10526315789474"/>
      <point x="471.2105263157895" y="240.42105263157893" type="curve"/>
      <point x="369.0" y="406.6315789473684" type="line"/>
      <point x="368.89473684210526" y="341.2631578947368" type="line"/>
      <point x="517.421052631579" y="485.10526315789474" type="line"/>
      <point x="596.6315789473684" y="560.8421052631579"/>
      <point x="675.3157894736842" y="636.0"/>
      <point x="765.1052631578948" y="713.0" type="curve"/>
      <point x="564.0526315789474" y="713.0" type="line"/>
      <point x="505.2105263157895" y="644.0526315789474"/>
      <point x="458.421052631579" y="594.3157894736842"/>
      <point x="404.2631578947369" y="540.7368421052631" type="curve"/>
      <point x="288.68421052631584" y="427.2105263157895" type="line"/>
      <point x="248.26315789473685" y="427.2105263157895" type="line"/>
      <point x="224.42105263157893" y="313.0526315789474" type="line"/>
      <point x="266.4736842105263" y="313.0526315789474" type="line"/>
      <point x="348.5263157894737" y="174.94736842105263" type="line"/>
      <point x="380.36842105263156" y="121.78947368421053"/>
      <point x="411.6842105263158" y="67.15789473684211"/>
    </contour>
    <contour>
      <point x="15.473684210526324" y="0.0" type="curve"/>
      <point x="181.94736842105263" y="0.0" type="line"/>
      <point x="190.1578947368421" y="77.3157894736842"/>
      <point x="200.47368421052633" y="143.21052631578948"/>
      <point x="219.47368421052633" y="233.26315789473685" type="curve"/>
      <point x="270.5263157894737" y="473.52631578947364" type="line"/>
      <point x="290.0526315789474" y="565.6842105263158"/>
      <point x="307.6842105263158" y="634.1052631578947"/>
      <point x="331.9473684210526" y="713.0" type="curve"/>
      <point x="165.47368421052633" y="713.0" type="line"/>
      <point x="156.26315789473685" y="634.1052631578947"/>
      <point x="145.94736842105263" y="565.6842105263158"/>
      <point x="126.42105263157896" y="473.52631578947364" type="curve"/>
      <point x="75.36842105263159" y="233.26315789473685" type="line"/>
      <point x="56.842105263157904" y="144.1578947368421"/>
      <point x="39.21052631578948" y="77.3157894736842"/>
    </contour>
  </outline>
</glyph>
<glyph name="L" format="2">
  <advance width="572.8421052631578"/>
  <unicode hex="004C"/>
  <anchor x="255.421052631579" y="0.0" name="bottom"/>
  <anchor x="457.63157894736844" y="358.57894736842104" name="center"/>
  <anchor x="318.9473684210526" y="713.0" name="top"/>
  <anchor x="351.0526315789474" y="498.2105263157895" name="topright"/>
  <outline>
    <contour>
      <point x="15.473684210526324" y="0.0" type="curve"/>
      <point x="182.4736842105263" y="0.0" type="line"/>
      <point x="187.68421052631578" y="22.94736842105263" type="line"/>
      <point x="195.36842105263156" y="100.26315789473684"/>
      <point x="206.68421052631575" y="167.10526315789474"/>
      <point x="225.21052631578945" y="256.2105263157895" type="curve"/>
      <point x="271.05263157894734" y="473.52631578947364" type="line"/>
      <point x="290.57894736842104" y="565.6842105263158"/>
      <point x="308.2105263157894" y="634.1052631578947"/>
      <point x="332.47368421052624" y="713.0" type="curve"/>
      <point x="165.47368421052633" y="713.0" type="line"/>
      <point x="156.26315789473685" y="634.1052631578947"/>
      <point x="145.94736842105263" y="565.6842105263158"/>
      <point x="126.42105263157896" y="473.52631578947364" type="curve"/>
      <point x="75.36842105263159" y="233.26315789473685" type="line"/>
      <point x="56.842105263157904" y="144.1578947368421"/>
      <point x="39.21052631578948" y="77.3157894736842"/>
    </contour>
    <contour>
      <point x="151.36842105263153" y="0.0" type="line"/>
      <point x="489.68421052631584" y="0.0" type="line"/>
      <point x="519.3157894736842" y="141.3157894736842" type="line"/>
      <point x="444.78947368421046" y="130.94736842105263"/>
      <point x="382.7368421052632" y="126.26315789473684"/>
      <point x="276.5789473684211" y="126.26315789473684" type="curve"/>
      <point x="178.36842105263153" y="126.26315789473684" type="line"/>
    </contour>
  </outline>
</glyph>
<glyph name="M" format="2">
  <advance width="961.0526315789473"/>
  <unicode hex="004D"/>
  <anchor x="427.7368421052631" y="0.0" name="bottom"/>
  <anchor x="577.7368421052632" y="713.0" name="top"/>
  <outline>
    <contour>
      <point x="-8.631578947368421" y="0.0" type="curve"/>
      <point x="151.42105263157896" y="0.0" type="line"/>
      <point x="176.84210526315792" y="105.57894736842105"/>
      <point x="204.47368421052633" y="204.1578947368421"/>
      <point x="232.4736842105263" y="288.10526315789474" type="curve"/>
      <point x="292.4210526315789" y="469.2631578947369" type="line"/>
      <point x="302.2631578947368" y="469.2631578947369" type="line"/>
      <point x="337.15789473684214" y="273.4736842105263" type="line"/>
      <point x="352.6842105263157" y="182.6842105263158"/>
      <point x="364.3684210526316" y="79.78947368421052"/>
      <point x="371.6842105263157" y="0.0" type="curve"/>
      <point x="490.0526315789474" y="0.0" type="line"/>
      <point x="532.2105263157895" y="82.57894736842105"/>
      <point x="584.5789473684212" y="180.6842105263158"/>
      <point x="637.6842105263157" y="274.42105263157896" type="curve"/>
      <point x="748.2631578947369" y="469.2631578947369" type="line"/>
      <point x="758.1052631578948" y="469.2631578947369" type="line"/>
      <point x="741.8947368421052" y="288.10526315789474" type="line"/>
      <point x="734.5263157894738" y="204.1578947368421"/>
      <point x="720.5263157894736" y="106.47368421052632"/>
      <point x="700.8421052631579" y="0.0" type="curve"/>
      <point x="864.6315789473684" y="0.0" type="line"/>
      <point x="864.8421052631579" y="76.78947368421052"/>
      <point x="866.6315789473684" y="146.73684210526315"/>
      <point x="874.1052631578947" y="233.26315789473685" type="curve"/>
      <point x="894.5263157894738" y="472.4736842105263" type="line"/>
      <point x="902.0" y="559.421052631579"/>
      <point x="911.6315789473684" y="633.1052631578947"/>
      <point x="924.3157894736843" y="713.0" type="curve"/>
      <point x="754.8947368421053" y="713.0" type="line"/>
      <point x="710.7368421052632" y="622.8421052631579"/>
      <point x="666.421052631579" y="544.3684210526316"/>
      <point x="619.0" y="463.2631578947369" type="curve"/>
      <point x="479.2105263157895" y="224.47368421052633" type="line"/>
      <point x="469.4210526315789" y="224.47368421052633" type="line"/>
      <point x="427.10526315789474" y="463.2631578947369" type="line"/>
      <point x="413.0" y="544.3684210526316"/>
      <point x="399.4210526315789" y="624.421052631579"/>
      <point x="394.1578947368421" y="713.0" type="curve"/>
      <point x="229.9473684210526" y="713.0" type="line"/>
      <point x="210.68421052631578" y="632.1052631578947"/>
      <point x="188.73684210526315" y="558.4736842105264"/>
      <point x="159.73684210526315" y="472.4736842105263" type="curve"/>
      <point x="80.15789473684211" y="233.26315789473685" type="line"/>
      <point x="51.15789473684211" y="146.78947368421052"/>
      <point x="23.47368421052632" y="75.21052631578948"/>
    </contour>
  </outline>
</glyph>
<glyph name="N" format="2">
  <advance width="758.3684210526316"/>
  <unicode hex="004E"/>
  <anchor x="326.4736842105263" y="0.0" name="bottom"/>
  <anchor x="476.4736842105263" y="713.0" name="top"/>
  <outline>
    <contour>
      <point x="15.473684210526324" y="0.0" type="curve"/>
      <point x="173.52631578947367" y="0.0" type="line"/>
      <point x="181.73684210526315" y="77.3157894736842"/>
      <point x="192.05263157894737" y="143.21052631578948"/>
      <point x="211.05263157894737" y="233.26315789473685" type="curve"/>
      <point x="263.7368421052632" y="483.63157894736844" type="line"/>
      <point x="274.0526315789474" y="483.63157894736844" type="line"/>
      <point x="362.4736842105263" y="294.7368421052632" type="line"/>
      <point x="414.6842105263157" y="183.47368421052633"/>
      <point x="455.1052631578947" y="91.21052631578948"/>
      <point x="486.84210526315786" y="0.0" type="curve"/>
      <point x="636.4210526315788" y="0.0" type="line"/>
      <point x="644.6315789473683" y="77.3157894736842"/>
      <point x="654.9473684210526" y="143.21052631578948"/>
      <point x="673.9473684210526" y="233.26315789473685" type="curve"/>
      <point x="725.0" y="473.52631578947364" type="line"/>
      <point x="744.5263157894736" y="565.6842105263158"/>
      <point x="762.1578947368421" y="634.1052631578947"/>
      <point x="786.421052631579" y="713.0" type="curve"/>
      <point x="628.3684210526317" y="713.0" type="line"/>
      <point x="619.1578947368421" y="634.1052631578947"/>
      <point x="608.8421052631579" y="565.6842105263158"/>
      <point x="589.3157894736843" y="473.52631578947364" type="curve"/>
      <point x="537.6842105263158" y="231.26315789473682" type="line"/>
      <point x="526.8421052631579" y="231.26315789473682" type="line"/>
      <point x="440.4736842105263" y="418.6842105263158" type="line"/>
      <point x="398.52631578947376" y="509.3684210526316"/>
      <point x="358.7894736842105" y="605.5789473684209"/>
      <point x="319.7368421052632" y="713.0" type="curve"/>
      <point x="165.47368421052633" y="713.0" type="line"/>
      <point x="156.26315789473685" y="634.1052631578947"/>
      <point x="145.94736842105263" y="565.6842105263158"/>
      <point x="126.42105263157896" y="473.52631578947364" type="curve"/>
      <point x="75.36842105263159" y="233.26315789473685" type="line"/>
      <point x="56.842105263157904" y="144.1578947368421"/>
      <point x="39.21052631578948" y="77.3157894736842"/>
    </contour>
  </outline>
</glyph>
<glyph name="P" format="2">
  <advance width="645.6699029126214"/>
  <unicode hex="0050"/>
  <outline>
    <contour>
      <point x="371.17475728155347" y="257.18446601941747" type="curve"/>
      <point x="558.9029126213592" y="257.18446601941747"/>
      <point x="631.1747572815534" y="332.68932038834953"/>
      <point x="659.6796116504854" y="471.70873786407765" type="curve" smooth="yes"/>
      <point x="692.8155339805826" y="631.6310679611652"/>
      <point x="612.9223300970875" y="717.378640776699"/>
      <point x="442.7766990291263" y="717.378640776699" type="curve"/>
      <point x="322.62135922330106" y="717.378640776699"/>
      <point x="233.2135922330097" y="713.0"/>
      <point x="165.6990291262136" y="713.0" type="curve"/>
      <point x="282.5728155339806" y="597.9029126213592" type="line"/>
      <point x="414.49514563106806" y="597.9029126213592" type="line" smooth="yes"/>
      <point x="472.8349514563107" y="597.9029126213592"/>
      <point x="533.5242718446602" y="570.5242718446602"/>
      <point x="513.9126213592232" y="478.08737864077676" type="curve" smooth="yes"/>
      <point x="496.92233009708747" y="398.6310679611651"/>
      <point x="457.0776699029127" y="372.7669902912621"/>
      <point x="361.15533980582524" y="372.7669902912621" type="curve" smooth="yes"/>
      <point x="229.8349514563107" y="372.7669902912621" type="line"/>
      <point x="206.06796116504856" y="259.31067961165047" type="line"/>
      <point x="245.94174757281556" y="259.31067961165047"/>
      <point x="321.3009708737865" y="257.18446601941747"/>
    </contour>
    <contour>
      <point x="15.699029126213597" y="0.0" type="curve"/>
      <point x="181.10679611650485" y="0.0" type="line"/>
      <point x="189.34951456310682" y="77.49514563106796"/>
      <point x="198.97087378640776" y="143.2427184466019"/>
      <point x="217.9708737864078" y="233.36893203883494" type="curve"/>
      <point x="264.46601941747576" y="452.3495145631068" type="line"/>
      <point x="283.5922330097088" y="543.8543689320388"/>
      <point x="301.9708737864078" y="611.7281553398059"/>
      <point x="326.6019417475729" y="690.4757281553398" type="curve"/>
      <point x="165.6990291262136" y="713.0" type="line"/>
      <point x="156.45631067961162" y="634.252427184466"/>
      <point x="145.96116504854368" y="565.504854368932"/>
      <point x="126.83495145631068" y="473.126213592233" type="curve"/>
      <point x="75.70873786407766" y="233.36893203883494" type="line"/>
      <point x="56.70873786407767" y="144.11650485436894"/>
      <point x="39.33009708737863" y="77.49514563106796"/>
    </contour>
  </outline>
</glyph>
<glyph name="S" format="2">
  <advance width="596.7766990291262"/>
  <unicode hex="0053"/>
  <anchor x="248.00970873786406" y="0.0" name="bottom"/>
  <anchor x="398.00970873786406" y="713.0" name="top"/>
  <outline>
    <contour>
      <point x="273.8834951456312" y="-12.504854368932039" type="curve" smooth="yes"/>
      <point x="442.91262135922324" y="-12.504854368932039"/>
      <point x="522.5436893203884" y="46.99029126213592"/>
      <point x="549.1747572815534" y="174.01941747572812" type="curve" smooth="yes"/>
      <point x="570.5533980582525" y="275.78640776699024"/>
      <point x="529.3009708737865" y="345.02912621359224"/>
      <point x="376.0582524271845" y="408.3980582524272" type="curve" smooth="yes"/>
      <point x="276.2330097087378" y="450.126213592233"/>
      <point x="243.62135922330097" y="482.9902912621359"/>
      <point x="255.61165048543688" y="539.4466019417475" type="curve" smooth="yes"/>
      <point x="266.72815533980577" y="592.2815533980583"/>
      <point x="322.5533980582524" y="605.3980582524272"/>
      <point x="378.51456310679606" y="607.5242718446602" type="curve"/>
      <point x="413.3883495145631" y="607.5242718446602"/>
      <point x="489.8932038834951" y="586.2718446601941"/>
      <point x="574.2718446601941" y="542.5242718446602" type="curve"/>
      <point x="612.5533980582524" y="674.3883495145633" type="line"/>
      <point x="555.3009708737865" y="692.504854368932"/>
      <point x="448.76699029126206" y="727.252427184466"/>
      <point x="365.873786407767" y="727.252427184466" type="curve" smooth="yes"/>
      <point x="210.84466019417476" y="727.252427184466"/>
      <point x="130.0970873786408" y="666.495145631068"/>
      <point x="106.59223300970875" y="552.9708737864079" type="curve" smooth="yes"/>
      <point x="81.9611650485437" y="435.5631067961165"/>
      <point x="141.97087378640776" y="366.69902912621365"/>
      <point x="269.5728155339806" y="313.9611650485437" type="curve" smooth="yes"/>
      <point x="361.7864077669903" y="275.7281553398059"/>
      <point x="412.1456310679611" y="243.1165048543689"/>
      <point x="400.02912621359224" y="184.53398058252426" type="curve" smooth="yes"/>
      <point x="387.1650485436893" y="120.46601941747574"/>
      <point x="332.71844660194176" y="107.97087378640778"/>
      <point x="273.37864077669906" y="105.84466019417476" type="curve"/>
      <point x="210.88349514563112" y="105.84466019417476"/>
      <point x="124.36893203883493" y="138.09708737864077"/>
      <point x="50.0" y="180.59223300970876" type="curve"/>
      <point x="13.09708737864078" y="52.23300970873786" type="line"/>
      <point x="69.2233009708738" y="28.86407766990291"/>
      <point x="160.10679611650482" y="-12.504854368932039"/>
    </contour>
  </outline>
</glyph>
<glyph name="T" format="2">
  <advance width="644.3684210526316"/>
  <unicode hex="0054"/>
  <anchor x="271.1578947368421" y="0.0" name="bottom"/>
  <anchor x="339.3157894736842" y="326.4736842105263" name="center"/>
  <anchor x="421.1578947368421" y="713.0" name="top"/>
  <outline>
    <contour>
      <point x="187.3684210526316" y="0.0" type="curve"/>
      <point x="353.8421052631579" y="0.0" type="line"/>
      <point x="362.05263157894734" y="77.3157894736842"/>
      <point x="372.36842105263156" y="143.21052631578948"/>
      <point x="391.36842105263156" y="233.26315789473685" type="curve"/>
      <point x="438.2105263157895" y="452.0" type="line"/>
      <point x="457.2631578947368" y="543.6842105263158"/>
      <point x="475.89473684210526" y="611.6315789473684"/>
      <point x="500.1578947368421" y="690.5263157894736" type="curve"/>
      <point x="504.3684210526316" y="713.0" type="line"/>
      <point x="337.89473684210526" y="713.0" type="line"/>
      <point x="333.2105263157894" y="690.5263157894736" type="line"/>
      <point x="324.99999999999994" y="611.6315789473684"/>
      <point x="313.6315789473684" y="543.2105263157895"/>
      <point x="294.10526315789474" y="452.0" type="curve"/>
      <point x="247.26315789473685" y="233.26315789473685" type="line"/>
      <point x="228.73684210526315" y="144.1578947368421"/>
      <point x="211.10526315789474" y="77.3157894736842"/>
    </contour>
    <contour>
      <point x="95.94736842105263" y="571.6842105263157" type="line"/>
      <point x="151.26315789473685" y="581.578947368421"/>
      <point x="208.5263157894737" y="586.7368421052631"/>
      <point x="285.63157894736844" y="586.7368421052631" type="curve"/>
      <point x="346.3157894736842" y="586.7368421052631" type="line"/>
      <point x="372.7894736842105" y="713.0" type="line"/>
      <point x="125.57894736842105" y="713.0" type="line"/>
    </contour>
    <contour>
      <point x="442.05263157894734" y="586.7368421052631" type="line"/>
      <point x="502.7368421052631" y="586.7368421052631" type="line"/>
      <point x="579.8421052631579" y="586.7368421052631"/>
      <point x="635.4736842105265" y="582.0526315789473"/>
      <point x="686.1052631578948" y="571.6842105263157" type="curve"/>
      <point x="715.7368421052632" y="713.0" type="line"/>
      <point x="468.52631578947364" y="713.0" type="line"/>
    </contour>
  </outline>
</glyph>
<glyph name="V" format="2">
  <advance width="705.8947368421052"/>
  <unicode hex="0056"/>
  <anchor x="301.42105263157896" y="0.0" name="bottom"/>
  <anchor x="451.42105263157896" y="713.0" name="top"/>
  <outline>
    <contour>
      <point x="194.26315789473685" y="0.0" type="curve"/>
      <point x="408.7894736842105" y="0.0" type="line"/>
      <point x="439.84210526315786" y="72.47368421052632"/>
      <point x="482.89473684210526" y="158.89473684210526"/>
      <point x="519.7368421052631" y="226.4736842105263" type="curve"/>
      <point x="639.0526315789474" y="450.0" type="line"/>
      <point x="680.3157894736843" y="527.5263157894736"/>
      <point x="738.1578947368421" y="629.578947368421"/>
      <point x="793.7894736842106" y="713.0" type="curve"/>
      <point x="601.8947368421053" y="713.0" type="line"/>
      <point x="562.7368421052632" y="617.9473684210526"/>
      <point x="513.5263157894738" y="510.0"/>
      <point x="467.57894736842104" y="415.89473684210526" type="curve"/>
      <point x="334.52631578947364" y="147.05263157894734" type="line"/>
      <point x="323.26315789473676" y="147.05263157894734" type="line"/>
      <point x="300.05263157894734" y="414.42105263157896" type="line"/>
      <point x="292.2105263157894" y="507.94736842105266"/>
      <point x="284.0" y="618.8947368421053"/>
      <point x="281.2631578947369" y="713.0" type="curve"/>
      <point x="108.05263157894737" y="713.0" type="line"/>
      <point x="129.73684210526318" y="629.1052631578947"/>
      <point x="144.47368421052633" y="526.1052631578947"/>
      <point x="153.21052631578948" y="449.5263157894737" type="curve"/>
      <point x="178.42105263157896" y="226.47368421052633" type="line"/>
      <point x="185.63157894736844" y="158.47368421052633"/>
      <point x="191.6842105263158" y="71.52631578947368"/>
    </contour>
  </outline>
</glyph>
<glyph name="W" format="2">
  <advance width="1036.8947368421054"/>
  <unicode hex="0057"/>
  <anchor x="463.84210526315786" y="0.0" name="bottom"/>
  <anchor x="613.8421052631579" y="713.0" name="top"/>
  <outline>
    <contour>
      <point x="154.47368421052633" y="0.0" type="curve"/>
      <point x="345.57894736842104" y="0.0" type="line"/>
      <point x="375.5263157894737" y="83.6842105263158"/>
      <point x="416.2631578947369" y="184.05263157894737"/>
      <point x="453.36842105263156" y="266.1578947368421" type="curve"/>
      <point x="560.7894736842104" y="506.7368421052632" type="line"/>
      <point x="572.0526315789473" y="506.7368421052632" type="line"/>
      <point x="580.6315789473684" y="266.1578947368421" type="line"/>
      <point x="583.3157894736842" y="183.0"/>
      <point x="583.842105263158" y="84.15789473684211"/>
      <point x="581.8421052631579" y="0.0" type="curve"/>
      <point x="779.736842105263" y="0.0" type="line"/>
      <point x="804.5263157894736" y="69.05263157894737"/>
      <point x="845.3157894736842" y="154.47368421052633"/>
      <point x="879.6842105263158" y="225.47368421052633" type="curve"/>
      <point x="987.8421052631579" y="450.0" type="line"/>
      <point x="1025.6842105263158" y="528.9473684210526"/>
      <point x="1077.2105263157894" y="629.6315789473683"/>
      <point x="1127.8421052631577" y="713.0" type="curve"/>
      <point x="938.5789473684212" y="713.0" type="line"/>
      <point x="905.6842105263158" y="623.1052631578947"/>
      <point x="863.4736842105262" y="517.4736842105264"/>
      <point x="824.8947368421052" y="428.0526315789474" type="curve"/>
      <point x="714.0526315789474" y="171.21052631578948" type="line"/>
      <point x="702.7894736842105" y="171.21052631578948" type="line"/>
      <point x="697.3684210526316" y="427.0" type="line"/>
      <point x="695.2631578947369" y="519.3157894736842"/>
      <point x="695.2631578947369" y="622.1578947368421"/>
      <point x="699.3684210526316" y="713.0" type="curve"/>
      <point x="525.9473684210527" y="713.0" type="line"/>
      <point x="492.47368421052636" y="623.578947368421"/>
      <point x="448.57894736842104" y="515.9473684210526"/>
      <point x="410.89473684210526" y="428.5263157894737" type="curve"/>
      <point x="299.3157894736842" y="171.21052631578948" type="line"/>
      <point x="288.05263157894734" y="171.21052631578948" type="line"/>
      <point x="284.36842105263156" y="423.68421052631584" type="line"/>
      <point x="282.84210526315786" y="515.0526315789474"/>
      <point x="284.5263157894737" y="622.6842105263157"/>
      <point x="289.6842105263157" y="713.0" type="curve"/>
      <point x="106.0" y="713.0" type="line"/>
      <point x="122.84210526315789" y="630.0526315789474"/>
      <point x="131.6842105263158" y="527.0526315789474"/>
      <point x="137.05263157894737" y="447.6315789473684" type="curve"/>
      <point x="150.1578947368421" y="225.0" type="line"/>
      <point x="154.5263157894737" y="155.47368421052633"/>
      <point x="156.78947368421052" y="71.52631578947368"/>
    </contour>
  </outline>
</glyph>
<glyph name="X" format="2">
  <advance width="711.1052631578947"/>
  <unicode hex="0058"/>
  <outline>
    <contour>
      <point x="-32.63157894736842" y="0.0" type="curve"/>
      <point x="165.73684210526315" y="0.0" type="line"/>
      <point x="199.36842105263156" y="56.31578947368421"/>
      <point x="231.94736842105263" y="104.8421052631579"/>
      <point x="267.42105263157896" y="152.10526315789474" type="curve"/>
      <point x="352.15789473684214" y="267.63157894736844" type="line"/>
      <point x="363.42105263157896" y="267.63157894736844" type="line"/>
      <point x="406.2105263157895" y="152.57894736842104" type="line"/>
      <point x="423.5263157894737" y="107.21052631578948"/>
      <point x="441.2631578947368" y="56.31578947368421"/>
      <point x="454.15789473684214" y="0.0" type="curve"/>
      <point x="640.2631578947369" y="0.0" type="line"/>
      <point x="597.842105263158" y="72.36842105263158"/>
      <point x="566.1052631578948" y="140.42105263157893"/>
      <point x="533.5263157894736" y="219.52631578947367" type="curve"/>
      <point x="469.42105263157896" y="375.57894736842104" type="line"/>
      <point x="461.21052631578954" y="335.94736842105266" type="line"/>
      <point x="591.4736842105262" y="503.94736842105266" type="line"/>
      <point x="638.7368421052631" y="564.6315789473684"/>
      <point x="697.4736842105264" y="637.8947368421053"/>
      <point x="770.1578947368422" y="713.0" type="curve"/>
      <point x="570.7894736842105" y="713.0" type="line"/>
      <point x="534.5263157894736" y="655.0"/>
      <point x="497.6842105263158" y="597.6315789473684"/>
      <point x="460.6842105263158" y="548.2631578947369" type="curve"/>
      <point x="389.5263157894737" y="450.8421052631579" type="line"/>
      <point x="378.2631578947369" y="450.8421052631579" type="line"/>
      <point x="344.05263157894734" y="547.3157894736842" type="line"/>
      <point x="326.7368421052631" y="596.2105263157895"/>
      <point x="310.10526315789474" y="654.1052631578948"/>
      <point x="296.57894736842104" y="713.0" type="curve"/>
      <point x="116.26315789473685" y="713.0" type="line"/>
      <point x="159.78947368421052" y="634.0526315789473"/>
      <point x="186.89473684210526" y="564.9473684210526"/>
      <point x="213.0" y="496.8421052631579" type="curve"/>
      <point x="269.63157894736844" y="349.7368421052632" type="line"/>
      <point x="277.89473684210526" y="386.7368421052631" type="line"/>
      <point x="140.31578947368422" y="207.42105263157893" type="line"/>
      <point x="82.15789473684211" y="131.73684210526315"/>
      <point x="28.94736842105263" y="66.15789473684211"/>
    </contour>
  </outline>
</glyph>
<glyph name="Y" format="2">
  <advance width="673.2105263157895"/>
  <unicode hex="0059"/>
  <anchor x="286.1578947368421" y="0.0" name="bottom"/>
  <anchor x="437.2105263157894" y="713.0" name="top"/>
  <anchor x="117.47368421052632" y="713.0" name="topleft"/>
  <outline>
    <contour>
      <point x="279.42105263157896" y="258.94736842105266" type="line"/>
      <point x="406.7894736842105" y="258.94736842105266" type="line"/>
      <point x="615.9473684210527" y="534.6842105263158" type="line"/>
      <point x="659.8947368421053" y="593.0"/>
      <point x="706.8421052631579" y="652.7368421052631"/>
      <point x="763.7368421052631" y="713.0" type="curve"/>
      <point x="565.7894736842105" y="713.0" type="line"/>
      <point x="518.7368421052632" y="628.4210526315788"/>
      <point x="491.1578947368421" y="584.9999999999999"/>
      <point x="443.9473684210526" y="515.3157894736842" type="curve"/>
      <point x="372.4210526315789" y="410.0526315789474" type="line"/>
      <point x="361.6842105263158" y="410.0526315789474" type="line"/>
      <point x="331.05263157894734" y="518.2105263157895" type="line"/>
      <point x="311.89473684210526" y="585.4736842105264"/>
      <point x="302.47368421052636" y="627.0"/>
      <point x="287.36842105263156" y="713.0" type="curve"/>
      <point x="107.42105263157895" y="713.0" type="line"/>
      <point x="143.73684210526315" y="643.2105263157895"/>
      <point x="164.26315789473682" y="593.4736842105264"/>
      <point x="184.6315789473684" y="534.6842105263158" type="curve"/>
    </contour>
    <contour>
      <point x="203.42105263157896" y="0.0" type="curve"/>
      <point x="370.9473684210526" y="0.0" type="line"/>
      <point x="379.15789473684214" y="77.3157894736842"/>
      <point x="389.47368421052624" y="143.21052631578948"/>
      <point x="408.4736842105263" y="233.26315789473685" type="curve"/>
      <point x="439.578947368421" y="380.2105263157895" type="line"/>
      <point x="294.42105263157896" y="380.2105263157895" type="line"/>
      <point x="263.3157894736842" y="233.26315789473685" type="line"/>
      <point x="244.78947368421055" y="144.1578947368421"/>
      <point x="227.15789473684214" y="77.3157894736842"/>
    </contour>
  </outline>
</glyph>
<glyph name="Z" format="2">
  <advance width="682.6842105263158"/>
  <unicode hex="005A"/>
  <anchor x="289.05263157894734" y="0.0" name="bottom"/>
  <anchor x="364.05263157894734" y="357.0" name="center"/>
  <anchor x="439.05263157894734" y="713.0" name="top"/>
  <outline>
    <contour>
      <point x="-10.684210526315788" y="0.0" type="line"/>
      <point x="585.9473684210527" y="0.0" type="line"/>
      <point x="615.0000000000001" y="136.52631578947367" type="line"/>
      <point x="539.1578947368422" y="124.15789473684211"/>
      <point x="419.84210526315786" y="120.47368421052632"/>
      <point x="338.6842105263158" y="120.47368421052632" type="curve"/>
      <point x="169.42105263157893" y="120.47368421052632" type="line"/>
      <point x="184.57894736842104" y="71.3157894736842" type="line"/>
      <point x="506.6315789473684" y="403.1578947368421" type="line"/>
      <point x="573.2631578947369" y="472.7894736842105"/>
      <point x="640.9473684210527" y="541.8947368421053"/>
      <point x="707.5263157894736" y="602.1052631578947" type="curve"/>
      <point x="730.8421052631579" y="713.0" type="line"/>
      <point x="149.00000000000003" y="713.0" type="line"/>
      <point x="120.42105263157896" y="574.8421052631578" type="line"/>
      <point x="215.10526315789474" y="588.3684210526316"/>
      <point x="303.3157894736843" y="592.5263157894736"/>
      <point x="380.0526315789474" y="592.5263157894736" type="curve"/>
      <point x="566.2105263157895" y="592.5263157894736" type="line"/>
      <point x="543.2105263157895" y="637.8947368421053" type="line"/>
      <point x="233.47368421052633" y="315.2105263157895" type="line"/>
      <point x="165.21052631578948" y="243.94736842105263"/>
      <point x="69.73684210526315" y="145.5263157894737"/>
      <point x="9.473684210526317" y="94.21052631578948" type="curve"/>
    </contour>
  </outline>
</glyph>
<glyph name="bracketleft" format="2">
  <advance width="397.63157894736844"/>
  <unicode hex="005B"/>
  <outline>
    <contour>
      <point x="-5.473684210526315" y="-121.47368421052632" type="curve"/>
      <point x="135.26315789473682" y="-121.47368421052632" type="line"/>
      <point x="139.4736842105263" y="-98.52631578947368" type="line"/>
      <point x="147.68421052631578" y="-21.210526315789473"/>
      <point x="158.4736842105263" y="45.63157894736842"/>
      <point x="176.99999999999997" y="134.73684210526315" type="curve"/>
      <point x="256.36842105263156" y="511.10526315789474" type="line"/>
      <point x="275.42105263157896" y="602.3157894736842"/>
      <point x="293.05263157894734" y="670.7368421052631"/>
      <point x="317.7894736842105" y="749.6315789473684" type="curve"/>
      <point x="323.0" y="772.1052631578947" type="line"/>
      <point x="182.26315789473685" y="772.1052631578947" type="line"/>
      <point x="171.47368421052633" y="693.6842105263158"/>
      <point x="160.6842105263158" y="624.3157894736842"/>
      <point x="141.63157894736844" y="533.578947368421" type="curve"/>
      <point x="52.8421052631579" y="111.78947368421052" type="line"/>
      <point x="34.31578947368421" y="23.157894736842106"/>
      <point x="16.684210526315795" y="-44.1578947368421"/>
    </contour>
    <contour>
      <point x="107.3157894736842" y="-121.47368421052632" type="line"/>
      <point x="299.0" y="-121.47368421052632" type="line"/>
      <point x="322.36842105263156" y="-8.894736842105269" type="line"/>
      <point x="276.0" y="-14.631578947368427"/>
      <point x="226.6315789473684" y="-16.21052631578948"/>
      <point x="171.84210526315792" y="-16.21052631578948" type="curve"/>
      <point x="129.10526315789474" y="-16.21052631578948" type="line"/>
    </contour>
    <contour>
      <point x="264.3157894736842" y="666.8421052631579" type="line"/>
      <point x="307.7368421052632" y="666.8421052631579" type="line"/>
      <point x="373.5263157894737" y="666.8421052631579"/>
      <point x="418.3684210526316" y="663.6842105263158"/>
      <point x="460.2105263157895" y="659.5263157894738" type="curve"/>
      <point x="484.57894736842104" y="772.1052631578947" type="line"/>
      <point x="286.63157894736844" y="772.1052631578947" type="line"/>
    </contour>
  </outline>
</glyph>
<glyph name="backslash" format="2">
  <advance width="462.7368421052631"/>
  <unicode hex="005C"/>
  <outline>
    <contour>
      <point x="257.7368421052632" y="0.0" type="curve"/>
      <point x="398.0" y="0.0" type="line"/>
      <point x="375.7894736842105" y="74.0"/>
      <point x="358.31578947368416" y="137.0"/>
      <point x="340.05263157894734" y="228.0" type="curve"/>
      <point x="290.1052631578946" y="475.5263157894737" type="line"/>
      <point x="271.3157894736842" y="570.0000000000001"/>
      <point x="259.52631578947364" y="636.4736842105264"/>
      <point x="252.57894736842104" y="713.0" type="curve"/>
      <point x="113.36842105263158" y="713.0" type="line"/>
      <point x="138.05263157894734" y="636.0"/>
      <point x="152.94736842105263" y="571.4736842105262"/>
      <point x="171.73684210526318" y="474.4736842105263" type="curve"/>
      <point x="221.15789473684214" y="228.0" type="line"/>
      <point x="239.94736842105266" y="137.0"/>
      <point x="251.26315789473685" y="74.0"/>
    </contour>
  </outline>
</glyph>
<glyph name="asciicircum" format="2">
  <advance width="625.7894736842105"/>
  <unicode hex="005E"/>
  <outline>
    <contour>
      <point x="490.6315789473684" y="365.0526315789474" type="curve"/>
      <point x="599.8421052631579" y="366.57894736842104" type="line"/>
      <point x="555.6842105263157" y="473.63157894736844"/>
      <point x="514.4736842105262" y="580.1052631578948"/>
      <point x="483.1578947368421" y="687.1578947368421" type="curve"/>
      <point x="303.2631578947368" y="687.1578947368421" type="line"/>
      <point x="236.5263157894737" y="582.6315789473684"/>
      <point x="158.26315789473685" y="475.94736842105266"/>
      <point x="76.31578947368422" y="368.57894736842104" type="curve"/>
      <point x="199.94736842105266" y="368.57894736842104" type="line"/>
      <point x="262.5263157894737" y="437.7368421052632"/>
      <point x="319.9473684210526" y="506.3157894736842"/>
      <point x="376.89473684210526" y="575.4736842105264" type="curve"/>
      <point x="387.63157894736844" y="575.4736842105264" type="line"/>
      <point x="420.57894736842104" y="505.3157894736842"/>
      <point x="452.5263157894737" y="435.2105263157895"/>
    </contour>
  </outline>
</glyph>
<glyph name="underscore" format="2">
  <advance width="422.1052631578947"/>
  <unicode hex="005F"/>
  <outline>
    <contour>
      <point x="-95.73684210526316" y="-156.31578947368422" type="line"/>
      <point x="-28.315789473684212" y="-153.78947368421052"/>
      <point x="38.263157894736835" y="-152.21052631578948"/>
      <point x="91.05263157894737" y="-151.1578947368421" type="curve"/>
      <point x="162.6315789473684" y="-151.1578947368421" type="line"/>
      <point x="214.36842105263162" y="-152.21052631578948"/>
      <point x="279.89473684210526" y="-153.78947368421052"/>
      <point x="346.36842105263156" y="-156.31578947368422" type="curve"/>
      <point x="371.2631578947369" y="-39.05263157894737" type="line"/>
      <point x="303.3157894736842" y="-41.578947368421055"/>
      <point x="236.73684210526318" y="-43.1578947368421"/>
      <point x="184.4736842105263" y="-44.21052631578947" type="curve"/>
      <point x="112.89473684210527" y="-44.21052631578947" type="line"/>
      <point x="60.63157894736841" y="-43.1578947368421"/>
      <point x="-4.894736842105265" y="-41.578947368421055"/>
      <point x="-70.84210526315789" y="-39.05263157894737" type="curve"/>
    </contour>
  </outline>
</glyph>
<glyph name="a" format="2">
  <advance width="533.0"/>
  <unicode hex="0061"/>
  <anchor x="210.25242718446603" y="0.0" name="bottom"/>
  <anchor x="415.6601941747573" y="0.0" name="ogonek"/>
  <anchor x="316.252427184466" y="498.504854368932" name="top"/>
  <outline>
    <contour>
      <point x="148.82524271844662" y="-11.37864077669903" type="curve" smooth="yes"/>
      <point x="209.44660194174756" y="-11.37864077669903"/>
      <point x="266.5533980582524" y="27.62135922330097"/>
      <point x="302.9223300970874" y="66.00970873786406" type="curve"/>
      <point x="313.4271844660194" y="66.00970873786406" type="line"/>
      <point x="315.1747572815534" y="0.0" type="line"/>
      <point x="446.6601941747573" y="0.0" type="line"/>
      <point x="437.40776699029124" y="61.13592233009709"/>
      <point x="440.1650485436893" y="115.39805825242718"/>
      <point x="450.4174757281553" y="163.53398058252426" type="curve"/>
      <point x="460.6601941747573" y="211.126213592233" type="line" smooth="yes"/>
      <point x="469.40776699029124" y="250.11650485436894"/>
      <point x="478.7864077669903" y="282.9902912621359"/>
      <point x="485.78640776699035" y="315.62135922330094" type="curve" smooth="yes"/>
      <point x="511.53398058252435" y="434.13592233009706"/>
      <point x="443.5145631067962" y="511.00970873786406"/>
      <point x="299.0" y="511.00970873786406" type="curve" smooth="yes"/>
      <point x="243.86407766990288" y="511.00970873786406"/>
      <point x="160.4757281553398" y="492.757281553398"/>
      <point x="110.0970873786408" y="483.1359223300972" type="curve"/>
      <point x="89.20388349514563" y="360.29126213592235" type="line"/>
      <point x="159.06796116504853" y="384.7864077669903"/>
      <point x="239.08737864077668" y="402.7864077669903"/>
      <point x="262.5825242718447" y="402.7864077669903" type="curve" smooth="yes"/>
      <point x="335.4368932038835" y="402.7864077669903"/>
      <point x="371.16504854368935" y="370.4271844660194"/>
      <point x="359.3009708737864" y="318.7281553398058" type="curve"/>
      <point x="197.83495145631068" y="292.7378640776699" type="line" smooth="yes"/>
      <point x="114.2135922330097" y="279.11650485436894"/>
      <point x="39.59223300970874" y="251.73786407766988"/>
      <point x="19.59223300970874" y="158.7378640776699" type="curve" smooth="yes"/>
      <point x="-0.28155339805824997" y="67.86407766990291"/>
      <point x="51.83495145631067" y="-11.37864077669903"/>
    </contour>
    <contour>
      <point x="205.29126213592235" y="90.96116504854368" type="curve" smooth="yes"/>
      <point x="167.4466019417476" y="90.96116504854368"/>
      <point x="143.45631067961165" y="114.32038834951457"/>
      <point x="150.9514563106796" y="154.79611650485435" type="curve" smooth="yes"/>
      <point x="158.44660194174756" y="193.5242718446602"/>
      <point x="190.80582524271847" y="206.64077669902912"/>
      <point x="235.64077669902915" y="216.00970873786412" type="curve" smooth="yes"/>
      <point x="305.0776699029126" y="230.873786407767"/>
      <point x="324.5631067961165" y="238.36893203883497"/>
      <point x="339.9320388349514" y="248.62135922330097" type="curve"/>
      <point x="322.3106796116505" y="163.2718446601942" type="line"/>
      <point x="278.6019417475729" y="112.94174757281554"/>
      <point x="228.65048543689326" y="90.96116504854368"/>
    </contour>
  </outline>
</glyph>
<glyph name="b" format="2">
  <advance width="594.2105263157895"/>
  <unicode hex="0062"/>
  <outline>
    <contour>
      <point x="318.42105263157896" y="-12.68421052631579" type="curve" smooth="yes"/>
      <point x="437.2631578947368" y="-12.68421052631579"/>
      <point x="519.8947368421052" y="83.89473684210526"/>
      <point x="549.8947368421052" y="226.31578947368422" type="curve" smooth="yes"/>
      <point x="581.4210526315788" y="377.36842105263156"/>
      <point x="529.9473684210526" y="511.36842105263156"/>
      <point x="389.05263157894734" y="511.36842105263156" type="curve" smooth="yes"/>
      <point x="343.52631578947364" y="511.36842105263156"/>
      <point x="289.2105263157895" y="482.8947368421053"/>
      <point x="253.73684210526315" y="445.1052631578947" type="curve"/>
      <point x="242.47368421052633" y="445.1052631578947" type="line"/>
      <point x="252.84210526315792" y="493.4736842105263" type="line"/>
      <point x="271.89473684210526" y="584.2631578947369"/>
      <point x="295.2105263157895" y="666.9473684210526"/>
      <point x="320.8947368421053" y="746.3157894736842" type="curve"/>
      <point x="151.00000000000003" y="730.578947368421" type="line"/>
      <point x="150.05263157894737" y="652.7894736842105"/>
      <point x="138.73684210526318" y="575.3157894736842"/>
      <point x="121.78947368421053" y="493.4736842105263" type="curve"/>
      <point x="63.26315789473684" y="216.78947368421052" type="line"/>
      <point x="45.73684210526316" y="134.21052631578948"/>
      <point x="28.631578947368425" y="71.84210526315789"/>
      <point x="6.421052631578952" y="0.0" type="curve"/>
      <point x="120.15789473684212" y="0.0" type="line"/>
      <point x="151.10526315789477" y="68.8421052631579" type="line"/>
      <point x="160.78947368421055" y="68.8421052631579" type="line"/>
      <point x="197.47368421052636" y="18.421052631578952"/>
      <point x="263.68421052631584" y="-12.68421052631579"/>
    </contour>
    <contour>
      <point x="282.10526315789474" y="101.42105263157895" type="curve"/>
      <point x="244.3684210526316" y="102.47368421052632"/>
      <point x="206.26315789473682" y="123.63157894736841"/>
      <point x="182.73684210526318" y="160.1578947368421" type="curve"/>
      <point x="220.94736842105266" y="341.0" type="line"/>
      <point x="251.78947368421055" y="375.52631578947364"/>
      <point x="293.36842105263156" y="397.8421052631579"/>
      <point x="325.9473684210526" y="398.8421052631579" type="curve"/>
      <point x="406.2105263157895" y="395.8421052631579"/>
      <point x="434.7894736842105" y="321.57894736842104"/>
      <point x="417.31578947368416" y="236.6315789473684" type="curve" smooth="yes"/>
      <point x="401.2105263157894" y="159.5263157894737"/>
      <point x="357.31578947368416" y="104.94736842105263"/>
    </contour>
  </outline>
</glyph>
<glyph name="c" format="2">
  <advance width="487.2631578947368"/>
  <unicode hex="0063"/>
  <anchor x="229.05263157894737" y="0.0" name="bottom"/>
  <anchor x="329.8421052631579" y="498.2105263157895" name="top"/>
  <outline>
    <contour>
      <point x="283.8421052631579" y="-11.105263157894738" type="curve" smooth="yes"/>
      <point x="325.05263157894734" y="-11.105263157894738"/>
      <point x="374.9473684210526" y="3.210526315789474"/>
      <point x="401.9473684210526" y="14.052631578947368" type="curve"/>
      <point x="418.2631578947369" y="131.94736842105263" type="line"/>
      <point x="384.94736842105266" y="113.10526315789473"/>
      <point x="339.10526315789474" y="98.73684210526315"/>
      <point x="308.05263157894734" y="98.26315789473684" type="curve" smooth="yes"/>
      <point x="210.52631578947367" y="100.26315789473684"/>
      <point x="152.89473684210526" y="160.73684210526315"/>
      <point x="175.94736842105263" y="265.94736842105266" type="curve" smooth="yes"/>
      <point x="195.0" y="351.68421052631584"/>
      <point x="252.3684210526316" y="393.8421052631579"/>
      <point x="327.4736842105263" y="398.8421052631579" type="curve"/>
      <point x="356.0526315789473" y="398.8421052631579"/>
      <point x="406.1578947368421" y="385.4736842105263"/>
      <point x="462.7894736842106" y="355.1052631578947" type="curve"/>
      <point x="495.89473684210526" y="470.63157894736844" type="line"/>
      <point x="454.3157894736842" y="487.47368421052636"/>
      <point x="387.52631578947364" y="510.8421052631579"/>
      <point x="327.42105263157896" y="510.8421052631579" type="curve" smooth="yes"/>
      <point x="175.31578947368422" y="510.8421052631579"/>
      <point x="72.94736842105263" y="417.42105263157896"/>
      <point x="43.89473684210527" y="278.78947368421046" type="curve" smooth="yes"/>
      <point x="7.736842105263161" y="105.21052631578948"/>
      <point x="105.99999999999999" y="-11.105263157894738"/>
    </contour>
  </outline>
</glyph>
<glyph name="d" format="2">
  <advance width="583.578947368421"/>
  <unicode hex="0064"/>
  <anchor x="261.89473684210526" y="0.0" name="bottom"/>
  <anchor x="292.6842105263158" y="249.10526315789474" name="center"/>
  <anchor x="414.94736842105266" y="728.2631578947369" name="top"/>
  <anchor x="614.3684210526316" y="498.2105263157895" name="topright"/>
  <outline>
    <contour>
      <point x="205.6842105263158" y="-12.68421052631579" type="curve" smooth="yes"/>
      <point x="254.52631578947373" y="-12.68421052631579"/>
      <point x="314.15789473684214" y="15.578947368421055"/>
      <point x="357.6842105263158" y="68.21052631578947" type="curve"/>
      <point x="367.36842105263156" y="68.21052631578947" type="line"/>
      <point x="360.2105263157895" y="0.0" type="line"/>
      <point x="480.8421052631578" y="0.0" type="line"/>
      <point x="489.5263157894736" y="71.84210526315789"/>
      <point x="498.84210526315786" y="134.21052631578948"/>
      <point x="516.3684210526314" y="216.78947368421052" type="curve"/>
      <point x="574.8947368421052" y="493.4736842105263" type="line"/>
      <point x="593.9473684210525" y="584.2631578947369"/>
      <point x="617.2631578947368" y="666.9473684210526"/>
      <point x="642.9473684210526" y="746.3157894736842" type="curve"/>
      <point x="473.0526315789474" y="730.578947368421" type="line"/>
      <point x="472.10526315789474" y="652.7894736842105"/>
      <point x="460.7894736842106" y="575.3157894736842"/>
      <point x="443.8421052631579" y="493.4736842105263" type="curve"/>
      <point x="433.00000000000006" y="442.2631578947368" type="line"/>
      <point x="421.7368421052632" y="442.2631578947368" type="line"/>
      <point x="390.52631578947364" y="482.36842105263156"/>
      <point x="330.10526315789474" y="511.36842105263156"/>
      <point x="276.3157894736842" y="511.36842105263156" type="curve" smooth="yes"/>
      <point x="157.4736842105263" y="511.36842105263156"/>
      <point x="74.84210526315789" y="414.7894736842105"/>
      <point x="44.84210526315789" y="272.3684210526316" type="curve" smooth="yes"/>
      <point x="13.315789473684207" y="121.31578947368422"/>
      <point x="64.78947368421052" y="-12.68421052631579"/>
    </contour>
    <contour>
      <point x="268.7894736842105" y="99.84210526315789" type="curve"/>
      <point x="188.52631578947367" y="102.36842105263158"/>
      <point x="159.47368421052633" y="177.57894736842107"/>
      <point x="177.42105263157896" y="262.05263157894734" type="curve" smooth="yes"/>
      <point x="194.00000000000003" y="340.10526315789474"/>
      <point x="237.42105263157896" y="393.7368421052632"/>
      <point x="312.6315789473684" y="397.2631578947369" type="curve"/>
      <point x="351.7894736842105" y="395.7368421052632"/>
      <point x="389.42105263157896" y="376.4736842105263"/>
      <point x="412.9473684210526" y="347.52631578947364" type="curve"/>
      <point x="375.68421052631584" y="170.0" type="line"/>
      <point x="348.1578947368421" y="126.94736842105262"/>
      <point x="307.5263157894737" y="101.3157894736842"/>
    </contour>
  </outline>
</glyph>
<glyph name="g" format="2">
  <advance width="549.7669902912621"/>
  <unicode hex="0067"/>
  <anchor x="205.0388349514563" y="-192.0" name="bottom"/>
  <anchor x="312.11650485436894" y="498.504854368932" name="top"/>
  <outline>
    <contour>
      <point x="180.3883495145631" y="-203.378640776699" type="curve" smooth="yes"/>
      <point x="300.9029126213592" y="-203.378640776699"/>
      <point x="426.54368932038824" y="-160.63106796116506"/>
      <point x="450.42718446601936" y="-47.84466019417476" type="curve" smooth="yes"/>
      <point x="470.1844660194174" y="46.436893203883486"/>
      <point x="406.9029126213592" y="103.18446601941747"/>
      <point x="280.93203883495147" y="103.18446601941747" type="curve" smooth="yes"/>
      <point x="236.5631067961165" y="103.18446601941747" type="line" smooth="yes"/>
      <point x="203.4563106796117" y="103.18446601941747"/>
      <point x="175.0970873786408" y="109.93203883495144"/>
      <point x="178.97087378640776" y="130.1747572815534" type="curve" smooth="yes"/>
      <point x="181.97087378640776" y="146.66990291262135"/>
      <point x="216.6990291262136" y="157.53398058252426"/>
      <point x="276.1650485436893" y="165.15533980582524" type="curve" smooth="yes"/>
      <point x="365.90291262135923" y="177.15533980582524"/>
      <point x="452.66019417475724" y="213.3980582524272"/>
      <point x="472.66019417475724" y="318.747572815534" type="curve" smooth="yes"/>
      <point x="482.78640776699024" y="371.99029126213594"/>
      <point x="467.6699029126213" y="417.8543689320388"/>
      <point x="422.0679611650486" y="456.4757281553398" type="curve"/>
      <point x="386.78640776699024" y="419.43689320388347" type="line"/>
      <point x="444.9029126213592" y="417.31067961165047"/>
      <point x="501.5145631067962" y="410.80582524271847"/>
      <point x="561.504854368932" y="395.2912621359223" type="curve"/>
      <point x="583.5242718446601" y="499.88349514563106" type="line"/>
      <point x="421.6699029126213" y="499.88349514563106" type="line" smooth="yes"/>
      <point x="361.90291262135923" y="499.88349514563106"/>
      <point x="338.1456310679611" y="511.00970873786406"/>
      <point x="266.7378640776698" y="511.00970873786406" type="curve" smooth="yes"/>
      <point x="150.83495145631068" y="511.00970873786406"/>
      <point x="79.97087378640775" y="454.2427184466019"/>
      <point x="62.22330097087379" y="367.37864077669906" type="curve" smooth="yes"/>
      <point x="43.72815533980583" y="277.77669902912623"/>
      <point x="104.3106796116505" y="216.39805825242715"/>
      <point x="146.46601941747574" y="194.747572815534" type="curve"/>
      <point x="146.46601941747574" y="185.2427184466019" type="line"/>
      <point x="103.85436893203882" y="174.36893203883497"/>
      <point x="64.71844660194174" y="154.62135922330097"/>
      <point x="55.71844660194174" y="111.99029126213591" type="curve" smooth="yes"/>
      <point x="45.71844660194174" y="64.61165048543688"/>
      <point x="78.84466019417475" y="38.359223300970875"/>
      <point x="93.35922330097084" y="30.106796116504853" type="curve"/>
      <point x="93.35922330097084" y="21.47572815533981" type="line"/>
      <point x="50.4854368932039" y="10.728155339805825"/>
      <point x="-9.019417475728156" y="-17.009708737864077"/>
      <point x="-19.89320388349515" y="-67.50485436893206" type="curve" smooth="yes"/>
      <point x="-40.27184466019418" y="-163.76699029126215"/>
      <point x="69.63106796116504" y="-203.378640776699"/>
    </contour>
    <contour>
      <point x="196.6504854368932" y="-108.07766990291263" type="curve"/>
      <point x="142.02912621359226" y="-106.95145631067962"/>
      <point x="88.82524271844659" y="-88.58252427184466"/>
      <point x="96.19417475728153" y="-55.106796116504846" type="curve" smooth="yes"/>
      <point x="102.56310679611649" y="-27.25242718446602"/>
      <point x="148.0388349514563" y="-8.883495145631068"/>
      <point x="188.883495145631" y="-0.019417475728154443" type="curve"/>
      <point x="225.3495145631068" y="-0.019417475728154443" type="line" smooth="yes"/>
      <point x="315.65048543689323" y="-0.019417475728154443"/>
      <point x="334.0582524271844" y="-27.252427184466015"/>
      <point x="328.05825242718447" y="-54.99029126213591" type="curve" smooth="yes"/>
      <point x="323.31067961165047" y="-77.2233009708738"/>
      <point x="282.45631067961165" y="-103.20388349514563"/>
    </contour>
    <contour>
      <point x="244.39805825242718" y="252.9126213592233" type="curve"/>
      <point x="210.04854368932038" y="269.1553398058252"/>
      <point x="169.70873786407768" y="294.3883495145631"/>
      <point x="178.95145631067962" y="341.97087378640776" type="curve" smooth="yes"/>
      <point x="187.19417475728156" y="384.80582524271847"/>
      <point x="224.2912621359223" y="405.16504854368935"/>
      <point x="272.873786407767" y="405.41747572815535" type="curve"/>
      <point x="329.21359223300976" y="404.9126213592233"/>
      <point x="366.43689320388347" y="367.1941747572816"/>
      <point x="355.44660194174753" y="318.86407766990294" type="curve" smooth="yes"/>
      <point x="344.33009708737865" y="269.1553398058253"/>
      <point x="291.1067961165049" y="256.53398058252424"/>
    </contour>
  </outline>
</glyph>
<glyph name="h" format="2">
  <advance width="583.7894736842106"/>
  <unicode hex="0068"/>
  <guideline x="99.89473684210526" y="729.2631578947368" angle="4.470799999999997"/>
  <anchor x="271.2105263157895" y="0.0" name="bottom"/>
  <anchor x="311.9473684210526" y="409.0" name="center"/>
  <anchor x="373.0526315789474" y="728.2631578947369" name="top"/>
  <outline>
    <contour>
      <point x="6.421052631578952" y="0.0" type="curve"/>
      <point x="158.78947368421052" y="0.0" type="line"/>
      <point x="167.47368421052636" y="71.84210526315789"/>
      <point x="176.78947368421055" y="134.21052631578948"/>
      <point x="192.73684210526318" y="209.94736842105263" type="curve"/>
      <point x="216.00000000000003" y="318.9473684210526" type="line"/>
      <point x="252.89473684210526" y="357.73684210526324"/>
      <point x="302.7894736842105" y="390.9473684210526"/>
      <point x="337.84210526315786" y="390.9473684210526" type="curve" smooth="yes"/>
      <point x="396.4210526315789" y="390.9473684210526"/>
      <point x="410.8421052631579" y="349.1578947368421"/>
      <point x="394.10526315789474" y="273.52631578947364" type="curve"/>
      <point x="381.42105263157896" y="209.94736842105263" type="line"/>
      <point x="365.4736842105263" y="134.21052631578948"/>
      <point x="348.8947368421053" y="71.84210526315789"/>
      <point x="327.7368421052632" y="0.0" type="curve"/>
      <point x="479.0526315789474" y="0.0" type="line"/>
      <point x="486.15789473684214" y="71.84210526315789"/>
      <point x="496.5263157894737" y="134.21052631578948"/>
      <point x="514.0526315789474" y="216.78947368421052" type="curve"/>
      <point x="522.0526315789474" y="255.31578947368425"/>
      <point x="532.7894736842106" y="290.84210526315786"/>
      <point x="538.7894736842106" y="318.89473684210526" type="curve" smooth="yes"/>
      <point x="564.2105263157896" y="436.6842105263157"/>
      <point x="517.6842105263158" y="511.36842105263156"/>
      <point x="409.84210526315786" y="511.36842105263156" type="curve" smooth="yes"/>
      <point x="354.4736842105263" y="511.36842105263156"/>
      <point x="289.7368421052632" y="469.2105263157894"/>
      <point x="249.89473684210526" y="428.0526315789474" type="curve"/>
      <point x="238.57894736842107" y="428.0526315789474" type="line"/>
      <point x="252.84210526315792" y="493.4736842105263" type="line"/>
      <point x="271.89473684210526" y="584.2631578947369"/>
      <point x="295.2105263157895" y="666.9473684210527"/>
      <point x="320.89473684210526" y="746.3157894736842" type="curve"/>
      <point x="151.00000000000003" y="730.578947368421" type="line"/>
      <point x="150.05263157894737" y="652.7894736842105"/>
      <point x="138.73684210526318" y="575.3157894736842"/>
      <point x="121.78947368421053" y="493.4736842105263" type="curve"/>
      <point x="63.26315789473684" y="216.78947368421052" type="line"/>
      <point x="45.73684210526316" y="134.21052631578948"/>
      <point x="28.631578947368425" y="71.84210526315789"/>
    </contour>
  </outline>
</glyph>
<glyph name="k" format="2">
  <advance width="569.1578947368421"/>
  <unicode hex="006B"/>
  <anchor x="234.42105263157893" y="0.0" name="bottom"/>
  <anchor x="387.4736842105263" y="728.2631578947369" name="top"/>
  <outline>
    <contour>
      <point x="339.4736842105263" y="0.0" type="curve"/>
      <point x="512.5263157894736" y="0.0" type="line"/>
      <point x="461.6315789473684" y="60.1578947368421"/>
      <point x="417.8947368421052" y="120.36842105263158"/>
      <point x="376.2105263157894" y="180.52631578947367" type="curve"/>
      <point x="302.15789473684214" y="291.63157894736844" type="line"/>
      <point x="321.36842105263156" y="232.6315789473684" type="line"/>
      <point x="410.6842105263158" y="319.8421052631579" type="line"/>
      <point x="472.36842105263156" y="379.4736842105263"/>
      <point x="535.0" y="438.57894736842104"/>
      <point x="602.7894736842105" y="498.2105263157895" type="curve"/>
      <point x="424.2631578947369" y="498.2105263157895" type="line"/>
      <point x="387.2105263157895" y="453.94736842105266"/>
      <point x="345.4736842105263" y="409.7368421052632"/>
      <point x="303.157894736842" y="365.4736842105263" type="curve"/>
      <point x="233.10526315789474" y="293.36842105263156" type="line"/>
      <point x="198.89473684210526" y="293.36842105263156" type="line"/>
      <point x="180.26315789473682" y="205.3684210526316" type="line"/>
      <point x="212.6842105263158" y="205.3684210526316" type="line"/>
      <point x="265.05263157894734" y="126.47368421052632" type="line"/>
      <point x="292.4736842105263" y="84.3157894736842"/>
      <point x="318.31578947368416" y="42.1578947368421"/>
    </contour>
    <contour>
      <point x="6.421052631578952" y="0.0" type="curve"/>
      <point x="158.78947368421052" y="0.0" type="line"/>
      <point x="166.94736842105263" y="65.52631578947368"/>
      <point x="175.21052631578948" y="122.63157894736842"/>
      <point x="189.05263157894737" y="192.05263157894737" type="curve"/>
      <point x="252.84210526315792" y="493.4736842105263" type="line"/>
      <point x="271.89473684210526" y="584.2631578947369"/>
      <point x="295.2105263157895" y="666.9473684210527"/>
      <point x="320.89473684210526" y="746.3157894736842" type="curve"/>
      <point x="151.00000000000003" y="730.578947368421" type="line"/>
      <point x="150.05263157894737" y="652.7894736842105"/>
      <point x="138.73684210526318" y="575.3157894736842"/>
      <point x="121.78947368421053" y="493.4736842105263" type="curve"/>
      <point x="63.26315789473684" y="216.78947368421052" type="line"/>
      <point x="45.73684210526316" y="134.21052631578948"/>
      <point x="28.631578947368425" y="71.84210526315789"/>
    </contour>
  </outline>
</glyph>
<glyph name="l" format="2">
  <advance width="271.6842105263158"/>
  <unicode hex="006C"/>
  <anchor x="82.84210526315789" y="0.0" name="bottom"/>
  <anchor x="172.47368421052633" y="409.0" name="center"/>
  <anchor x="232.63157894736844" y="728.2631578947369" name="top"/>
  <anchor x="289.6842105263158" y="498.2105263157895" name="topright"/>
  <outline>
    <contour>
      <point x="6.421052631578952" y="0.0" type="curve"/>
      <point x="158.78947368421052" y="0.0" type="line"/>
      <point x="167.47368421052636" y="71.84210526315789"/>
      <point x="176.78947368421055" y="134.21052631578948"/>
      <point x="194.31578947368422" y="216.78947368421052" type="curve"/>
      <point x="252.84210526315792" y="493.4736842105263" type="line"/>
      <point x="271.89473684210526" y="584.2631578947369"/>
      <point x="295.2105263157895" y="666.9473684210526"/>
      <point x="320.8947368421053" y="746.3157894736842" type="curve"/>
      <point x="151.00000000000003" y="730.578947368421" type="line"/>
      <point x="150.05263157894737" y="652.7894736842105"/>
      <point x="138.73684210526318" y="575.3157894736842"/>
      <point x="121.78947368421053" y="493.4736842105263" type="curve"/>
      <point x="63.26315789473684" y="216.78947368421052" type="line"/>
      <point x="45.73684210526316" y="134.21052631578948"/>
      <point x="28.631578947368425" y="71.84210526315789"/>
    </contour>
  </outline>
</glyph>
<glyph name="m" format="2">
  <advance width="884.3684210526316"/>
  <unicode hex="006D"/>
  <anchor x="396.89473684210526" y="0.0" name="bottom"/>
  <anchor x="501.94736842105266" y="498.2105263157895" name="top"/>
  <outline>
    <contour>
      <point x="11.368421052631584" y="0.0" type="curve"/>
      <point x="163.73684210526315" y="0.0" type="line"/>
      <point x="172.421052631579" y="71.84210526315789"/>
      <point x="181.73684210526318" y="134.21052631578948"/>
      <point x="197.6842105263158" y="209.94736842105263" type="curve"/>
      <point x="220.94736842105266" y="318.9473684210526" type="line"/>
      <point x="257.842105263158" y="357.7368421052631"/>
      <point x="304.7894736842105" y="390.9473684210526"/>
      <point x="338.89473684210526" y="390.9473684210526" type="curve" smooth="yes"/>
      <point x="390.7368421052632" y="390.9473684210526"/>
      <point x="405.15789473684214" y="349.1578947368421"/>
      <point x="388.42105263157896" y="273.52631578947364" type="curve"/>
      <point x="375.7368421052632" y="209.94736842105263" type="line"/>
      <point x="359.7894736842105" y="134.21052631578948"/>
      <point x="343.21052631578954" y="71.84210526315789"/>
      <point x="322.05263157894734" y="0.0" type="curve"/>
      <point x="473.3684210526316" y="0.0" type="line"/>
      <point x="480.47368421052636" y="71.84210526315789"/>
      <point x="490.8421052631579" y="134.21052631578948"/>
      <point x="508.3684210526316" y="216.78947368421052" type="curve"/>
      <point x="516.3684210526316" y="255.31578947368425"/>
      <point x="527.1052631578948" y="290.84210526315786"/>
      <point x="533.1052631578948" y="318.89473684210526" type="curve" smooth="yes"/>
      <point x="539.1578947368421" y="347.10526315789474"/>
      <point x="541.1052631578947" y="372.31578947368416"/>
      <point x="538.9999999999999" y="394.9473684210526" type="curve"/>
      <point x="533.7894736842105" y="396.84210526315786" type="line"/>
      <point x="529.6842105263157" y="468.4736842105263"/>
      <point x="486.7368421052632" y="511.36842105263156"/>
      <point x="410.42105263157896" y="511.36842105263156" type="curve" smooth="yes"/>
      <point x="352.2631578947368" y="511.36842105263156"/>
      <point x="282.6315789473684" y="466.05263157894734"/>
      <point x="238.5263157894737" y="419.1578947368421" type="curve"/>
      <point x="227.21052631578945" y="419.1578947368421" type="line"/>
      <point x="235.05263157894737" y="504.89473684210526" type="line"/>
      <point x="105.63157894736842" y="498.2105263157895" type="line"/>
      <point x="105.57894736842105" y="419.4736842105263"/>
      <point x="94.73684210526316" y="342.0"/>
      <point x="79.21052631578948" y="266.7894736842105" type="curve"/>
      <point x="68.21052631578948" y="216.78947368421052" type="line"/>
      <point x="50.684210526315795" y="134.21052631578948"/>
      <point x="33.578947368421055" y="71.84210526315789"/>
    </contour>
    <contour>
      <point x="628.3157894736843" y="0.0" type="curve"/>
      <point x="779.6315789473683" y="0.0" type="line"/>
      <point x="786.7368421052631" y="71.84210526315789"/>
      <point x="797.1052631578947" y="134.21052631578948"/>
      <point x="814.6315789473683" y="216.78947368421052" type="curve"/>
      <point x="822.6315789473683" y="255.31578947368425"/>
      <point x="833.3684210526316" y="290.84210526315786"/>
      <point x="839.3684210526316" y="318.89473684210526" type="curve" smooth="yes"/>
      <point x="864.7894736842105" y="436.6842105263157"/>
      <point x="818.2631578947369" y="511.36842105263156"/>
      <point x="716.6842105263156" y="511.36842105263156" type="curve" smooth="yes"/>
      <point x="658.5263157894736" y="511.36842105263156"/>
      <point x="587.0526315789473" y="464.63157894736844"/>
      <point x="542.0" y="416.7894736842106" type="curve"/>
      <point x="529.2105263157896" y="416.7894736842106" type="line"/>
      <point x="527.2105263157894" y="318.9473684210526" type="line"/>
      <point x="564.1052631578948" y="357.7368421052632"/>
      <point x="611.0526315789473" y="390.9473684210526"/>
      <point x="645.1578947368421" y="390.9473684210526" type="curve" smooth="yes"/>
      <point x="697.0" y="390.9473684210526"/>
      <point x="711.4210526315788" y="349.1578947368421"/>
      <point x="694.6842105263158" y="273.52631578947364" type="curve"/>
      <point x="682.0" y="209.94736842105263" type="line"/>
      <point x="666.0526315789474" y="134.21052631578948"/>
      <point x="649.4736842105262" y="71.84210526315789"/>
    </contour>
  </outline>
</glyph>
<glyph name="n" format="2">
  <advance width="588.7368421052632"/>
  <unicode hex="006E"/>
  <anchor x="244.10526315789477" y="0.0" name="bottom"/>
  <anchor x="349.15789473684214" y="498.2105263157895" name="top"/>
  <outline>
    <contour>
      <point x="11.368421052631584" y="0.0" type="curve"/>
      <point x="163.73684210526315" y="0.0" type="line"/>
      <point x="172.421052631579" y="71.84210526315789"/>
      <point x="181.73684210526318" y="134.21052631578948"/>
      <point x="197.6842105263158" y="209.94736842105263" type="curve"/>
      <point x="220.94736842105266" y="318.9473684210526" type="line"/>
      <point x="257.84210526315786" y="357.73684210526324"/>
      <point x="307.7368421052631" y="390.9473684210526"/>
      <point x="342.7894736842105" y="390.9473684210526" type="curve" smooth="yes"/>
      <point x="401.36842105263156" y="390.9473684210526"/>
      <point x="415.7894736842106" y="349.1578947368421"/>
      <point x="399.0526315789474" y="273.52631578947364" type="curve"/>
      <point x="386.3684210526316" y="209.94736842105263" type="line"/>
      <point x="370.42105263157896" y="134.21052631578948"/>
      <point x="353.842105263158" y="71.84210526315789"/>
      <point x="332.6842105263158" y="0.0" type="curve"/>
      <point x="484.00000000000006" y="0.0" type="line"/>
      <point x="491.1052631578948" y="71.84210526315789"/>
      <point x="501.47368421052636" y="134.21052631578948"/>
      <point x="519.0" y="216.78947368421052" type="curve"/>
      <point x="527.0" y="255.31578947368425"/>
      <point x="537.7368421052632" y="290.84210526315786"/>
      <point x="543.7368421052632" y="318.89473684210526" type="curve" smooth="yes"/>
      <point x="569.1578947368422" y="436.6842105263157"/>
      <point x="522.6315789473684" y="511.36842105263156"/>
      <point x="414.7894736842105" y="511.36842105263156" type="curve" smooth="yes"/>
      <point x="354.15789473684214" y="511.36842105263156"/>
      <point x="283.15789473684214" y="466.05263157894734"/>
      <point x="238.5263157894737" y="419.1578947368421" type="curve"/>
      <point x="227.21052631578945" y="419.1578947368421" type="line"/>
      <point x="235.05263157894737" y="504.89473684210526" type="line"/>
      <point x="105.63157894736842" y="498.2105263157895" type="line"/>
      <point x="105.57894736842105" y="419.4736842105263"/>
      <point x="94.73684210526316" y="342.0"/>
      <point x="79.21052631578948" y="266.7894736842105" type="curve"/>
      <point x="68.21052631578948" y="216.78947368421052" type="line"/>
      <point x="50.684210526315795" y="134.21052631578948"/>
      <point x="33.578947368421055" y="71.84210526315789"/>
    </contour>
  </outline>
</glyph>
<glyph name="o" format="2">
  <advance width="597.5263157894736"/>
  <unicode hex="006F"/>
  <anchor x="246.00000000000003" y="0.0" name="bottom"/>
  <anchor x="298.5263157894737" y="249.10526315789474" name="center"/>
  <anchor x="358.63157894736844" y="0.0" name="ogonek"/>
  <anchor x="351.0526315789474" y="498.2105263157895" name="top"/>
  <anchor x="580.0" y="498.2105263157895" name="topright"/>
  <outline>
    <contour>
      <point x="275.6842105263158" y="-12.68421052631579" type="curve" smooth="yes"/>
      <point x="422.57894736842104" y="-12.68421052631579"/>
      <point x="524.0526315789474" y="79.6842105263158"/>
      <point x="554.6315789473684" y="223.05263157894737" type="curve" smooth="yes"/>
      <point x="586.6315789473684" y="372.5789473684211"/>
      <point x="503.36842105263156" y="511.36842105263156"/>
      <point x="322.3157894736842" y="511.36842105263156" type="curve" smooth="yes"/>
      <point x="180.57894736842104" y="511.36842105263156"/>
      <point x="74.42105263157895" y="424.7368421052631"/>
      <point x="43.36842105263158" y="276.1578947368421" type="curve" smooth="yes"/>
      <point x="12.842105263157897" y="128.52631578947367"/>
      <point x="89.05263157894737" y="-12.68421052631579"/>
    </contour>
    <contour>
      <point x="279.7894736842105" y="95.63157894736841" type="curve"/>
      <point x="191.42105263157893" y="99.68421052631578"/>
      <point x="157.36842105263156" y="175.3684210526316"/>
      <point x="175.42105263157893" y="262.7894736842105" type="curve" smooth="yes"/>
      <point x="192.05263157894734" y="344.0"/>
      <point x="243.57894736842107" y="399.00000000000006"/>
      <point x="320.7368421052632" y="403.0526315789474" type="curve"/>
      <point x="406.0" y="397.94736842105266"/>
      <point x="441.0526315789474" y="324.52631578947364"/>
      <point x="422.5789473684211" y="235.89473684210526" type="curve" smooth="yes"/>
      <point x="406.47368421052636" y="158.21052631578948"/>
      <point x="356.89473684210526" y="99.68421052631578"/>
    </contour>
  </outline>
</glyph>
<glyph name="p" format="2">
  <advance width="599.1578947368421"/>
  <unicode hex="0070"/>
  <outline>
    <contour>
      <point x="-30.105263157894733" y="-196.10526315789474" type="curve"/>
      <point x="125.89473684210527" y="-192.0" type="line"/>
      <point x="132.0" y="-120.15789473684211"/>
      <point x="140.78947368421052" y="-57.78947368421053"/>
      <point x="157.21052631578948" y="17.94736842105263" type="curve"/>
      <point x="167.10526315789474" y="62.52631578947368" type="line"/>
      <point x="176.26315789473685" y="62.52631578947368" type="line"/>
      <point x="210.8421052631579" y="16.31578947368421"/>
      <point x="272.31578947368416" y="-12.68421052631579"/>
      <point x="323.3684210526316" y="-12.68421052631579" type="curve" smooth="yes"/>
      <point x="442.2105263157895" y="-12.68421052631579"/>
      <point x="524.8421052631578" y="83.89473684210526"/>
      <point x="554.8421052631578" y="226.31578947368422" type="curve" smooth="yes"/>
      <point x="586.3684210526314" y="377.36842105263156"/>
      <point x="534.8947368421052" y="511.36842105263156"/>
      <point x="394.0" y="511.36842105263156" type="curve" smooth="yes"/>
      <point x="343.7894736842105" y="511.36842105263156"/>
      <point x="284.7894736842105" y="479.7894736842105"/>
      <point x="245.15789473684208" y="435.7368421052632" type="curve"/>
      <point x="233.36842105263156" y="435.7368421052632" type="line"/>
      <point x="239.78947368421052" y="504.89473684210526" type="line"/>
      <point x="105.63157894736842" y="498.2105263157895" type="line"/>
      <point x="105.57894736842105" y="419.4736842105263"/>
      <point x="94.73684210526316" y="342.0"/>
      <point x="79.21052631578948" y="266.7894736842105" type="curve"/>
      <point x="27.73684210526316" y="24.789473684210527" type="line"/>
      <point x="10.210526315789478" y="-57.78947368421053"/>
      <point x="-7.894736842105258" y="-124.26315789473684"/>
    </contour>
    <contour>
      <point x="287.0526315789474" y="101.42105263157895" type="curve"/>
      <point x="249.31578947368422" y="102.47368421052632"/>
      <point x="211.21052631578945" y="123.63157894736841"/>
      <point x="187.6842105263158" y="160.1578947368421" type="curve"/>
      <point x="225.8947368421053" y="341.0" type="line"/>
      <point x="256.7368421052632" y="375.52631578947364"/>
      <point x="298.3157894736842" y="397.8421052631579"/>
      <point x="330.89473684210526" y="398.8421052631579" type="curve"/>
      <point x="411.15789473684214" y="395.8421052631579"/>
      <point x="439.7368421052632" y="321.57894736842104"/>
      <point x="422.2631578947368" y="236.6315789473684" type="curve" smooth="yes"/>
      <point x="406.1578947368421" y="159.5263157894737"/>
      <point x="362.2631578947368" y="104.94736842105263"/>
    </contour>
  </outline>
</glyph>
<glyph name="q" format="2">
  <advance width="587.6315789473684"/>
  <unicode hex="0071"/>
  <outline>
    <contour>
      <point x="287.42105263157896" y="-196.10526315789474" type="curve"/>
      <point x="440.78947368421046" y="-192.0" type="line"/>
      <point x="449.47368421052624" y="-120.15789473684211"/>
      <point x="458.78947368421046" y="-57.78947368421053"/>
      <point x="476.31578947368416" y="24.789473684210527" type="curve"/>
      <point x="527.8421052631578" y="266.7894736842105" type="line"/>
      <point x="543.8947368421052" y="344.05263157894734"/>
      <point x="566.0526315789473" y="424.10526315789474"/>
      <point x="595.8947368421052" y="504.89473684210526" type="curve"/>
      <point x="465.42105263157896" y="498.2105263157895" type="line"/>
      <point x="444.42105263157896" y="432.42105263157896" type="line"/>
      <point x="433.15789473684214" y="432.42105263157896" type="line"/>
      <point x="398.89473684210526" y="479.7368421052631"/>
      <point x="334.2631578947368" y="511.36842105263156"/>
      <point x="276.3157894736842" y="511.36842105263156" type="curve" smooth="yes"/>
      <point x="157.4736842105263" y="511.36842105263156"/>
      <point x="74.84210526315789" y="414.7894736842105"/>
      <point x="44.84210526315789" y="272.3684210526316" type="curve" smooth="yes"/>
      <point x="13.315789473684207" y="121.31578947368422"/>
      <point x="64.78947368421052" y="-12.68421052631579"/>
      <point x="205.6842105263158" y="-12.68421052631579" type="curve" smooth="yes"/>
      <point x="250.31578947368422" y="-12.68421052631579"/>
      <point x="303.10526315789474" y="12.421052631578949"/>
      <point x="342.42105263157896" y="58.736842105263165" type="curve"/>
      <point x="352.6315789473685" y="58.736842105263165" type="line"/>
      <point x="343.6842105263158" y="17.94736842105263" type="line"/>
      <point x="327.7368421052632" y="-57.78947368421053"/>
      <point x="309.63157894736844" y="-124.26315789473684"/>
    </contour>
    <contour>
      <point x="268.7894736842105" y="99.84210526315789" type="curve"/>
      <point x="188.52631578947367" y="102.36842105263158"/>
      <point x="159.47368421052633" y="177.57894736842107"/>
      <point x="177.42105263157896" y="262.05263157894734" type="curve" smooth="yes"/>
      <point x="194.00000000000003" y="340.10526315789474"/>
      <point x="237.42105263157896" y="393.7368421052632"/>
      <point x="312.6315789473684" y="397.2631578947369" type="curve"/>
      <point x="351.7894736842105" y="395.7368421052632"/>
      <point x="389.42105263157896" y="376.4736842105263"/>
      <point x="413.89473684210526" y="347.52631578947364" type="curve"/>
      <point x="376.15789473684214" y="170.0" type="line"/>
      <point x="348.1578947368421" y="126.94736842105262"/>
      <point x="307.5263157894737" y="101.3157894736842"/>
    </contour>
  </outline>
</glyph>
<glyph name="r" format="2">
  <advance width="417.1578947368421"/>
  <unicode hex="0072"/>
  <anchor x="81.1578947368421" y="0.0" name="bottom"/>
  <anchor x="287.15789473684214" y="498.2105263157895" name="top"/>
  <outline>
    <contour>
      <point x="11.368421052631584" y="0.0" type="curve"/>
      <point x="163.73684210526315" y="0.0" type="line"/>
      <point x="172.421052631579" y="71.84210526315789"/>
      <point x="181.73684210526318" y="134.21052631578948"/>
      <point x="197.6842105263158" y="209.94736842105263" type="curve"/>
      <point x="214.5263157894737" y="286.6315789473684" type="line"/>
      <point x="262.8421052631579" y="359.15789473684214"/>
      <point x="315.63157894736844" y="378.8421052631579"/>
      <point x="343.94736842105266" y="378.8421052631579" type="curve" smooth="yes"/>
      <point x="361.42105263157896" y="378.8421052631579"/>
      <point x="380.47368421052624" y="374.2631578947368"/>
      <point x="410.2105263157894" y="363.7368421052632" type="curve"/>
      <point x="450.7368421052631" y="500.89473684210526" type="line"/>
      <point x="433.2631578947369" y="506.3684210526316"/>
      <point x="406.2105263157895" y="511.36842105263156"/>
      <point x="388.5789473684211" y="511.36842105263156" type="curve" smooth="yes"/>
      <point x="345.5789473684211" y="511.36842105263156"/>
      <point x="294.2631578947368" y="491.4210526315789"/>
      <point x="236.1578947368421" y="412.05263157894734" type="curve"/>
      <point x="224.8421052631579" y="412.05263157894734" type="line"/>
      <point x="235.05263157894737" y="504.89473684210526" type="line"/>
      <point x="105.63157894736842" y="498.2105263157895" type="line"/>
      <point x="105.57894736842105" y="419.4736842105263"/>
      <point x="94.73684210526316" y="342.0"/>
      <point x="79.21052631578948" y="266.7894736842105" type="curve"/>
      <point x="68.21052631578948" y="216.78947368421052" type="line"/>
      <point x="50.684210526315795" y="134.21052631578948"/>
      <point x="33.578947368421055" y="71.84210526315789"/>
    </contour>
  </outline>
</glyph>
<glyph name="s" format="2">
  <advance width="463.1456310679612"/>
  <unicode hex="0073"/>
  <anchor x="180.38834951456312" y="0.0" name="bottom"/>
  <anchor x="285.5145631067961" y="498.504854368932" name="top"/>
  <outline>
    <contour>
      <point x="201.51456310679615" y="-12.504854368932039" type="curve" smooth="yes"/>
      <point x="323.66990291262135" y="-12.504854368932039"/>
      <point x="387.1747572815534" y="36.75728155339805"/>
      <point x="402.42718446601947" y="111.38834951456309" type="curve" smooth="yes"/>
      <point x="420.4271844660194" y="200.378640776699"/>
      <point x="374.69902912621365" y="243.74757281553397"/>
      <point x="277.05825242718447" y="286.00000000000006" type="curve" smooth="yes"/>
      <point x="210.2135922330097" y="315.3592233009709"/>
      <point x="198.84466019417474" y="335.09708737864077"/>
      <point x="205.3398058252427" y="362.45631067961165" type="curve" smooth="yes"/>
      <point x="213.45631067961165" y="397.7961165048544"/>
      <point x="249.1747572815534" y="403.0485436893204"/>
      <point x="278.4077669902913" y="405.0485436893204" type="curve"/>
      <point x="303.1553398058252" y="405.0485436893204"/>
      <point x="354.15533980582524" y="389.66990291262135"/>
      <point x="413.7766990291262" y="356.29126213592235" type="curve"/>
      <point x="445.4271844660194" y="468.8834951456311" type="line"/>
      <point x="402.17475728155335" y="484.63106796116506"/>
      <point x="321.6504854368932" y="510.88349514563106"/>
      <point x="260.1359223300971" y="510.88349514563106" type="curve" smooth="yes"/>
      <point x="157.2233009708738" y="510.88349514563106"/>
      <point x="90.84466019417476" y="465.0"/>
      <point x="72.84466019417476" y="380.87378640776694" type="curve" smooth="yes"/>
      <point x="54.97087378640777" y="299.25242718446606"/>
      <point x="90.45631067961165" y="251.11650485436897"/>
      <point x="178.59223300970874" y="212.24271844660194" type="curve" smooth="yes"/>
      <point x="254.43689320388356" y="178.88349514563106"/>
      <point x="277.5533980582524" y="159.14563106796115"/>
      <point x="269.1844660194175" y="129.16504854368932" type="curve" smooth="yes"/>
      <point x="260.9417475728156" y="98.81553398058252"/>
      <point x="223.09708737864077" y="94.06796116504854"/>
      <point x="188.3689320388349" y="92.94174757281553" type="curve"/>
      <point x="150.25242718446597" y="92.94174757281553"/>
      <point x="85.73786407766993" y="117.5728155339806"/>
      <point x="35.11650485436893" y="151.4466019417476" type="curve"/>
      <point x="2.9708737864077657" y="33.864077669902905" type="line"/>
      <point x="46.60194174757281" y="17.116504854368934"/>
      <point x="114.99029126213593" y="-12.504854368932039"/>
    </contour>
  </outline>
</glyph>
<glyph name="t" format="2">
  <advance width="418.9473684210526"/>
  <unicode hex="0074"/>
  <anchor x="181.84210526315792" y="0.0" name="bottom"/>
  <anchor x="215.0" y="249.10526315789474" name="center"/>
  <anchor x="290.31578947368416" y="653.4736842105264" name="top"/>
  <anchor x="315.94736842105266" y="498.2105263157895" name="topright"/>
  <outline>
    <contour>
      <point x="239.42105263157893" y="-12.68421052631579" type="curve" smooth="yes"/>
      <point x="275.0" y="-12.68421052631579"/>
      <point x="323.05263157894734" y="0.21052631578947345"/>
      <point x="343.2105263157895" y="9.210526315789474" type="curve"/>
      <point x="357.89473684210526" y="121.84210526315789" type="line"/>
      <point x="330.36842105263156" y="105.42105263157895"/>
      <point x="299.21052631578954" y="95.63157894736841"/>
      <point x="280.94736842105266" y="95.63157894736841" type="curve" smooth="yes"/>
      <point x="231.42105263157893" y="95.63157894736841"/>
      <point x="208.6842105263158" y="129.47368421052633"/>
      <point x="223.3684210526316" y="199.1052631578947" type="curve" smooth="yes"/>
      <point x="279.7368421052632" y="464.2105263157895" type="line"/>
      <point x="297.89473684210526" y="550.0"/>
      <point x="313.2105263157895" y="608.2105263157895"/>
      <point x="335.57894736842104" y="685.0" type="curve"/>
      <point x="182.0" y="658.7368421052631" type="line"/>
      <point x="173.73684210526318" y="594.0"/>
      <point x="165.3684210526316" y="537.7894736842105"/>
      <point x="150.26315789473685" y="464.2105263157895" type="curve"/>
      <point x="125.21052631578948" y="346.10526315789474"/>
      <point x="105.0" y="265.36842105263156"/>
      <point x="84.94736842105263" y="171.52631578947367" type="curve" smooth="yes"/>
      <point x="58.78947368421052" y="47.15789473684211"/>
      <point x="127.36842105263159" y="-12.68421052631579"/>
    </contour>
    <contour>
      <point x="49.26315789473684" y="388.2631578947368" type="line"/>
      <point x="174.89473684210526" y="402.2105263157894" type="line"/>
      <point x="232.36842105263156" y="402.2105263157894" type="line"/>
      <point x="292.4736842105263" y="401.1578947368421"/>
      <point x="357.05263157894734" y="397.0"/>
      <point x="419.2105263157895" y="388.2631578947368" type="curve"/>
      <point x="442.5263157894737" y="498.2105263157895" type="line"/>
      <point x="72.57894736842105" y="498.2105263157895" type="line"/>
    </contour>
  </outline>
</glyph>
<glyph name="u" format="2">
  <advance width="573.2105263157895"/>
  <unicode hex="0075"/>
  <anchor x="233.52631578947367" y="0.0" name="bottom"/>
  <anchor x="462.7368421052631" y="0.0" name="ogonek"/>
  <anchor x="338.0526315789474" y="498.2105263157895" name="top"/>
  <anchor x="600.5263157894736" y="498.2105263157895" name="topright"/>
  <outline>
    <contour>
      <point x="171.78947368421055" y="-12.68421052631579" type="curve" smooth="yes"/>
      <point x="229.57894736842107" y="-12.68421052631579"/>
      <point x="300.57894736842104" y="32.631578947368425"/>
      <point x="345.2105263157895" y="79.52631578947368" type="curve"/>
      <point x="356.5263157894737" y="79.52631578947368" type="line"/>
      <point x="345.3684210526316" y="0.0" type="line"/>
      <point x="465.89473684210526" y="0.0" type="line"/>
      <point x="474.57894736842104" y="71.84210526315789"/>
      <point x="483.36842105263156" y="134.21052631578948"/>
      <point x="500.89473684210526" y="216.78947368421052" type="curve"/>
      <point x="512.9473684210526" y="272.05263157894734" type="line"/>
      <point x="532.0526315789473" y="363.05263157894734"/>
      <point x="549.1578947368421" y="426.36842105263156"/>
      <point x="571.3157894736842" y="498.2105263157895" type="curve"/>
      <point x="420.0526315789474" y="498.2105263157895" type="line"/>
      <point x="412.3157894736842" y="426.36842105263156"/>
      <point x="401.4736842105263" y="363.05263157894734"/>
      <point x="385.05263157894734" y="287.3157894736842" type="curve"/>
      <point x="361.7368421052631" y="177.10526315789468" type="line"/>
      <point x="324.8421052631579" y="138.31578947368425"/>
      <point x="274.94736842105266" y="105.10526315789473"/>
      <point x="242.73684210526312" y="105.10526315789473" type="curve" smooth="yes"/>
      <point x="184.1578947368421" y="105.10526315789473"/>
      <point x="169.73684210526315" y="146.89473684210523"/>
      <point x="185.94736842105263" y="222.5263157894737" type="curve"/>
      <point x="199.21052631578945" y="287.3157894736842" type="line"/>
      <point x="214.6315789473684" y="363.05263157894734"/>
      <point x="232.73684210526312" y="430.4736842105263"/>
      <point x="254.89473684210523" y="502.3157894736842" type="curve"/>
      <point x="101.05263157894737" y="498.2105263157895" type="line"/>
      <point x="93.3157894736842" y="426.36842105263156"/>
      <point x="84.57894736842105" y="364.1052631578948"/>
      <point x="65.0" y="272.05263157894734" type="curve"/>
      <point x="57.0" y="234.94736842105263"/>
      <point x="49.89473684210526" y="207.8421052631579"/>
      <point x="43.89473684210526" y="179.78947368421052" type="curve" smooth="yes"/>
      <point x="18.473684210526315" y="62.00000000000001"/>
      <point x="63.94736842105263" y="-12.68421052631579"/>
    </contour>
  </outline>
</glyph>
<glyph name="v" format="2">
  <advance width="541.7894736842105"/>
  <unicode hex="0076"/>
  <outline>
    <contour>
      <point x="142.36842105263156" y="0.0" type="curve"/>
      <point x="296.89473684210526" y="0.0" type="line"/>
      <point x="328.1578947368421" y="62.526315789473685"/>
      <point x="361.5263157894737" y="124.57894736842105"/>
      <point x="396.9473684210526" y="186.57894736842107" type="curve"/>
      <point x="447.8421052631579" y="275.6315789473684" type="line"/>
      <point x="489.7894736842105" y="349.6842105263158"/>
      <point x="533.2105263157894" y="424.6842105263158"/>
      <point x="581.7894736842105" y="498.2105263157895" type="curve"/>
      <point x="419.2105263157895" y="498.2105263157895" type="line"/>
      <point x="389.8947368421053" y="428.89473684210526"/>
      <point x="356.89473684210526" y="356.3157894736842"/>
      <point x="319.89473684210526" y="281.8421052631579" type="curve"/>
      <point x="250.78947368421052" y="141.8421052631579" type="line"/>
      <point x="239.52631578947364" y="141.8421052631579" type="line"/>
      <point x="227.4736842105263" y="281.8421052631579" type="line"/>
      <point x="221.0" y="356.3157894736842"/>
      <point x="217.10526315789474" y="429.4210526315789"/>
      <point x="215.73684210526315" y="502.3157894736842" type="curve"/>
      <point x="66.0" y="498.2105263157895" type="line"/>
      <point x="82.57894736842105" y="426.2105263157894"/>
      <point x="96.05263157894737" y="350.1578947368421"/>
      <point x="106.94736842105263" y="277.10526315789474" type="curve"/>
      <point x="120.36842105263158" y="188.57894736842104" type="line"/>
      <point x="129.78947368421052" y="127.0"/>
      <point x="137.63157894736844" y="62.526315789473685"/>
    </contour>
  </outline>
</glyph>
<glyph name="w" format="2">
  <advance width="827.1052631578948"/>
  <unicode hex="0077"/>
  <anchor x="358.84210526315786" y="0.0" name="bottom"/>
  <anchor x="463.36842105263156" y="498.2105263157895" name="top"/>
  <outline>
    <contour>
      <point x="117.36842105263158" y="0.0" type="curve"/>
      <point x="268.15789473684214" y="0.0" type="line"/>
      <point x="294.6315789473684" y="64.73684210526315"/>
      <point x="326.1578947368421" y="133.84210526315792"/>
      <point x="356.3157894736842" y="197.63157894736844" type="curve"/>
      <point x="414.68421052631584" y="321.2631578947369" type="line"/>
      <point x="424.89473684210526" y="321.2631578947369" type="line"/>
      <point x="432.7894736842106" y="201.21052631578948" type="line"/>
      <point x="436.4736842105263" y="136.8421052631579"/>
      <point x="440.10526315789474" y="63.78947368421052"/>
      <point x="439.6315789473685" y="0.0" type="curve"/>
      <point x="604.4736842105264" y="0.0" type="line"/>
      <point x="630.6842105263158" y="61.526315789473685"/>
      <point x="662.6315789473684" y="125.05263157894737"/>
      <point x="697.1052631578948" y="190.57894736842104" type="curve"/>
      <point x="743.0526315789474" y="277.57894736842104" type="line"/>
      <point x="782.0526315789474" y="351.6842105263158"/>
      <point x="820.5263157894736" y="423.6842105263158"/>
      <point x="867.6842105263158" y="498.2105263157895" type="curve"/>
      <point x="704.5789473684212" y="498.2105263157895" type="line"/>
      <point x="680.4736842105265" y="433.10526315789474"/>
      <point x="643.9473684210526" y="350.6842105263158"/>
      <point x="611.2631578947369" y="278.63157894736844" type="curve"/>
      <point x="546.8947368421052" y="136.5263157894737" type="line"/>
      <point x="536.6315789473684" y="136.5263157894737" type="line"/>
      <point x="530.3684210526316" y="277.10526315789474" type="line"/>
      <point x="527.2631578947369" y="350.1578947368421"/>
      <point x="525.2105263157896" y="427.1578947368421"/>
      <point x="527.2631578947369" y="498.2105263157895" type="curve"/>
      <point x="390.89473684210526" y="498.2105263157895" type="line"/>
      <point x="363.0" y="423.2631578947369"/>
      <point x="330.3157894736842" y="350.2631578947369"/>
      <point x="297.1052631578948" y="276.1578947368421" type="curve"/>
      <point x="234.1578947368421" y="136.5263157894737" type="line"/>
      <point x="223.8947368421053" y="136.5263157894737" type="line"/>
      <point x="217.1578947368421" y="274.2631578947368" type="line"/>
      <point x="214.05263157894737" y="346.8421052631579"/>
      <point x="211.0526315789474" y="428.7894736842105"/>
      <point x="213.10526315789474" y="502.3157894736842" type="curve"/>
      <point x="62.36842105263158" y="498.2105263157895" type="line"/>
      <point x="78.52631578947368" y="423.2105263157895"/>
      <point x="87.0" y="351.6315789473684"/>
      <point x="94.42105263157895" y="277.57894736842104" type="curve"/>
      <point x="103.78947368421052" y="189.1052631578947" type="line"/>
      <point x="110.21052631578947" y="125.57894736842105"/>
      <point x="115.63157894736841" y="62.526315789473685"/>
    </contour>
  </outline>
</glyph>
<glyph name="x" format="2">
  <advance width="564.2105263157895"/>
  <unicode hex="0078"/>
  <outline>
    <contour>
      <point x="-35.94736842105263" y="0.0" type="curve"/>
      <point x="136.78947368421052" y="0.0" type="line"/>
      <point x="160.73684210526318" y="40.05263157894737"/>
      <point x="180.0" y="68.6842105263158"/>
      <point x="208.6315789473684" y="109.31578947368422" type="curve"/>
      <point x="263.89473684210526" y="184.89473684210526" type="line"/>
      <point x="273.10526315789474" y="184.89473684210526" type="line"/>
      <point x="301.7368421052631" y="105.73684210526316" type="line"/>
      <point x="316.05263157894734" y="66.6842105263158"/>
      <point x="325.5263157894737" y="38.0"/>
      <point x="334.73684210526324" y="0.0" type="curve"/>
      <point x="496.2631578947368" y="0.0" type="line"/>
      <point x="458.8421052631579" y="65.15789473684211"/>
      <point x="439.0" y="106.78947368421052"/>
      <point x="416.2631578947368" y="155.31578947368422" type="curve"/>
      <point x="361.7894736842105" y="272.63157894736844" type="line"/>
      <point x="362.4210526315789" y="243.3684210526316" type="line"/>
      <point x="456.0526315789474" y="351.0" type="line"/>
      <point x="499.36842105263156" y="400.5263157894737"/>
      <point x="527.8421052631579" y="432.63157894736844"/>
      <point x="589.2105263157896" y="498.2105263157895" type="curve"/>
      <point x="415.9473684210526" y="498.2105263157895" type="line"/>
      <point x="391.94736842105266" y="458.1578947368421"/>
      <point x="371.10526315789474" y="428.4736842105263"/>
      <point x="342.8421052631579" y="389.2631578947369" type="curve"/>
      <point x="289.36842105263156" y="316.5263157894737" type="line"/>
      <point x="279.57894736842104" y="316.5263157894737" type="line"/>
      <point x="253.68421052631578" y="389.7894736842105" type="line"/>
      <point x="241.21052631578948" y="427.05263157894734"/>
      <point x="230.73684210526315" y="460.7894736842105"/>
      <point x="221.0" y="502.3157894736842" type="curve"/>
      <point x="69.36842105263158" y="498.2105263157895" type="line"/>
      <point x="102.73684210526316" y="436.1578947368421"/>
      <point x="119.10526315789474" y="399.05263157894734"/>
      <point x="140.78947368421052" y="348.57894736842104" type="curve"/>
      <point x="186.73684210526315" y="241.47368421052633" type="line"/>
      <point x="192.42105263157896" y="271.6842105263158" type="line"/>
      <point x="99.52631578947368" y="156.89473684210526" type="line"/>
      <point x="57.26315789473685" y="104.73684210526315"/>
      <point x="26.421052631578945" y="68.15789473684211"/>
    </contour>
  </outline>
</glyph>
<glyph name="y" format="2">
  <advance width="543.6842105263157"/>
  <unicode hex="0079"/>
  <anchor x="382.6842105263158" y="0.0" name="bottom"/>
  <anchor x="324.57894736842104" y="498.2105263157895" name="top"/>
  <outline>
    <contour>
      <point x="13.789473684210526" y="-196.10526315789474" type="curve"/>
      <point x="177.42105263157896" y="-192.0" type="line"/>
      <point x="212.57894736842104" y="-120.0"/>
      <point x="260.0" y="-36.89473684210526"/>
      <point x="335.36842105263156" y="90.10526315789474" type="curve"/>
      <point x="418.7894736842105" y="230.1578947368421" type="line"/>
      <point x="493.2105263157894" y="355.6842105263158"/>
      <point x="530.1578947368421" y="417.2105263157895"/>
      <point x="581.157894736842" y="498.2105263157895" type="curve"/>
      <point x="420.157894736842" y="498.2105263157895" type="line"/>
      <point x="389.8421052631579" y="424.6842105263158"/>
      <point x="356.36842105263156" y="354.1578947368421"/>
      <point x="318.3684210526316" y="279.2105263157895" type="curve"/>
      <point x="246.78947368421052" y="137.6315789473684" type="line"/>
      <point x="235.52631578947364" y="137.6315789473684" type="line"/>
      <point x="224.42105263157896" y="279.2631578947368" type="line"/>
      <point x="217.89473684210523" y="355.2631578947368"/>
      <point x="214.47368421052633" y="426.3157894736842"/>
      <point x="214.15789473684208" y="502.3157894736842" type="curve"/>
      <point x="64.42105263157895" y="498.2105263157895" type="line"/>
      <point x="81.52631578947368" y="426.6842105263158"/>
      <point x="93.47368421052632" y="350.6842105263158"/>
      <point x="103.89473684210526" y="279.1578947368421" type="curve"/>
      <point x="116.78947368421052" y="189.1578947368421" type="line"/>
      <point x="126.73684210526318" y="121.57894736842105"/>
      <point x="133.52631578947367" y="51.63157894736842"/>
      <point x="139.26315789473685" y="-16.894736842105264" type="curve"/>
      <point x="149.68421052631578" y="13.894736842105262" type="line"/>
      <point x="111.68421052631578" y="-54.36842105263158"/>
      <point x="63.789473684210535" y="-127.84210526315789"/>
    </contour>
  </outline>
</glyph>
<glyph name="z" format="2">
  <advance width="510.42105263157896"/>
  <unicode hex="007A"/>
  <anchor x="201.21052631578948" y="0.0" name="bottom"/>
  <anchor x="253.73684210526315" y="249.10526315789474" name="center"/>
  <anchor x="306.2631578947368" y="498.2105263157895" name="top"/>
  <outline>
    <contour>
      <point x="-19.05263157894737" y="0.0" type="line"/>
      <point x="426.3157894736842" y="0.0" type="line"/>
      <point x="450.15789473684214" y="112.05263157894737" type="line"/>
      <point x="387.2631578947368" y="102.15789473684211"/>
      <point x="304.10526315789474" y="97.47368421052632"/>
      <point x="254.63157894736844" y="97.47368421052632" type="curve"/>
      <point x="145.31578947368422" y="97.47368421052632" type="line"/>
      <point x="159.26315789473682" y="70.05263157894737" type="line"/>
      <point x="330.89473684210526" y="247.10526315789474" type="line"/>
      <point x="384.1052631578948" y="301.7894736842106"/>
      <point x="452.68421052631584" y="367.63157894736844"/>
      <point x="497.7894736842105" y="408.4736842105263" type="curve"/>
      <point x="516.4736842105262" y="498.2105263157895" type="line"/>
      <point x="89.6842105263158" y="498.2105263157895" type="line"/>
      <point x="65.3157894736842" y="383.5263157894737" type="line"/>
      <point x="134.21052631578945" y="395.4736842105263"/>
      <point x="219.42105263157896" y="400.2105263157895"/>
      <point x="268.42105263157896" y="400.2105263157895" type="curve"/>
      <point x="368.42105263157896" y="400.2105263157895" type="line"/>
      <point x="349.7368421052632" y="437.6842105263158" type="line"/>
      <point x="173.3157894736842" y="251.6315789473684" type="line"/>
      <point x="123.57894736842107" y="198.8421052631579"/>
      <point x="62.84210526315789" y="138.73684210526318"/>
      <point x="-2.4736842105263173" y="78.26315789473684" type="curve"/>
    </contour>
  </outline>
</glyph>
<glyph name="braceleft" format="2">
  <advance width="434.10526315789474"/>
  <unicode hex="007B"/>
  <outline>
    <contour>
      <point x="246.57894736842104" y="-121.47368421052632" type="curve" smooth="yes"/>
      <point x="335.9473684210526" y="-121.47368421052632" type="line"/>
      <point x="358.2631578947368" y="-13.105263157894743" type="line"/>
      <point x="324.2105263157894" y="-15.684210526315795"/>
      <point x="297.2105263157894" y="-16.21052631578948"/>
      <point x="280.2105263157894" y="-16.21052631578948" type="curve"/>
      <point x="227.78947368421055" y="-14.105263157894743"/>
      <point x="211.3157894736842" y="19.94736842105263"/>
      <point x="220.15789473684208" y="68.78947368421052" type="curve" smooth="yes"/>
      <point x="243.05263157894737" y="189.6315789473684" type="line" smooth="yes"/>
      <point x="257.0" y="264.2631578947369"/>
      <point x="237.05263157894737" y="296.36842105263156"/>
      <point x="182.15789473684208" y="318.5263157894737" type="curve"/>
      <point x="184.21052631578945" y="329.2631578947368" type="line"/>
      <point x="248.15789473684208" y="354.10526315789474"/>
      <point x="282.2631578947368" y="389.63157894736844"/>
      <point x="301.3684210526316" y="468.2105263157895" type="curve" smooth="yes"/>
      <point x="330.6842105263158" y="594.6842105263158" type="line" smooth="yes"/>
      <point x="342.5789473684211" y="644.9473684210527"/>
      <point x="369.5263157894737" y="665.2631578947369"/>
      <point x="419.57894736842104" y="666.8421052631579" type="curve"/>
      <point x="438.00000000000006" y="666.8421052631579"/>
      <point x="465.89473684210526" y="666.3157894736843"/>
      <point x="497.7368421052631" y="663.7368421052632" type="curve"/>
      <point x="521.0526315789473" y="772.1052631578947" type="line"/>
      <point x="414.7894736842105" y="772.1052631578947" type="line" smooth="yes"/>
      <point x="304.0" y="772.1052631578947"/>
      <point x="232.05263157894737" y="728.6842105263157"/>
      <point x="210.8421052631579" y="627.6315789473684" type="curve"/>
      <point x="199.94736842105263" y="573.578947368421"/>
      <point x="192.26315789473682" y="517.9473684210527"/>
      <point x="180.8421052631579" y="463.89473684210526" type="curve"/>
      <point x="167.52631578947367" y="399.6842105263158"/>
      <point x="124.3157894736842" y="372.2105263157895"/>
      <point x="78.57894736842104" y="372.2105263157895" type="curve" smooth="yes"/>
      <point x="41.10526315789474" y="372.2105263157895" type="line"/>
      <point x="21.42105263157895" y="277.94736842105266" type="line"/>
      <point x="58.89473684210525" y="277.94736842105266" type="line" smooth="yes"/>
      <point x="104.63157894736842" y="277.94736842105266"/>
      <point x="135.8421052631579" y="250.47368421052633"/>
      <point x="122.52631578947367" y="186.26315789473685" type="curve"/>
      <point x="113.1578947368421" y="141.94736842105263"/>
      <point x="100.68421052631578" y="98.10526315789474"/>
      <point x="91.31578947368419" y="53.78947368421052" type="curve"/>
      <point x="70.57894736842104" y="-45.84210526315789"/>
      <point x="131.52631578947367" y="-121.47368421052632"/>
    </contour>
  </outline>
</glyph>
<glyph name="bar" format="2">
  <advance width="277.36842105263156"/>
  <unicode hex="007C"/>
  <outline>
    <contour>
      <point x="-12.263157894736839" y="-159.26315789473685" type="curve"/>
      <point x="116.4736842105263" y="-159.26315789473685" type="line"/>
      <point x="134.73684210526315" y="-42.26315789473684"/>
      <point x="156.21052631578948" y="61.73684210526316"/>
      <point x="179.21052631578948" y="169.73684210526315" type="curve"/>
      <point x="239.21052631578948" y="451.7368421052632" type="line"/>
      <point x="262.2105263157895" y="559.7368421052631"/>
      <point x="284.7368421052632" y="663.7368421052631"/>
      <point x="316.4736842105263" y="780.7368421052631" type="curve"/>
      <point x="187.73684210526315" y="780.7368421052631" type="line"/>
      <point x="169.47368421052633" y="663.7368421052631"/>
      <point x="148.0" y="559.7368421052631"/>
      <point x="125.0" y="451.7368421052632" type="curve"/>
      <point x="65.0" y="169.73684210526315" type="line"/>
      <point x="42.0" y="61.73684210526316"/>
      <point x="18.947368421052634" y="-42.26315789473684"/>
    </contour>
  </outline>
</glyph>
<glyph name="asciitilde" format="2">
  <advance width="575.7894736842105"/>
  <unicode hex="007E"/>
  <outline>
    <contour>
      <point x="409.84210526315786" y="209.8421052631579" type="curve" smooth="yes"/>
      <point x="481.1578947368421" y="209.8421052631579"/>
      <point x="527.0526315789474" y="272.57894736842104"/>
      <point x="549.421052631579" y="378.7368421052632" type="curve"/>
      <point x="469.8947368421053" y="378.7368421052632" type="line"/>
      <point x="455.5263157894737" y="342.7368421052632"/>
      <point x="441.7894736842105" y="326.0"/>
      <point x="411.94736842105266" y="323.4736842105263" type="curve"/>
      <point x="350.00000000000006" y="328.1052631578947"/>
      <point x="272.1052631578947" y="396.4736842105263"/>
      <point x="194.21052631578948" y="396.4736842105263" type="curve" smooth="yes"/>
      <point x="119.73684210526315" y="396.4736842105263"/>
      <point x="72.31578947368422" y="332.7368421052632"/>
      <point x="49.473684210526315" y="227.57894736842104" type="curve"/>
      <point x="129.0" y="227.57894736842104" type="line"/>
      <point x="143.3684210526316" y="263.57894736842104"/>
      <point x="159.6315789473684" y="280.3157894736842"/>
      <point x="190.05263157894737" y="282.8421052631579" type="curve"/>
      <point x="249.8421052631579" y="278.21052631578954"/>
      <point x="329.8421052631579" y="209.8421052631579"/>
    </contour>
  </outline>
</glyph>
<glyph name="cent" format="2">
  <advance width="487.2631578947368"/>
  <unicode hex="00A2"/>
  <anchor x="229.05263157894737" y="0.0" name="bottom"/>
  <anchor x="329.8421052631579" y="498.2105263157895" name="top"/>
  <outline>
    <contour>
      <point x="149.0" y="-137.0" type="curve"/>
      <point x="256.2105263157894" y="-137.0" type="line"/>
      <point x="273.4210526315789" y="-21.052631578947366"/>
      <point x="295.9473684210526" y="84.0"/>
      <point x="318.9473684210526" y="192.52631578947367" type="curve"/>
      <point x="340.9473684210526" y="296.10526315789474" type="line"/>
      <point x="363.9473684210526" y="404.63157894736844"/>
      <point x="385.9473684210526" y="508.10526315789474"/>
      <point x="418.2105263157894" y="625.6315789473684" type="curve"/>
      <point x="311.00000000000006" y="625.6315789473684" type="line"/>
      <point x="293.2631578947369" y="508.63157894736844"/>
      <point x="271.2631578947369" y="404.10526315789474"/>
      <point x="248.26315789473685" y="296.10526315789474" type="curve"/>
      <point x="226.26315789473685" y="192.52631578947367" type="line"/>
      <point x="203.78947368421052" y="86.10526315789474"/>
      <point x="181.26315789473685" y="-19.473684210526315"/>
    </contour>
    <contour>
      <point x="283.8421052631579" y="-11.105263157894738" type="curve" smooth="yes"/>
      <point x="325.05263157894734" y="-11.105263157894738"/>
      <point x="374.9473684210526" y="3.210526315789474"/>
      <point x="401.9473684210526" y="14.052631578947368" type="curve"/>
      <point x="418.2631578947369" y="131.94736842105263" type="line"/>
      <point x="384.94736842105266" y="113.10526315789473"/>
      <point x="339.10526315789474" y="98.73684210526315"/>
      <point x="308.05263157894734" y="98.26315789473684" type="curve" smooth="yes"/>
      <point x="210.52631578947367" y="100.26315789473684"/>
      <point x="152.89473684210526" y="160.73684210526315"/>
      <point x="175.94736842105263" y="265.94736842105266" type="curve" smooth="yes"/>
      <point x="195.0" y="351.68421052631584"/>
      <point x="252.3684210526316" y="393.8421052631579"/>
      <point x="327.4736842105263" y="398.8421052631579" type="curve"/>
      <point x="356.0526315789473" y="398.8421052631579"/>
      <point x="406.1578947368421" y="385.4736842105263"/>
      <point x="462.7894736842106" y="355.1052631578947" type="curve"/>
      <point x="495.89473684210526" y="470.63157894736844" type="line"/>
      <point x="454.3157894736842" y="487.47368421052636"/>
      <point x="387.52631578947364" y="510.8421052631579"/>
      <point x="327.42105263157896" y="510.8421052631579" type="curve" smooth="yes"/>
      <point x="175.31578947368422" y="510.8421052631579"/>
      <point x="72.94736842105263" y="417.42105263157896"/>
      <point x="43.89473684210527" y="278.78947368421046" type="curve" smooth="yes"/>
      <point x="7.736842105263161" y="105.21052631578948"/>
      <point x="105.99999999999999" y="-11.105263157894738"/>
    </contour>
  </outline>
</glyph>
<glyph name="sterling" format="2">
  <advance width="602.1578947368421"/>
  <unicode hex="00A3"/>
  <outline>
    <contour>
      <point x="1.421052631578946" y="0.0" type="line"/>
      <point x="517.2631578947369" y="0.0" type="line"/>
      <point x="545.3157894736842" y="131.94736842105263" type="line"/>
      <point x="460.5263157894737" y="120.52631578947368"/>
      <point x="387.3157894736842" y="119.47368421052632"/>
      <point x="263.2631578947369" y="119.47368421052632" type="curve"/>
      <point x="126.3157894736842" y="119.47368421052632" type="line"/>
      <point x="146.0" y="94.68421052631578" type="line"/>
      <point x="242.78947368421052" y="162.63157894736844"/>
      <point x="260.21052631578954" y="218.68421052631578"/>
      <point x="271.10526315789474" y="269.2631578947369" type="curve" smooth="yes"/>
      <point x="308.6842105263158" y="447.6842105263158" type="line" smooth="yes"/>
      <point x="328.2631578947369" y="539.7894736842106"/>
      <point x="375.15789473684214" y="581.9473684210526"/>
      <point x="451.6315789473684" y="584.5263157894736" type="curve"/>
      <point x="481.21052631578954" y="584.5263157894736"/>
      <point x="532.7894736842104" y="571.1578947368421"/>
      <point x="591.421052631579" y="540.7368421052631" type="curve"/>
      <point x="630.2631578947369" y="662.6315789473684" type="line"/>
      <point x="582.4736842105262" y="678.9473684210527"/>
      <point x="506.31578947368416" y="701.2631578947369"/>
      <point x="437.89473684210526" y="701.2631578947369" type="curve" smooth="yes"/>
      <point x="294.7368421052632" y="701.2631578947369"/>
      <point x="201.31578947368425" y="621.1052631578947"/>
      <point x="169.26315789473688" y="466.2631578947369" type="curve" smooth="yes"/>
      <point x="154.421052631579" y="397.36842105263156"/>
      <point x="139.73684210526315" y="303.89473684210526"/>
      <point x="123.78947368421053" y="227.6315789473684" type="curve"/>
      <point x="114.84210526315789" y="188.10526315789474"/>
      <point x="98.52631578947368" y="133.26315789473688"/>
      <point x="17.421052631578945" y="75.94736842105263" type="curve"/>
    </contour>
    <contour>
      <point x="68.36842105263158" y="318.0526315789474" type="line"/>
      <point x="136.31578947368422" y="322.6842105263158"/>
      <point x="200.26315789473685" y="323.2105263157895"/>
      <point x="255.15789473684208" y="323.2105263157895" type="curve"/>
      <point x="292.5263157894737" y="323.2105263157895" type="line"/>
      <point x="347.42105263157896" y="323.2105263157895"/>
      <point x="410.3157894736842" y="322.6842105263158"/>
      <point x="476.2631578947368" y="318.0526315789474" type="curve"/>
      <point x="497.99999999999994" y="420.57894736842104" type="line"/>
      <point x="430.5263157894737" y="415.94736842105266"/>
      <point x="366.57894736842104" y="415.42105263157896"/>
      <point x="311.6842105263158" y="415.42105263157896" type="curve"/>
      <point x="274.31578947368416" y="415.42105263157896" type="line"/>
      <point x="219.42105263157896" y="415.42105263157896"/>
      <point x="156.52631578947367" y="415.94736842105266"/>
      <point x="90.10526315789474" y="420.57894736842104" type="curve"/>
    </contour>
  </outline>
</glyph>
<glyph name="currency" format="2">
  <advance width="644.2105263157895"/>
  <unicode hex="00A4"/>
  <outline>
    <contour>
      <point x="320.47368421052636" y="101.05263157894737" type="curve" smooth="yes"/>
      <point x="446.05263157894734" y="101.05263157894737"/>
      <point x="529.6842105263158" y="159.21052631578948"/>
      <point x="556.421052631579" y="289.05263157894734" type="curve" smooth="yes"/>
      <point x="583.6315789473684" y="421.36842105263156"/>
      <point x="492.0" y="538.3684210526316"/>
      <point x="351.10526315789474" y="538.3684210526316" type="curve" smooth="yes"/>
      <point x="228.84210526315792" y="538.3684210526316"/>
      <point x="141.47368421052633" y="480.6842105263158"/>
      <point x="114.73684210526316" y="350.84210526315786" type="curve" smooth="yes"/>
      <point x="87.52631578947368" y="218.05263157894737"/>
      <point x="177.6842105263158" y="101.05263157894737"/>
    </contour>
    <contour>
      <point x="118.63157894736842" y="29.263157894736842" type="line"/>
      <point x="164.36842105263156" y="78.15789473684211"/>
      <point x="210.1578947368421" y="121.47368421052632"/>
      <point x="250.4736842105263" y="159.26315789473682" type="curve"/>
      <point x="170.47368421052633" y="244.42105263157896" type="line"/>
      <point x="130.68421052631578" y="207.15789473684208"/>
      <point x="83.36842105263159" y="164.89473684210523"/>
      <point x="31.947368421052627" y="122.6842105263158" type="curve"/>
    </contour>
    <contour>
      <point x="328.7894736842105" y="209.89473684210526" type="curve"/>
      <point x="260.7368421052632" y="214.0"/>
      <point x="216.21052631578945" y="268.7894736842105"/>
      <point x="229.42105263157893" y="335.2631578947369" type="curve" smooth="yes"/>
      <point x="241.10526315789474" y="395.57894736842104"/>
      <point x="286.0" y="427.5263157894737"/>
      <point x="344.89473684210526" y="431.10526315789474" type="curve"/>
      <point x="412.57894736842104" y="426.4736842105263"/>
      <point x="456.0" y="370.6315789473684"/>
      <point x="443.3157894736842" y="306.7368421052632" type="curve" smooth="yes"/>
      <point x="430.63157894736844" y="242.26315789473685"/>
      <point x="390.0" y="211.89473684210526"/>
    </contour>
    <contour>
      <point x="193.78947368421055" y="391.2631578947369" type="curve"/>
      <point x="276.89473684210526" y="468.63157894736844" type="line"/>
      <point x="239.10526315789474" y="509.42105263157896"/>
      <point x="196.8421052631579" y="555.7368421052631"/>
      <point x="154.6315789473684" y="607.6842105263157" type="curve"/>
      <point x="63.78947368421052" y="522.5789473684212" type="line"/>
      <point x="112.73684210526315" y="477.3157894736842"/>
      <point x="156.52631578947367" y="431.0526315789474"/>
    </contour>
    <contour>
      <point x="520.5263157894738" y="33.26315789473685" type="curve"/>
      <point x="611.3684210526316" y="118.36842105263158" type="line"/>
      <point x="562.421052631579" y="163.6315789473684"/>
      <point x="518.6315789473684" y="209.8947368421053"/>
      <point x="481.3684210526316" y="249.6842105263158" type="curve"/>
      <point x="398.2631578947368" y="172.3157894736842" type="line"/>
      <point x="436.05263157894734" y="131.52631578947367"/>
      <point x="478.3157894736842" y="85.21052631578948"/>
    </contour>
    <contour>
      <point x="504.6842105263158" y="396.5263157894737" type="line"/>
      <point x="544.4736842105264" y="433.7894736842105"/>
      <point x="591.7894736842105" y="476.05263157894734"/>
      <point x="643.2105263157895" y="518.2631578947369" type="curve"/>
      <point x="556.5263157894738" y="611.6842105263158" type="line"/>
      <point x="510.78947368421046" y="562.7894736842105"/>
      <point x="465.0" y="519.4736842105264"/>
      <point x="424.6842105263158" y="481.6842105263158" type="curve"/>
    </contour>
  </outline>
</glyph>
<glyph name="yen" format="2">
  <advance width="645.1052631578947"/>
  <unicode hex="00A5"/>
  <outline>
    <contour>
      <point x="263.9473684210526" y="252.21052631578948" type="line"/>
      <point x="385.57894736842104" y="252.21052631578948" type="line"/>
      <point x="583.2631578947369" y="514.8947368421053" type="line"/>
      <point x="628.6842105263158" y="575.1578947368422"/>
      <point x="672.578947368421" y="633.3684210526317"/>
      <point x="722.9473684210526" y="687.1578947368421" type="curve"/>
      <point x="538.5263157894738" y="687.1578947368421" type="line"/>
      <point x="493.3684210526316" y="605.578947368421"/>
      <point x="468.578947368421" y="568.0"/>
      <point x="424.7894736842105" y="503.2631578947369" type="curve"/>
      <point x="352.7894736842105" y="396.5263157894737" type="line"/>
      <point x="342.57894736842104" y="396.5263157894737" type="line"/>
      <point x="314.3684210526315" y="498.2105263157895" type="line"/>
      <point x="296.6842105263157" y="561.3157894736843"/>
      <point x="287.7368421052631" y="605.6842105263157"/>
      <point x="274.10526315789474" y="687.1578947368421" type="curve"/>
      <point x="106.15789473684211" y="687.1578947368421" type="line"/>
      <point x="146.8421052631579" y="598.7368421052631"/>
      <point x="158.26315789473682" y="565.0526315789474"/>
      <point x="175.6315789473684" y="513.3157894736843" type="curve"/>
    </contour>
    <contour>
      <point x="191.52631578947367" y="0.0" type="curve"/>
      <point x="350.6842105263158" y="0.0" type="line"/>
      <point x="356.2631578947368" y="74.3157894736842"/>
      <point x="369.2105263157894" y="138.1578947368421"/>
      <point x="387.2105263157894" y="222.21052631578948" type="curve"/>
      <point x="417.31578947368416" y="364.57894736842104" type="line"/>
      <point x="279.4736842105263" y="364.57894736842104" type="line"/>
      <point x="249.3684210526316" y="222.73684210526315" type="line"/>
      <point x="231.3684210526316" y="138.68421052631578"/>
      <point x="217.36842105263156" y="74.3157894736842"/>
    </contour>
    <contour>
      <point x="47.473684210526315" y="120.73684210526315" type="line"/>
      <point x="114.94736842105264" y="125.36842105263158"/>
      <point x="178.36842105263156" y="125.89473684210526"/>
      <point x="233.26315789473682" y="125.89473684210526" type="curve"/>
      <point x="361.1578947368421" y="125.89473684210526" type="line"/>
      <point x="416.05263157894734" y="125.89473684210526"/>
      <point x="479.4736842105263" y="125.36842105263158"/>
      <point x="545.8947368421053" y="120.73684210526315" type="curve"/>
      <point x="564.5263157894736" y="210.1052631578947" type="line"/>
      <point x="497.05263157894734" y="208.1052631578947"/>
      <point x="433.6315789473684" y="207.57894736842104"/>
      <point x="378.7368421052631" y="207.57894736842104" type="curve"/>
      <point x="250.8421052631579" y="207.57894736842104" type="line"/>
      <point x="195.94736842105263" y="207.57894736842104"/>
      <point x="132.5263157894737" y="208.1052631578947"/>
      <point x="66.10526315789474" y="210.1052631578947" type="curve"/>
    </contour>
    <contour>
      <point x="80.78947368421052" y="279.1578947368421" type="line"/>
      <point x="148.21052631578948" y="281.1578947368421"/>
      <point x="211.6315789473684" y="281.6842105263158"/>
      <point x="266.52631578947364" y="281.6842105263158" type="curve"/>
      <point x="394.4210526315789" y="281.6842105263158" type="line"/>
      <point x="449.31578947368416" y="281.6842105263158"/>
      <point x="512.7368421052631" y="281.1578947368421"/>
      <point x="579.2105263157895" y="279.1578947368421" type="curve"/>
      <point x="598.3157894736843" y="368.52631578947364" type="line"/>
      <point x="530.3157894736843" y="363.89473684210526"/>
      <point x="466.8947368421052" y="363.36842105263156"/>
      <point x="411.99999999999994" y="363.36842105263156" type="curve"/>
      <point x="284.1052631578947" y="363.36842105263156" type="line"/>
      <point x="229.21052631578945" y="363.36842105263156"/>
      <point x="165.78947368421055" y="363.89473684210526"/>
      <point x="99.89473684210526" y="368.52631578947364" type="curve"/>
    </contour>
  </outline>
</glyph>
<glyph name="brokenbar" format="2">
  <advance width="277.36842105263156"/>
  <unicode hex="00A6"/>
  <outline>
    <contour>
      <point x="105.47368421052632" y="360.7368421052632" type="line"/>
      <point x="219.68421052631578" y="360.7368421052632" type="line"/>
      <point x="239.21052631578948" y="451.7368421052632" type="line"/>
      <point x="262.2105263157895" y="559.7368421052631"/>
      <point x="284.7368421052632" y="663.7368421052631"/>
      <point x="316.4736842105263" y="780.7368421052631" type="curve"/>
      <point x="187.73684210526315" y="780.7368421052631" type="line"/>
      <point x="169.47368421052633" y="663.7368421052631"/>
      <point x="148.0" y="559.7368421052631"/>
      <point x="125.0" y="451.7368421052632" type="curve"/>
    </contour>
    <contour>
      <point x="-12.263157894736839" y="-159.26315789473685" type="curve"/>
      <point x="116.4736842105263" y="-159.26315789473685" type="line"/>
      <point x="134.73684210526315" y="-42.26315789473684"/>
      <point x="156.21052631578948" y="61.73684210526316"/>
      <point x="179.21052631578948" y="169.73684210526315" type="curve"/>
      <point x="198.21052631578948" y="260.7368421052632" type="line"/>
      <point x="84.0" y="260.7368421052632" type="line"/>
      <point x="65.0" y="169.73684210526315" type="line"/>
      <point x="42.0" y="61.73684210526316"/>
      <point x="18.947368421052634" y="-42.26315789473684"/>
    </contour>
  </outline>
</glyph>
<glyph name="logicalnot" format="2">
  <advance width="575.7894736842105"/>
  <unicode hex="00AC"/>
  <outline>
    <contour>
      <point x="357.42105263157896" y="53.94736842105263" type="curve"/>
      <point x="485.1052631578947" y="53.94736842105263" type="line"/>
      <point x="494.57894736842104" y="119.94736842105263"/>
      <point x="507.6315789473684" y="183.78947368421055"/>
      <point x="519.2105263157895" y="238.1578947368421" type="curve"/>
      <point x="546.1052631578947" y="364.6315789473684" type="line"/>
      <point x="478.15789473684214" y="360.0"/>
      <point x="414.7368421052632" y="359.4736842105263"/>
      <point x="359.8421052631579" y="359.4736842105263" type="curve"/>
      <point x="263.0" y="359.4736842105263" type="line"/>
      <point x="208.1052631578947" y="359.4736842105263"/>
      <point x="144.68421052631578" y="360.0"/>
      <point x="78.73684210526316" y="364.6315789473684" type="curve"/>
      <point x="52.26315789473684" y="240.10526315789474" type="line"/>
      <point x="120.26315789473685" y="244.73684210526318"/>
      <point x="183.68421052631578" y="245.26315789473685"/>
      <point x="238.57894736842104" y="245.26315789473685" type="curve"/>
      <point x="335.42105263157896" y="245.26315789473685" type="line"/>
      <point x="384.1578947368421" y="245.26315789473685"/>
      <point x="440.89473684210526" y="244.73684210526318"/>
      <point x="499.10526315789474" y="240.10526315789474" type="curve"/>
      <point x="420.4736842105263" y="326.3157894736842" type="line"/>
      <point x="401.8421052631579" y="238.6842105263158" type="line"/>
      <point x="390.2631578947368" y="184.31578947368422"/>
      <point x="376.1578947368421" y="119.94736842105263"/>
    </contour>
  </outline>
</glyph>
<glyph name="degree" format="2">
  <advance width="500.8421052631579"/>
  <unicode hex="00B0"/>
  <outline>
    <contour>
      <point x="291.52631578947364" y="303.2631578947368" type="curve" smooth="yes"/>
      <point x="407.0" y="303.2631578947368"/>
      <point x="489.3157894736842" y="358.36842105263156"/>
      <point x="514.9473684210527" y="478.94736842105266" type="curve" smooth="yes"/>
      <point x="539.0526315789474" y="594.9473684210527"/>
      <point x="455.63157894736844" y="701.2631578947369"/>
      <point x="316.9473684210526" y="701.2631578947369" type="curve" smooth="yes"/>
      <point x="198.00000000000003" y="701.2631578947369"/>
      <point x="117.73684210526315" y="639.6842105263158"/>
      <point x="94.21052631578947" y="528.421052631579" type="curve" smooth="yes"/>
      <point x="67.05263157894736" y="403.10526315789474"/>
      <point x="148.94736842105266" y="303.2631578947368"/>
    </contour>
    <contour>
      <point x="296.7368421052631" y="396.36842105263156" type="curve"/>
      <point x="222.89473684210526" y="399.42105263157896"/>
      <point x="186.7894736842105" y="450.42105263157896"/>
      <point x="199.4736842105263" y="512.3157894736842" type="curve" smooth="yes"/>
      <point x="211.68421052631578" y="572.7894736842105"/>
      <point x="252.15789473684208" y="604.0526315789474"/>
      <point x="312.2631578947368" y="608.1578947368421" type="curve"/>
      <point x="381.1578947368421" y="604.0526315789473"/>
      <point x="418.6842105263157" y="548.6315789473684"/>
      <point x="406.52631578947364" y="490.7894736842105" type="curve" smooth="yes"/>
      <point x="392.84210526315786" y="426.2631578947369"/>
      <point x="353.157894736842" y="399.9473684210526"/>
    </contour>
  </outline>
</glyph>
<glyph name="plusminus" format="2">
  <advance width="575.7894736842105"/>
  <unicode hex="00B1"/>
  <outline>
    <contour>
      <point x="0.1578947368421042" y="-5.157894736842105" type="line"/>
      <point x="67.63157894736842" y="-0.5263157894736842"/>
      <point x="131.57894736842104" y="0.0"/>
      <point x="186.4736842105263" y="0.0" type="curve"/>
      <point x="283.3157894736842" y="0.0" type="line"/>
      <point x="338.2105263157895" y="0.0"/>
      <point x="401.10526315789474" y="-0.5263157894736842"/>
      <point x="467.5263157894737" y="-5.157894736842105" type="curve"/>
      <point x="494.0" y="119.36842105263158" type="line"/>
      <point x="426.0" y="114.73684210526315"/>
      <point x="362.57894736842104" y="114.21052631578947"/>
      <point x="307.6842105263158" y="114.21052631578947" type="curve"/>
      <point x="210.8421052631579" y="114.21052631578947" type="line"/>
      <point x="155.94736842105263" y="114.21052631578947"/>
      <point x="92.52631578947368" y="114.73684210526315"/>
      <point x="26.63157894736842" y="119.36842105263158" type="curve"/>
    </contour>
    <contour>
      <point x="77.26315789473685" y="358.89473684210526" type="line"/>
      <point x="145.73684210526315" y="363.52631578947364"/>
      <point x="209.15789473684208" y="364.05263157894734"/>
      <point x="264.05263157894734" y="364.05263157894734" type="curve"/>
      <point x="360.89473684210526" y="364.05263157894734" type="line"/>
      <point x="415.7894736842105" y="364.05263157894734"/>
      <point x="479.2105263157895" y="363.52631578947364"/>
      <point x="544.6315789473684" y="358.89473684210526" type="curve"/>
      <point x="571.1052631578947" y="483.4210526315789" type="line"/>
      <point x="503.63157894736844" y="478.7894736842105"/>
      <point x="440.2105263157895" y="478.2631578947368"/>
      <point x="385.3157894736842" y="478.2631578947368" type="curve"/>
      <point x="288.4736842105263" y="478.2631578947368" type="line"/>
      <point x="233.57894736842104" y="478.2631578947368"/>
      <point x="170.1578947368421" y="478.7894736842105"/>
      <point x="103.73684210526316" y="483.4210526315789" type="curve"/>
    </contour>
    <contour>
      <point x="209.0" y="183.26315789473685" type="curve"/>
      <point x="337.6842105263158" y="183.26315789473685" type="line"/>
      <point x="347.6315789473684" y="249.73684210526315"/>
      <point x="360.2105263157895" y="313.63157894736844"/>
      <point x="371.7894736842105" y="368.5263157894737" type="curve"/>
      <point x="394.42105263157896" y="473.7894736842105" type="line"/>
      <point x="406.0" y="528.6842105263158"/>
      <point x="420.10526315789474" y="592.1052631578947"/>
      <point x="438.84210526315786" y="659.0526315789474" type="curve"/>
      <point x="310.15789473684214" y="659.0526315789474" type="line"/>
      <point x="300.2105263157895" y="592.578947368421"/>
      <point x="287.63157894736844" y="528.6842105263158"/>
      <point x="276.0526315789474" y="473.7894736842105" type="curve"/>
      <point x="253.42105263157896" y="368.5263157894737" type="line"/>
      <point x="241.8421052631579" y="313.63157894736844"/>
      <point x="227.73684210526318" y="249.73684210526315"/>
    </contour>
  </outline>
</glyph>
